<?xml version="1.0" encoding="utf-8" standalone="no"?>
<!DOCTYPE svg PUBLIC "-//W3C//DTD SVG 1.1//EN"
  "http://www.w3.org/Graphics/SVG/1.1/DTD/svg11.dtd">
<svg xmlns:xlink="http://www.w3.org/1999/xlink" width="504.403487pt" height="415.651332pt" viewBox="0 0 504.403487 415.651332" xmlns="http://www.w3.org/2000/svg" version="1.1">
 <metadata>
  <rdf:RDF xmlns:dc="http://purl.org/dc/elements/1.1/" xmlns:cc="http://creativecommons.org/ns#" xmlns:rdf="http://www.w3.org/1999/02/22-rdf-syntax-ns#">
   <cc:Work>
    <dc:type rdf:resource="http://purl.org/dc/dcmitype/StillImage"/>
    <dc:date>2022-07-09T15:06:38.767888</dc:date>
    <dc:format>image/svg+xml</dc:format>
    <dc:creator>
     <cc:Agent>
      <dc:title>Matplotlib v3.5.1, https://matplotlib.org/</dc:title>
     </cc:Agent>
    </dc:creator>
   </cc:Work>
  </rdf:RDF>
 </metadata>
 <defs>
  <style type="text/css">*{stroke-linejoin: round; stroke-linecap: butt}</style>
 </defs>
 <g id="figure_1">
  <g id="patch_1">
   <path d="M 0 415.651332 
L 504.403487 415.651332 
L 504.403487 0 
L 0 0 
z
" style="fill: #ffffff"/>
  </g>
  <g id="axes_1">
   <g id="patch_2">
    <path d="M 57.53 363.611332 
L 493.603487 363.611332 
L 493.603487 26.88 
L 57.53 26.88 
z
" style="fill: #ffffff"/>
   </g>
   <g id="patch_3">
    <path d="M 87.604034 363.611332 
L 94.048469 363.611332 
L 94.048469 357.000933 
L 87.604034 357.000933 
z
" clip-path="url(#p95cdc2755a)" style="fill: #dc143c"/>
   </g>
   <g id="patch_4">
    <path d="M 130.566939 363.611332 
L 137.011374 363.611332 
L 137.011374 357.006942 
L 130.566939 357.006942 
z
" clip-path="url(#p95cdc2755a)" style="fill: #dc143c"/>
   </g>
   <g id="patch_5">
    <path d="M 173.529844 363.611332 
L 179.97428 363.611332 
L 179.97428 356.640366 
L 173.529844 356.640366 
z
" clip-path="url(#p95cdc2755a)" style="fill: #dc143c"/>
   </g>
   <g id="patch_6">
    <path d="M 216.492749 363.611332 
L 222.937185 363.611332 
L 222.937185 354.909643 
L 216.492749 354.909643 
z
" clip-path="url(#p95cdc2755a)" style="fill: #dc143c"/>
   </g>
   <g id="patch_7">
    <path d="M 259.455654 363.611332 
L 265.90009 363.611332 
L 265.90009 347.367778 
L 259.455654 347.367778 
z
" clip-path="url(#p95cdc2755a)" style="fill: #dc143c"/>
   </g>
   <g id="patch_8">
    <path d="M 302.418559 363.611332 
L 308.862995 363.611332 
L 308.862995 331.623009 
L 302.418559 331.623009 
z
" clip-path="url(#p95cdc2755a)" style="fill: #dc143c"/>
   </g>
   <g id="patch_9">
    <path d="M 345.381464 363.611332 
L 351.8259 363.611332 
L 351.8259 302.34495 
L 345.381464 302.34495 
z
" clip-path="url(#p95cdc2755a)" style="fill: #dc143c"/>
   </g>
   <g id="patch_10">
    <path d="M 388.344369 363.611332 
L 394.788805 363.611332 
L 394.788805 242.448724 
L 388.344369 242.448724 
z
" clip-path="url(#p95cdc2755a)" style="fill: #dc143c"/>
   </g>
   <g id="patch_11">
    <path d="M 431.307275 363.611332 
L 437.75171 363.611332 
L 437.75171 123.088952 
L 431.307275 123.088952 
z
" clip-path="url(#p95cdc2755a)" style="fill: #dc143c"/>
   </g>
   <g id="patch_12">
    <path d="M 96.196615 363.611332 
L 102.64105 363.611332 
L 102.64105 357.006942 
L 96.196615 357.006942 
z
" clip-path="url(#p95cdc2755a)" style="fill: #8b008b"/>
   </g>
   <g id="patch_13">
    <path d="M 139.15952 363.611332 
L 145.603955 363.611332 
L 145.603955 357.049008 
L 139.15952 357.049008 
z
" clip-path="url(#p95cdc2755a)" style="fill: #8b008b"/>
   </g>
   <g id="patch_14">
    <path d="M 182.122425 363.611332 
L 188.566861 363.611332 
L 188.566861 356.856706 
L 182.122425 356.856706 
z
" clip-path="url(#p95cdc2755a)" style="fill: #8b008b"/>
   </g>
   <g id="patch_15">
    <path d="M 225.08533 363.611332 
L 231.529766 363.611332 
L 231.529766 357.115112 
L 225.08533 357.115112 
z
" clip-path="url(#p95cdc2755a)" style="fill: #8b008b"/>
   </g>
   <g id="patch_16">
    <path d="M 268.048235 363.611332 
L 274.492671 363.611332 
L 274.492671 356.04543 
L 268.048235 356.04543 
z
" clip-path="url(#p95cdc2755a)" style="fill: #8b008b"/>
   </g>
   <g id="patch_17">
    <path d="M 311.01114 363.611332 
L 317.455576 363.611332 
L 317.455576 348.828076 
L 311.01114 348.828076 
z
" clip-path="url(#p95cdc2755a)" style="fill: #8b008b"/>
   </g>
   <g id="patch_18">
    <path d="M 353.974045 363.611332 
L 360.418481 363.611332 
L 360.418481 333.558053 
L 353.974045 333.558053 
z
" clip-path="url(#p95cdc2755a)" style="fill: #8b008b"/>
   </g>
   <g id="patch_19">
    <path d="M 396.93695 363.611332 
L 403.381386 363.611332 
L 403.381386 305.740292 
L 396.93695 305.740292 
z
" clip-path="url(#p95cdc2755a)" style="fill: #8b008b"/>
   </g>
   <g id="patch_20">
    <path d="M 439.899856 363.611332 
L 446.344291 363.611332 
L 446.344291 249.20335 
L 439.899856 249.20335 
z
" clip-path="url(#p95cdc2755a)" style="fill: #8b008b"/>
   </g>
   <g id="patch_21">
    <path d="M 104.789196 363.611332 
L 111.233631 363.611332 
L 111.233631 356.838677 
L 104.789196 356.838677 
z
" clip-path="url(#p95cdc2755a)" style="fill: #6495ed"/>
   </g>
   <g id="patch_22">
    <path d="M 147.752101 363.611332 
L 154.196537 363.611332 
L 154.196537 356.892763 
L 147.752101 356.892763 
z
" clip-path="url(#p95cdc2755a)" style="fill: #6495ed"/>
   </g>
   <g id="patch_23">
    <path d="M 190.715006 363.611332 
L 197.159442 363.611332 
L 197.159442 356.442054 
L 190.715006 356.442054 
z
" clip-path="url(#p95cdc2755a)" style="fill: #6495ed"/>
   </g>
   <g id="patch_24">
    <path d="M 233.677911 363.611332 
L 240.122347 363.611332 
L 240.122347 357.03098 
L 233.677911 357.03098 
z
" clip-path="url(#p95cdc2755a)" style="fill: #6495ed"/>
   </g>
   <g id="patch_25">
    <path d="M 276.640816 363.611332 
L 283.085252 363.611332 
L 283.085252 356.970885 
L 276.640816 356.970885 
z
" clip-path="url(#p95cdc2755a)" style="fill: #6495ed"/>
   </g>
   <g id="patch_26">
    <path d="M 319.603721 363.611332 
L 326.048157 363.611332 
L 326.048157 354.248603 
L 319.603721 354.248603 
z
" clip-path="url(#p95cdc2755a)" style="fill: #6495ed"/>
   </g>
   <g id="patch_27">
    <path d="M 362.566626 363.611332 
L 369.011062 363.611332 
L 369.011062 346.075746 
L 362.566626 346.075746 
z
" clip-path="url(#p95cdc2755a)" style="fill: #6495ed"/>
   </g>
   <g id="patch_28">
    <path d="M 405.529531 363.611332 
L 411.973967 363.611332 
L 411.973967 328.197621 
L 405.529531 328.197621 
z
" clip-path="url(#p95cdc2755a)" style="fill: #6495ed"/>
   </g>
   <g id="patch_29">
    <path d="M 448.492437 363.611332 
L 454.936872 363.611332 
L 454.936872 294.827123 
L 448.492437 294.827123 
z
" clip-path="url(#p95cdc2755a)" style="fill: #6495ed"/>
   </g>
   <g id="patch_30">
    <path d="M 113.381777 363.611332 
L 119.826212 363.611332 
L 119.826212 356.850696 
L 113.381777 356.850696 
z
" clip-path="url(#p95cdc2755a)" style="fill: #3cb371"/>
   </g>
   <g id="patch_31">
    <path d="M 156.344682 363.611332 
L 162.789118 363.611332 
L 162.789118 356.604309 
L 156.344682 356.604309 
z
" clip-path="url(#p95cdc2755a)" style="fill: #3cb371"/>
   </g>
   <g id="patch_32">
    <path d="M 199.307587 363.611332 
L 205.752023 363.611332 
L 205.752023 356.616328 
L 199.307587 356.616328 
z
" clip-path="url(#p95cdc2755a)" style="fill: #3cb371"/>
   </g>
   <g id="patch_33">
    <path d="M 242.270492 363.611332 
L 248.714928 363.611332 
L 248.714928 357.061027 
L 242.270492 357.061027 
z
" clip-path="url(#p95cdc2755a)" style="fill: #3cb371"/>
   </g>
   <g id="patch_34">
    <path d="M 285.233397 363.611332 
L 291.677833 363.611332 
L 291.677833 356.970885 
L 285.233397 356.970885 
z
" clip-path="url(#p95cdc2755a)" style="fill: #3cb371"/>
   </g>
   <g id="patch_35">
    <path d="M 328.196302 363.611332 
L 334.640738 363.611332 
L 334.640738 357.091075 
L 328.196302 357.091075 
z
" clip-path="url(#p95cdc2755a)" style="fill: #3cb371"/>
   </g>
   <g id="patch_36">
    <path d="M 371.159207 363.611332 
L 377.603643 363.611332 
L 377.603643 355.60073 
L 371.159207 355.60073 
z
" clip-path="url(#p95cdc2755a)" style="fill: #3cb371"/>
   </g>
   <g id="patch_37">
    <path d="M 414.122112 363.611332 
L 420.566548 363.611332 
L 420.566548 347.427873 
L 414.122112 347.427873 
z
" clip-path="url(#p95cdc2755a)" style="fill: #3cb371"/>
   </g>
   <g id="patch_38">
    <path d="M 457.085018 363.611332 
L 463.529453 363.611332 
L 463.529453 331.659066 
L 457.085018 331.659066 
z
" clip-path="url(#p95cdc2755a)" style="fill: #3cb371"/>
   </g>
   <g id="matplotlib.axis_1">
    <g id="xtick_1">
     <g id="line2d_1">
      <defs>
       <path id="m8c2225a47c" d="M 0 0 
L 0 3.5 
" style="stroke: #000000; stroke-width: 0.8"/>
      </defs>
      <g>
       <use xlink:href="#m8c2225a47c" x="103.715123" y="363.611332" style="stroke: #000000; stroke-width: 0.8"/>
      </g>
     </g>
     <g id="text_1">
      <!-- 1 -->
      <g transform="translate(99.261373 381.249144)scale(0.14 -0.14)">
       <defs>
        <path id="DejaVuSans-31" d="M 794 531 
L 1825 531 
L 1825 4091 
L 703 3866 
L 703 4441 
L 1819 4666 
L 2450 4666 
L 2450 531 
L 3481 531 
L 3481 0 
L 794 0 
L 794 531 
z
" transform="scale(0.015625)"/>
       </defs>
       <use xlink:href="#DejaVuSans-31"/>
      </g>
     </g>
    </g>
    <g id="xtick_2">
     <g id="line2d_2">
      <g>
       <use xlink:href="#m8c2225a47c" x="146.678028" y="363.611332" style="stroke: #000000; stroke-width: 0.8"/>
      </g>
     </g>
     <g id="text_2">
      <!-- 2 -->
      <g transform="translate(142.224278 381.249144)scale(0.14 -0.14)">
       <defs>
        <path id="DejaVuSans-32" d="M 1228 531 
L 3431 531 
L 3431 0 
L 469 0 
L 469 531 
Q 828 903 1448 1529 
Q 2069 2156 2228 2338 
Q 2531 2678 2651 2914 
Q 2772 3150 2772 3378 
Q 2772 3750 2511 3984 
Q 2250 4219 1831 4219 
Q 1534 4219 1204 4116 
Q 875 4013 500 3803 
L 500 4441 
Q 881 4594 1212 4672 
Q 1544 4750 1819 4750 
Q 2544 4750 2975 4387 
Q 3406 4025 3406 3419 
Q 3406 3131 3298 2873 
Q 3191 2616 2906 2266 
Q 2828 2175 2409 1742 
Q 1991 1309 1228 531 
z
" transform="scale(0.015625)"/>
       </defs>
       <use xlink:href="#DejaVuSans-32"/>
      </g>
     </g>
    </g>
    <g id="xtick_3">
     <g id="line2d_3">
      <g>
       <use xlink:href="#m8c2225a47c" x="189.640933" y="363.611332" style="stroke: #000000; stroke-width: 0.8"/>
      </g>
     </g>
     <g id="text_3">
      <!-- 4 -->
      <g transform="translate(185.187183 381.249144)scale(0.14 -0.14)">
       <defs>
        <path id="DejaVuSans-34" d="M 2419 4116 
L 825 1625 
L 2419 1625 
L 2419 4116 
z
M 2253 4666 
L 3047 4666 
L 3047 1625 
L 3713 1625 
L 3713 1100 
L 3047 1100 
L 3047 0 
L 2419 0 
L 2419 1100 
L 313 1100 
L 313 1709 
L 2253 4666 
z
" transform="scale(0.015625)"/>
       </defs>
       <use xlink:href="#DejaVuSans-34"/>
      </g>
     </g>
    </g>
    <g id="xtick_4">
     <g id="line2d_4">
      <g>
       <use xlink:href="#m8c2225a47c" x="232.603838" y="363.611332" style="stroke: #000000; stroke-width: 0.8"/>
      </g>
     </g>
     <g id="text_4">
      <!-- 8 -->
      <g transform="translate(228.150088 381.249144)scale(0.14 -0.14)">
       <defs>
        <path id="DejaVuSans-38" d="M 2034 2216 
Q 1584 2216 1326 1975 
Q 1069 1734 1069 1313 
Q 1069 891 1326 650 
Q 1584 409 2034 409 
Q 2484 409 2743 651 
Q 3003 894 3003 1313 
Q 3003 1734 2745 1975 
Q 2488 2216 2034 2216 
z
M 1403 2484 
Q 997 2584 770 2862 
Q 544 3141 544 3541 
Q 544 4100 942 4425 
Q 1341 4750 2034 4750 
Q 2731 4750 3128 4425 
Q 3525 4100 3525 3541 
Q 3525 3141 3298 2862 
Q 3072 2584 2669 2484 
Q 3125 2378 3379 2068 
Q 3634 1759 3634 1313 
Q 3634 634 3220 271 
Q 2806 -91 2034 -91 
Q 1263 -91 848 271 
Q 434 634 434 1313 
Q 434 1759 690 2068 
Q 947 2378 1403 2484 
z
M 1172 3481 
Q 1172 3119 1398 2916 
Q 1625 2713 2034 2713 
Q 2441 2713 2670 2916 
Q 2900 3119 2900 3481 
Q 2900 3844 2670 4047 
Q 2441 4250 2034 4250 
Q 1625 4250 1398 4047 
Q 1172 3844 1172 3481 
z
" transform="scale(0.015625)"/>
       </defs>
       <use xlink:href="#DejaVuSans-38"/>
      </g>
     </g>
    </g>
    <g id="xtick_5">
     <g id="line2d_5">
      <g>
       <use xlink:href="#m8c2225a47c" x="275.566743" y="363.611332" style="stroke: #000000; stroke-width: 0.8"/>
      </g>
     </g>
     <g id="text_5">
      <!-- 16 -->
      <g transform="translate(266.659243 381.249144)scale(0.14 -0.14)">
       <defs>
        <path id="DejaVuSans-36" d="M 2113 2584 
Q 1688 2584 1439 2293 
Q 1191 2003 1191 1497 
Q 1191 994 1439 701 
Q 1688 409 2113 409 
Q 2538 409 2786 701 
Q 3034 994 3034 1497 
Q 3034 2003 2786 2293 
Q 2538 2584 2113 2584 
z
M 3366 4563 
L 3366 3988 
Q 3128 4100 2886 4159 
Q 2644 4219 2406 4219 
Q 1781 4219 1451 3797 
Q 1122 3375 1075 2522 
Q 1259 2794 1537 2939 
Q 1816 3084 2150 3084 
Q 2853 3084 3261 2657 
Q 3669 2231 3669 1497 
Q 3669 778 3244 343 
Q 2819 -91 2113 -91 
Q 1303 -91 875 529 
Q 447 1150 447 2328 
Q 447 3434 972 4092 
Q 1497 4750 2381 4750 
Q 2619 4750 2861 4703 
Q 3103 4656 3366 4563 
z
" transform="scale(0.015625)"/>
       </defs>
       <use xlink:href="#DejaVuSans-31"/>
       <use xlink:href="#DejaVuSans-36" x="63.623047"/>
      </g>
     </g>
    </g>
    <g id="xtick_6">
     <g id="line2d_6">
      <g>
       <use xlink:href="#m8c2225a47c" x="318.529649" y="363.611332" style="stroke: #000000; stroke-width: 0.8"/>
      </g>
     </g>
     <g id="text_6">
      <!-- 32 -->
      <g transform="translate(309.622149 381.249144)scale(0.14 -0.14)">
       <defs>
        <path id="DejaVuSans-33" d="M 2597 2516 
Q 3050 2419 3304 2112 
Q 3559 1806 3559 1356 
Q 3559 666 3084 287 
Q 2609 -91 1734 -91 
Q 1441 -91 1130 -33 
Q 819 25 488 141 
L 488 750 
Q 750 597 1062 519 
Q 1375 441 1716 441 
Q 2309 441 2620 675 
Q 2931 909 2931 1356 
Q 2931 1769 2642 2001 
Q 2353 2234 1838 2234 
L 1294 2234 
L 1294 2753 
L 1863 2753 
Q 2328 2753 2575 2939 
Q 2822 3125 2822 3475 
Q 2822 3834 2567 4026 
Q 2313 4219 1838 4219 
Q 1578 4219 1281 4162 
Q 984 4106 628 3988 
L 628 4550 
Q 988 4650 1302 4700 
Q 1616 4750 1894 4750 
Q 2613 4750 3031 4423 
Q 3450 4097 3450 3541 
Q 3450 3153 3228 2886 
Q 3006 2619 2597 2516 
z
" transform="scale(0.015625)"/>
       </defs>
       <use xlink:href="#DejaVuSans-33"/>
       <use xlink:href="#DejaVuSans-32" x="63.623047"/>
      </g>
     </g>
    </g>
    <g id="xtick_7">
     <g id="line2d_7">
      <g>
       <use xlink:href="#m8c2225a47c" x="361.492554" y="363.611332" style="stroke: #000000; stroke-width: 0.8"/>
      </g>
     </g>
     <g id="text_7">
      <!-- 64 -->
      <g transform="translate(352.585054 381.249144)scale(0.14 -0.14)">
       <use xlink:href="#DejaVuSans-36"/>
       <use xlink:href="#DejaVuSans-34" x="63.623047"/>
      </g>
     </g>
    </g>
    <g id="xtick_8">
     <g id="line2d_8">
      <g>
       <use xlink:href="#m8c2225a47c" x="404.455459" y="363.611332" style="stroke: #000000; stroke-width: 0.8"/>
      </g>
     </g>
     <g id="text_8">
      <!-- 128 -->
      <g transform="translate(391.094209 381.249144)scale(0.14 -0.14)">
       <use xlink:href="#DejaVuSans-31"/>
       <use xlink:href="#DejaVuSans-32" x="63.623047"/>
       <use xlink:href="#DejaVuSans-38" x="127.246094"/>
      </g>
     </g>
    </g>
    <g id="xtick_9">
     <g id="line2d_9">
      <g>
       <use xlink:href="#m8c2225a47c" x="447.418364" y="363.611332" style="stroke: #000000; stroke-width: 0.8"/>
      </g>
     </g>
     <g id="text_9">
      <!-- 256 -->
      <g transform="translate(434.057114 381.249144)scale(0.14 -0.14)">
       <defs>
        <path id="DejaVuSans-35" d="M 691 4666 
L 3169 4666 
L 3169 4134 
L 1269 4134 
L 1269 2991 
Q 1406 3038 1543 3061 
Q 1681 3084 1819 3084 
Q 2600 3084 3056 2656 
Q 3513 2228 3513 1497 
Q 3513 744 3044 326 
Q 2575 -91 1722 -91 
Q 1428 -91 1123 -41 
Q 819 9 494 109 
L 494 744 
Q 775 591 1075 516 
Q 1375 441 1709 441 
Q 2250 441 2565 725 
Q 2881 1009 2881 1497 
Q 2881 1984 2565 2268 
Q 2250 2553 1709 2553 
Q 1456 2553 1204 2497 
Q 953 2441 691 2322 
L 691 4666 
z
" transform="scale(0.015625)"/>
       </defs>
       <use xlink:href="#DejaVuSans-32"/>
       <use xlink:href="#DejaVuSans-35" x="63.623047"/>
       <use xlink:href="#DejaVuSans-36" x="127.246094"/>
      </g>
     </g>
    </g>
    <g id="text_10">
     <!-- batch size -->
     <g transform="translate(234.926743 400.318207)scale(0.16 -0.16)">
      <defs>
       <path id="DejaVuSans-62" d="M 3116 1747 
Q 3116 2381 2855 2742 
Q 2594 3103 2138 3103 
Q 1681 3103 1420 2742 
Q 1159 2381 1159 1747 
Q 1159 1113 1420 752 
Q 1681 391 2138 391 
Q 2594 391 2855 752 
Q 3116 1113 3116 1747 
z
M 1159 2969 
Q 1341 3281 1617 3432 
Q 1894 3584 2278 3584 
Q 2916 3584 3314 3078 
Q 3713 2572 3713 1747 
Q 3713 922 3314 415 
Q 2916 -91 2278 -91 
Q 1894 -91 1617 61 
Q 1341 213 1159 525 
L 1159 0 
L 581 0 
L 581 4863 
L 1159 4863 
L 1159 2969 
z
" transform="scale(0.015625)"/>
       <path id="DejaVuSans-61" d="M 2194 1759 
Q 1497 1759 1228 1600 
Q 959 1441 959 1056 
Q 959 750 1161 570 
Q 1363 391 1709 391 
Q 2188 391 2477 730 
Q 2766 1069 2766 1631 
L 2766 1759 
L 2194 1759 
z
M 3341 1997 
L 3341 0 
L 2766 0 
L 2766 531 
Q 2569 213 2275 61 
Q 1981 -91 1556 -91 
Q 1019 -91 701 211 
Q 384 513 384 1019 
Q 384 1609 779 1909 
Q 1175 2209 1959 2209 
L 2766 2209 
L 2766 2266 
Q 2766 2663 2505 2880 
Q 2244 3097 1772 3097 
Q 1472 3097 1187 3025 
Q 903 2953 641 2809 
L 641 3341 
Q 956 3463 1253 3523 
Q 1550 3584 1831 3584 
Q 2591 3584 2966 3190 
Q 3341 2797 3341 1997 
z
" transform="scale(0.015625)"/>
       <path id="DejaVuSans-74" d="M 1172 4494 
L 1172 3500 
L 2356 3500 
L 2356 3053 
L 1172 3053 
L 1172 1153 
Q 1172 725 1289 603 
Q 1406 481 1766 481 
L 2356 481 
L 2356 0 
L 1766 0 
Q 1100 0 847 248 
Q 594 497 594 1153 
L 594 3053 
L 172 3053 
L 172 3500 
L 594 3500 
L 594 4494 
L 1172 4494 
z
" transform="scale(0.015625)"/>
       <path id="DejaVuSans-63" d="M 3122 3366 
L 3122 2828 
Q 2878 2963 2633 3030 
Q 2388 3097 2138 3097 
Q 1578 3097 1268 2742 
Q 959 2388 959 1747 
Q 959 1106 1268 751 
Q 1578 397 2138 397 
Q 2388 397 2633 464 
Q 2878 531 3122 666 
L 3122 134 
Q 2881 22 2623 -34 
Q 2366 -91 2075 -91 
Q 1284 -91 818 406 
Q 353 903 353 1747 
Q 353 2603 823 3093 
Q 1294 3584 2113 3584 
Q 2378 3584 2631 3529 
Q 2884 3475 3122 3366 
z
" transform="scale(0.015625)"/>
       <path id="DejaVuSans-68" d="M 3513 2113 
L 3513 0 
L 2938 0 
L 2938 2094 
Q 2938 2591 2744 2837 
Q 2550 3084 2163 3084 
Q 1697 3084 1428 2787 
Q 1159 2491 1159 1978 
L 1159 0 
L 581 0 
L 581 4863 
L 1159 4863 
L 1159 2956 
Q 1366 3272 1645 3428 
Q 1925 3584 2291 3584 
Q 2894 3584 3203 3211 
Q 3513 2838 3513 2113 
z
" transform="scale(0.015625)"/>
       <path id="DejaVuSans-20" transform="scale(0.015625)"/>
       <path id="DejaVuSans-73" d="M 2834 3397 
L 2834 2853 
Q 2591 2978 2328 3040 
Q 2066 3103 1784 3103 
Q 1356 3103 1142 2972 
Q 928 2841 928 2578 
Q 928 2378 1081 2264 
Q 1234 2150 1697 2047 
L 1894 2003 
Q 2506 1872 2764 1633 
Q 3022 1394 3022 966 
Q 3022 478 2636 193 
Q 2250 -91 1575 -91 
Q 1294 -91 989 -36 
Q 684 19 347 128 
L 347 722 
Q 666 556 975 473 
Q 1284 391 1588 391 
Q 1994 391 2212 530 
Q 2431 669 2431 922 
Q 2431 1156 2273 1281 
Q 2116 1406 1581 1522 
L 1381 1569 
Q 847 1681 609 1914 
Q 372 2147 372 2553 
Q 372 3047 722 3315 
Q 1072 3584 1716 3584 
Q 2034 3584 2315 3537 
Q 2597 3491 2834 3397 
z
" transform="scale(0.015625)"/>
       <path id="DejaVuSans-69" d="M 603 3500 
L 1178 3500 
L 1178 0 
L 603 0 
L 603 3500 
z
M 603 4863 
L 1178 4863 
L 1178 4134 
L 603 4134 
L 603 4863 
z
" transform="scale(0.015625)"/>
       <path id="DejaVuSans-7a" d="M 353 3500 
L 3084 3500 
L 3084 2975 
L 922 459 
L 3084 459 
L 3084 0 
L 275 0 
L 275 525 
L 2438 3041 
L 353 3041 
L 353 3500 
z
" transform="scale(0.015625)"/>
       <path id="DejaVuSans-65" d="M 3597 1894 
L 3597 1613 
L 953 1613 
Q 991 1019 1311 708 
Q 1631 397 2203 397 
Q 2534 397 2845 478 
Q 3156 559 3463 722 
L 3463 178 
Q 3153 47 2828 -22 
Q 2503 -91 2169 -91 
Q 1331 -91 842 396 
Q 353 884 353 1716 
Q 353 2575 817 3079 
Q 1281 3584 2069 3584 
Q 2775 3584 3186 3129 
Q 3597 2675 3597 1894 
z
M 3022 2063 
Q 3016 2534 2758 2815 
Q 2500 3097 2075 3097 
Q 1594 3097 1305 2825 
Q 1016 2553 972 2059 
L 3022 2063 
z
" transform="scale(0.015625)"/>
      </defs>
      <use xlink:href="#DejaVuSans-62"/>
      <use xlink:href="#DejaVuSans-61" x="63.476562"/>
      <use xlink:href="#DejaVuSans-74" x="124.755859"/>
      <use xlink:href="#DejaVuSans-63" x="163.964844"/>
      <use xlink:href="#DejaVuSans-68" x="218.945312"/>
      <use xlink:href="#DejaVuSans-20" x="282.324219"/>
      <use xlink:href="#DejaVuSans-73" x="314.111328"/>
      <use xlink:href="#DejaVuSans-69" x="366.210938"/>
      <use xlink:href="#DejaVuSans-7a" x="393.994141"/>
      <use xlink:href="#DejaVuSans-65" x="446.484375"/>
     </g>
    </g>
   </g>
   <g id="matplotlib.axis_2">
    <g id="ytick_1">
     <g id="line2d_10">
      <defs>
       <path id="mb15afdb6a4" d="M 0 0 
L -3.5 0 
" style="stroke: #000000; stroke-width: 0.8"/>
      </defs>
      <g>
       <use xlink:href="#mb15afdb6a4" x="57.53" y="363.611332" style="stroke: #000000; stroke-width: 0.8"/>
      </g>
     </g>
    </g>
    <g id="ytick_2">
     <g id="line2d_11">
      <g>
       <use xlink:href="#mb15afdb6a4" x="57.53" y="303.516794" style="stroke: #000000; stroke-width: 0.8"/>
      </g>
     </g>
    </g>
    <g id="ytick_3">
     <g id="line2d_12">
      <g>
       <use xlink:href="#mb15afdb6a4" x="57.53" y="243.422255" style="stroke: #000000; stroke-width: 0.8"/>
      </g>
     </g>
     <g id="text_11">
      <!-- 200 -->
      <g transform="translate(31.4425 247.221474)scale(0.1 -0.1)">
       <defs>
        <path id="DejaVuSans-30" d="M 2034 4250 
Q 1547 4250 1301 3770 
Q 1056 3291 1056 2328 
Q 1056 1369 1301 889 
Q 1547 409 2034 409 
Q 2525 409 2770 889 
Q 3016 1369 3016 2328 
Q 3016 3291 2770 3770 
Q 2525 4250 2034 4250 
z
M 2034 4750 
Q 2819 4750 3233 4129 
Q 3647 3509 3647 2328 
Q 3647 1150 3233 529 
Q 2819 -91 2034 -91 
Q 1250 -91 836 529 
Q 422 1150 422 2328 
Q 422 3509 836 4129 
Q 1250 4750 2034 4750 
z
" transform="scale(0.015625)"/>
       </defs>
       <use xlink:href="#DejaVuSans-32"/>
       <use xlink:href="#DejaVuSans-30" x="63.623047"/>
       <use xlink:href="#DejaVuSans-30" x="127.246094"/>
      </g>
     </g>
    </g>
    <g id="ytick_4">
     <g id="line2d_13">
      <g>
       <use xlink:href="#mb15afdb6a4" x="57.53" y="183.327717" style="stroke: #000000; stroke-width: 0.8"/>
      </g>
     </g>
     <g id="text_12">
      <!-- 300 -->
      <g transform="translate(31.4425 187.126936)scale(0.1 -0.1)">
       <use xlink:href="#DejaVuSans-33"/>
       <use xlink:href="#DejaVuSans-30" x="63.623047"/>
       <use xlink:href="#DejaVuSans-30" x="127.246094"/>
      </g>
     </g>
    </g>
    <g id="ytick_5">
     <g id="line2d_14">
      <g>
       <use xlink:href="#mb15afdb6a4" x="57.53" y="123.233179" style="stroke: #000000; stroke-width: 0.8"/>
      </g>
     </g>
     <g id="text_13">
      <!-- 400 -->
      <g transform="translate(31.4425 127.032398)scale(0.1 -0.1)">
       <use xlink:href="#DejaVuSans-34"/>
       <use xlink:href="#DejaVuSans-30" x="63.623047"/>
       <use xlink:href="#DejaVuSans-30" x="127.246094"/>
      </g>
     </g>
    </g>
    <g id="ytick_6">
     <g id="line2d_15">
      <g>
       <use xlink:href="#mb15afdb6a4" x="57.53" y="63.138641" style="stroke: #000000; stroke-width: 0.8"/>
      </g>
     </g>
     <g id="text_14">
      <!-- 500 -->
      <g transform="translate(31.4425 66.937859)scale(0.1 -0.1)">
       <use xlink:href="#DejaVuSans-35"/>
       <use xlink:href="#DejaVuSans-30" x="63.623047"/>
       <use xlink:href="#DejaVuSans-30" x="127.246094"/>
      </g>
     </g>
    </g>
    <g id="text_15">
     <!-- latency(ms) -->
     <g transform="translate(24.115 242.835666)rotate(-90)scale(0.16 -0.16)">
      <defs>
       <path id="DejaVuSans-6c" d="M 603 4863 
L 1178 4863 
L 1178 0 
L 603 0 
L 603 4863 
z
" transform="scale(0.015625)"/>
       <path id="DejaVuSans-6e" d="M 3513 2113 
L 3513 0 
L 2938 0 
L 2938 2094 
Q 2938 2591 2744 2837 
Q 2550 3084 2163 3084 
Q 1697 3084 1428 2787 
Q 1159 2491 1159 1978 
L 1159 0 
L 581 0 
L 581 3500 
L 1159 3500 
L 1159 2956 
Q 1366 3272 1645 3428 
Q 1925 3584 2291 3584 
Q 2894 3584 3203 3211 
Q 3513 2838 3513 2113 
z
" transform="scale(0.015625)"/>
       <path id="DejaVuSans-79" d="M 2059 -325 
Q 1816 -950 1584 -1140 
Q 1353 -1331 966 -1331 
L 506 -1331 
L 506 -850 
L 844 -850 
Q 1081 -850 1212 -737 
Q 1344 -625 1503 -206 
L 1606 56 
L 191 3500 
L 800 3500 
L 1894 763 
L 2988 3500 
L 3597 3500 
L 2059 -325 
z
" transform="scale(0.015625)"/>
       <path id="DejaVuSans-28" d="M 1984 4856 
Q 1566 4138 1362 3434 
Q 1159 2731 1159 2009 
Q 1159 1288 1364 580 
Q 1569 -128 1984 -844 
L 1484 -844 
Q 1016 -109 783 600 
Q 550 1309 550 2009 
Q 550 2706 781 3412 
Q 1013 4119 1484 4856 
L 1984 4856 
z
" transform="scale(0.015625)"/>
       <path id="DejaVuSans-6d" d="M 3328 2828 
Q 3544 3216 3844 3400 
Q 4144 3584 4550 3584 
Q 5097 3584 5394 3201 
Q 5691 2819 5691 2113 
L 5691 0 
L 5113 0 
L 5113 2094 
Q 5113 2597 4934 2840 
Q 4756 3084 4391 3084 
Q 3944 3084 3684 2787 
Q 3425 2491 3425 1978 
L 3425 0 
L 2847 0 
L 2847 2094 
Q 2847 2600 2669 2842 
Q 2491 3084 2119 3084 
Q 1678 3084 1418 2786 
Q 1159 2488 1159 1978 
L 1159 0 
L 581 0 
L 581 3500 
L 1159 3500 
L 1159 2956 
Q 1356 3278 1631 3431 
Q 1906 3584 2284 3584 
Q 2666 3584 2933 3390 
Q 3200 3197 3328 2828 
z
" transform="scale(0.015625)"/>
       <path id="DejaVuSans-29" d="M 513 4856 
L 1013 4856 
Q 1481 4119 1714 3412 
Q 1947 2706 1947 2009 
Q 1947 1309 1714 600 
Q 1481 -109 1013 -844 
L 513 -844 
Q 928 -128 1133 580 
Q 1338 1288 1338 2009 
Q 1338 2731 1133 3434 
Q 928 4138 513 4856 
z
" transform="scale(0.015625)"/>
      </defs>
      <use xlink:href="#DejaVuSans-6c"/>
      <use xlink:href="#DejaVuSans-61" x="27.783203"/>
      <use xlink:href="#DejaVuSans-74" x="89.0625"/>
      <use xlink:href="#DejaVuSans-65" x="128.271484"/>
      <use xlink:href="#DejaVuSans-6e" x="189.794922"/>
      <use xlink:href="#DejaVuSans-63" x="253.173828"/>
      <use xlink:href="#DejaVuSans-79" x="308.154297"/>
      <use xlink:href="#DejaVuSans-28" x="367.333984"/>
      <use xlink:href="#DejaVuSans-6d" x="406.347656"/>
      <use xlink:href="#DejaVuSans-73" x="503.759766"/>
      <use xlink:href="#DejaVuSans-29" x="555.859375"/>
     </g>
    </g>
   </g>
   <g id="LineCollection_1">
    <path d="M 90.826251 357.049008 
L 90.826251 356.952857 
" clip-path="url(#p95cdc2755a)" style="fill: none; stroke: #000000; stroke-width: 1.5"/>
    <path d="M 133.789157 357.03098 
L 133.789157 356.982904 
" clip-path="url(#p95cdc2755a)" style="fill: none; stroke: #000000; stroke-width: 1.5"/>
    <path d="M 176.752062 356.664403 
L 176.752062 356.616328 
" clip-path="url(#p95cdc2755a)" style="fill: none; stroke: #000000; stroke-width: 1.5"/>
    <path d="M 219.714967 354.921662 
L 219.714967 354.897624 
" clip-path="url(#p95cdc2755a)" style="fill: none; stroke: #000000; stroke-width: 1.5"/>
    <path d="M 262.677872 347.385807 
L 262.677872 347.34975 
" clip-path="url(#p95cdc2755a)" style="fill: none; stroke: #000000; stroke-width: 1.5"/>
    <path d="M 305.640777 331.635028 
L 305.640777 331.61099 
" clip-path="url(#p95cdc2755a)" style="fill: none; stroke: #000000; stroke-width: 1.5"/>
    <path d="M 348.603682 302.356969 
L 348.603682 302.332931 
" clip-path="url(#p95cdc2755a)" style="fill: none; stroke: #000000; stroke-width: 1.5"/>
    <path d="M 391.566587 242.466752 
L 391.566587 242.430696 
" clip-path="url(#p95cdc2755a)" style="fill: none; stroke: #000000; stroke-width: 1.5"/>
    <path d="M 434.529492 123.125009 
L 434.529492 123.052895 
" clip-path="url(#p95cdc2755a)" style="fill: none; stroke: #000000; stroke-width: 1.5"/>
   </g>
   <g id="LineCollection_2">
    <path d="M 99.418832 357.055018 
L 99.418832 356.958867 
" clip-path="url(#p95cdc2755a)" style="fill: none; stroke: #000000; stroke-width: 1.5"/>
    <path d="M 142.381738 357.079056 
L 142.381738 357.018961 
" clip-path="url(#p95cdc2755a)" style="fill: none; stroke: #000000; stroke-width: 1.5"/>
    <path d="M 185.344643 356.880744 
L 185.344643 356.832668 
" clip-path="url(#p95cdc2755a)" style="fill: none; stroke: #000000; stroke-width: 1.5"/>
    <path d="M 228.307548 357.133141 
L 228.307548 357.097084 
" clip-path="url(#p95cdc2755a)" style="fill: none; stroke: #000000; stroke-width: 1.5"/>
    <path d="M 271.270453 356.057448 
L 271.270453 356.033411 
" clip-path="url(#p95cdc2755a)" style="fill: none; stroke: #000000; stroke-width: 1.5"/>
    <path d="M 314.233358 348.840094 
L 314.233358 348.816057 
" clip-path="url(#p95cdc2755a)" style="fill: none; stroke: #000000; stroke-width: 1.5"/>
    <path d="M 357.196263 333.564063 
L 357.196263 333.552044 
" clip-path="url(#p95cdc2755a)" style="fill: none; stroke: #000000; stroke-width: 1.5"/>
    <path d="M 400.159168 305.764329 
L 400.159168 305.716254 
" clip-path="url(#p95cdc2755a)" style="fill: none; stroke: #000000; stroke-width: 1.5"/>
    <path d="M 443.122073 249.257435 
L 443.122073 249.149265 
" clip-path="url(#p95cdc2755a)" style="fill: none; stroke: #000000; stroke-width: 1.5"/>
   </g>
   <g id="LineCollection_3">
    <path d="M 108.011414 356.9168 
L 108.011414 356.760555 
" clip-path="url(#p95cdc2755a)" style="fill: none; stroke: #000000; stroke-width: 1.5"/>
    <path d="M 150.974319 356.952857 
L 150.974319 356.832668 
" clip-path="url(#p95cdc2755a)" style="fill: none; stroke: #000000; stroke-width: 1.5"/>
    <path d="M 193.937224 356.460082 
L 193.937224 356.424025 
" clip-path="url(#p95cdc2755a)" style="fill: none; stroke: #000000; stroke-width: 1.5"/>
    <path d="M 236.900129 357.055018 
L 236.900129 357.006942 
" clip-path="url(#p95cdc2755a)" style="fill: none; stroke: #000000; stroke-width: 1.5"/>
    <path d="M 279.863034 356.994923 
L 279.863034 356.946848 
" clip-path="url(#p95cdc2755a)" style="fill: none; stroke: #000000; stroke-width: 1.5"/>
    <path d="M 322.825939 354.254612 
L 322.825939 354.242593 
" clip-path="url(#p95cdc2755a)" style="fill: none; stroke: #000000; stroke-width: 1.5"/>
    <path d="M 365.788844 346.081755 
L 365.788844 346.069736 
" clip-path="url(#p95cdc2755a)" style="fill: none; stroke: #000000; stroke-width: 1.5"/>
    <path d="M 408.751749 328.20363 
L 408.751749 328.191611 
" clip-path="url(#p95cdc2755a)" style="fill: none; stroke: #000000; stroke-width: 1.5"/>
    <path d="M 451.714654 294.839142 
L 451.714654 294.815105 
" clip-path="url(#p95cdc2755a)" style="fill: none; stroke: #000000; stroke-width: 1.5"/>
   </g>
   <g id="LineCollection_4">
    <path d="M 116.603995 356.898772 
L 116.603995 356.802621 
" clip-path="url(#p95cdc2755a)" style="fill: none; stroke: #000000; stroke-width: 1.5"/>
    <path d="M 159.5669 356.658394 
L 159.5669 356.550224 
" clip-path="url(#p95cdc2755a)" style="fill: none; stroke: #000000; stroke-width: 1.5"/>
    <path d="M 202.529805 356.70046 
L 202.529805 356.532195 
" clip-path="url(#p95cdc2755a)" style="fill: none; stroke: #000000; stroke-width: 1.5"/>
    <path d="M 245.49271 357.085065 
L 245.49271 357.036989 
" clip-path="url(#p95cdc2755a)" style="fill: none; stroke: #000000; stroke-width: 1.5"/>
    <path d="M 288.455615 356.994923 
L 288.455615 356.946848 
" clip-path="url(#p95cdc2755a)" style="fill: none; stroke: #000000; stroke-width: 1.5"/>
    <path d="M 331.41852 357.115112 
L 331.41852 357.067037 
" clip-path="url(#p95cdc2755a)" style="fill: none; stroke: #000000; stroke-width: 1.5"/>
    <path d="M 374.381425 355.612749 
L 374.381425 355.588711 
" clip-path="url(#p95cdc2755a)" style="fill: none; stroke: #000000; stroke-width: 1.5"/>
    <path d="M 417.34433 347.433882 
L 417.34433 347.421863 
" clip-path="url(#p95cdc2755a)" style="fill: none; stroke: #000000; stroke-width: 1.5"/>
    <path d="M 460.307235 331.72517 
L 460.307235 331.592962 
" clip-path="url(#p95cdc2755a)" style="fill: none; stroke: #000000; stroke-width: 1.5"/>
   </g>
   <g id="patch_39">
    <path d="M 57.53 363.611332 
L 57.53 26.88 
" style="fill: none; stroke: #000000; stroke-width: 0.8; stroke-linejoin: miter; stroke-linecap: square"/>
   </g>
   <g id="patch_40">
    <path d="M 493.603487 363.611332 
L 493.603487 26.88 
" style="fill: none; stroke: #000000; stroke-width: 0.8; stroke-linejoin: miter; stroke-linecap: square"/>
   </g>
   <g id="patch_41">
    <path d="M 57.53 363.611332 
L 493.603487 363.611332 
" style="fill: none; stroke: #000000; stroke-width: 0.8; stroke-linejoin: miter; stroke-linecap: square"/>
   </g>
   <g id="patch_42">
    <path d="M 57.53 26.88 
L 493.603487 26.88 
" style="fill: none; stroke: #000000; stroke-width: 0.8; stroke-linejoin: miter; stroke-linecap: square"/>
   </g>
   <g id="text_16">
    <!-- 11 -->
    <g transform="translate(88.726626 356.26656)scale(0.033 -0.033)">
     <use xlink:href="#DejaVuSans-31"/>
     <use xlink:href="#DejaVuSans-31" x="63.623047"/>
    </g>
   </g>
   <g id="text_17">
    <!-- 11 -->
    <g transform="translate(131.689532 356.296608)scale(0.033 -0.033)">
     <use xlink:href="#DejaVuSans-31"/>
     <use xlink:href="#DejaVuSans-31" x="63.623047"/>
    </g>
   </g>
   <g id="text_18">
    <!-- 12 -->
    <g transform="translate(174.652437 355.930031)scale(0.033 -0.033)">
     <use xlink:href="#DejaVuSans-31"/>
     <use xlink:href="#DejaVuSans-32" x="63.623047"/>
    </g>
   </g>
   <g id="text_19">
    <!-- 14 -->
    <g transform="translate(217.615342 354.211327)scale(0.033 -0.033)">
     <use xlink:href="#DejaVuSans-31"/>
     <use xlink:href="#DejaVuSans-34" x="63.623047"/>
    </g>
   </g>
   <g id="text_20">
    <!-- 27 -->
    <g transform="translate(260.578247 346.663453)scale(0.033 -0.033)">
     <defs>
      <path id="DejaVuSans-37" d="M 525 4666 
L 3525 4666 
L 3525 4397 
L 1831 0 
L 1172 0 
L 2766 4134 
L 525 4134 
L 525 4666 
z
" transform="scale(0.015625)"/>
     </defs>
     <use xlink:href="#DejaVuSans-32"/>
     <use xlink:href="#DejaVuSans-37" x="63.623047"/>
    </g>
   </g>
   <g id="text_21">
    <!-- 53 -->
    <g transform="translate(303.541152 330.924693)scale(0.033 -0.033)">
     <use xlink:href="#DejaVuSans-35"/>
     <use xlink:href="#DejaVuSans-33" x="63.623047"/>
    </g>
   </g>
   <g id="text_22">
    <!-- 102 -->
    <g transform="translate(345.454245 301.646634)scale(0.033 -0.033)">
     <use xlink:href="#DejaVuSans-31"/>
     <use xlink:href="#DejaVuSans-30" x="63.623047"/>
     <use xlink:href="#DejaVuSans-32" x="127.246094"/>
    </g>
   </g>
   <g id="text_23">
    <!-- 202 -->
    <g transform="translate(388.41715 241.744399)scale(0.033 -0.033)">
     <use xlink:href="#DejaVuSans-32"/>
     <use xlink:href="#DejaVuSans-30" x="63.623047"/>
     <use xlink:href="#DejaVuSans-32" x="127.246094"/>
    </g>
   </g>
   <g id="text_24">
    <!-- 400 -->
    <g transform="translate(431.380055 122.366598)scale(0.033 -0.033)">
     <use xlink:href="#DejaVuSans-34"/>
     <use xlink:href="#DejaVuSans-30" x="63.623047"/>
     <use xlink:href="#DejaVuSans-30" x="127.246094"/>
    </g>
   </g>
   <g id="text_25">
    <!-- 11 -->
    <g transform="translate(97.319207 356.27257)scale(0.033 -0.033)">
     <use xlink:href="#DejaVuSans-31"/>
     <use xlink:href="#DejaVuSans-31" x="63.623047"/>
    </g>
   </g>
   <g id="text_26">
    <!-- 11 -->
    <g transform="translate(140.282113 356.332664)scale(0.033 -0.033)">
     <use xlink:href="#DejaVuSans-31"/>
     <use xlink:href="#DejaVuSans-31" x="63.623047"/>
    </g>
   </g>
   <g id="text_27">
    <!-- 11 -->
    <g transform="translate(183.245018 356.146371)scale(0.033 -0.033)">
     <use xlink:href="#DejaVuSans-31"/>
     <use xlink:href="#DejaVuSans-31" x="63.623047"/>
    </g>
   </g>
   <g id="text_28">
    <!-- 11 -->
    <g transform="translate(226.207923 356.410787)scale(0.033 -0.033)">
     <use xlink:href="#DejaVuSans-31"/>
     <use xlink:href="#DejaVuSans-31" x="63.623047"/>
    </g>
   </g>
   <g id="text_29">
    <!-- 13 -->
    <g transform="translate(269.170828 355.347114)scale(0.033 -0.033)">
     <use xlink:href="#DejaVuSans-31"/>
     <use xlink:href="#DejaVuSans-33" x="63.623047"/>
    </g>
   </g>
   <g id="text_30">
    <!-- 25 -->
    <g transform="translate(312.133733 348.12976)scale(0.033 -0.033)">
     <use xlink:href="#DejaVuSans-32"/>
     <use xlink:href="#DejaVuSans-35" x="63.623047"/>
    </g>
   </g>
   <g id="text_31">
    <!-- 50 -->
    <g transform="translate(355.096638 332.865747)scale(0.033 -0.033)">
     <use xlink:href="#DejaVuSans-35"/>
     <use xlink:href="#DejaVuSans-30" x="63.623047"/>
    </g>
   </g>
   <g id="text_32">
    <!-- 96 -->
    <g transform="translate(398.059543 305.029957)scale(0.033 -0.033)">
     <defs>
      <path id="DejaVuSans-39" d="M 703 97 
L 703 672 
Q 941 559 1184 500 
Q 1428 441 1663 441 
Q 2288 441 2617 861 
Q 2947 1281 2994 2138 
Q 2813 1869 2534 1725 
Q 2256 1581 1919 1581 
Q 1219 1581 811 2004 
Q 403 2428 403 3163 
Q 403 3881 828 4315 
Q 1253 4750 1959 4750 
Q 2769 4750 3195 4129 
Q 3622 3509 3622 2328 
Q 3622 1225 3098 567 
Q 2575 -91 1691 -91 
Q 1453 -91 1209 -44 
Q 966 3 703 97 
z
M 1959 2075 
Q 2384 2075 2632 2365 
Q 2881 2656 2881 3163 
Q 2881 3666 2632 3958 
Q 2384 4250 1959 4250 
Q 1534 4250 1286 3958 
Q 1038 3666 1038 3163 
Q 1038 2656 1286 2365 
Q 1534 2075 1959 2075 
z
" transform="scale(0.015625)"/>
     </defs>
     <use xlink:href="#DejaVuSans-39"/>
     <use xlink:href="#DejaVuSans-36" x="63.623047"/>
    </g>
   </g>
   <g id="text_33">
    <!-- 190 -->
    <g transform="translate(439.972636 248.462968)scale(0.033 -0.033)">
     <use xlink:href="#DejaVuSans-31"/>
     <use xlink:href="#DejaVuSans-39" x="63.623047"/>
     <use xlink:href="#DejaVuSans-30" x="127.246094"/>
    </g>
   </g>
   <g id="text_34">
    <!-- 11 -->
    <g transform="translate(105.911789 356.074258)scale(0.033 -0.033)">
     <use xlink:href="#DejaVuSans-31"/>
     <use xlink:href="#DejaVuSans-31" x="63.623047"/>
    </g>
   </g>
   <g id="text_35">
    <!-- 11 -->
    <g transform="translate(148.874694 356.146371)scale(0.033 -0.033)">
     <use xlink:href="#DejaVuSans-31"/>
     <use xlink:href="#DejaVuSans-31" x="63.623047"/>
    </g>
   </g>
   <g id="text_36">
    <!-- 12 -->
    <g transform="translate(191.837599 355.737728)scale(0.033 -0.033)">
     <use xlink:href="#DejaVuSans-31"/>
     <use xlink:href="#DejaVuSans-32" x="63.623047"/>
    </g>
   </g>
   <g id="text_37">
    <!-- 11 -->
    <g transform="translate(234.800504 356.320645)scale(0.033 -0.033)">
     <use xlink:href="#DejaVuSans-31"/>
     <use xlink:href="#DejaVuSans-31" x="63.623047"/>
    </g>
   </g>
   <g id="text_38">
    <!-- 11 -->
    <g transform="translate(277.763409 356.260551)scale(0.033 -0.033)">
     <use xlink:href="#DejaVuSans-31"/>
     <use xlink:href="#DejaVuSans-31" x="63.623047"/>
    </g>
   </g>
   <g id="text_39">
    <!-- 16 -->
    <g transform="translate(320.726314 353.556297)scale(0.033 -0.033)">
     <use xlink:href="#DejaVuSans-31"/>
     <use xlink:href="#DejaVuSans-36" x="63.623047"/>
    </g>
   </g>
   <g id="text_40">
    <!-- 29 -->
    <g transform="translate(363.689219 345.383439)scale(0.033 -0.033)">
     <use xlink:href="#DejaVuSans-32"/>
     <use xlink:href="#DejaVuSans-39" x="63.623047"/>
    </g>
   </g>
   <g id="text_41">
    <!-- 59 -->
    <g transform="translate(406.652124 327.505314)scale(0.033 -0.033)">
     <use xlink:href="#DejaVuSans-35"/>
     <use xlink:href="#DejaVuSans-39" x="63.623047"/>
    </g>
   </g>
   <g id="text_42">
    <!-- 114 -->
    <g transform="translate(448.565217 294.128808)scale(0.033 -0.033)">
     <use xlink:href="#DejaVuSans-31"/>
     <use xlink:href="#DejaVuSans-31" x="63.623047"/>
     <use xlink:href="#DejaVuSans-34" x="127.246094"/>
    </g>
   </g>
   <g id="text_43">
    <!-- 11 -->
    <g transform="translate(114.50437 356.116324)scale(0.033 -0.033)">
     <use xlink:href="#DejaVuSans-31"/>
     <use xlink:href="#DejaVuSans-31" x="63.623047"/>
    </g>
   </g>
   <g id="text_44">
    <!-- 12 -->
    <g transform="translate(157.467275 355.863927)scale(0.033 -0.033)">
     <use xlink:href="#DejaVuSans-31"/>
     <use xlink:href="#DejaVuSans-32" x="63.623047"/>
    </g>
   </g>
   <g id="text_45">
    <!-- 12 -->
    <g transform="translate(200.43018 355.845898)scale(0.033 -0.033)">
     <use xlink:href="#DejaVuSans-31"/>
     <use xlink:href="#DejaVuSans-32" x="63.623047"/>
    </g>
   </g>
   <g id="text_46">
    <!-- 11 -->
    <g transform="translate(243.393085 356.350693)scale(0.033 -0.033)">
     <use xlink:href="#DejaVuSans-31"/>
     <use xlink:href="#DejaVuSans-31" x="63.623047"/>
    </g>
   </g>
   <g id="text_47">
    <!-- 11 -->
    <g transform="translate(286.35599 356.260551)scale(0.033 -0.033)">
     <use xlink:href="#DejaVuSans-31"/>
     <use xlink:href="#DejaVuSans-31" x="63.623047"/>
    </g>
   </g>
   <g id="text_48">
    <!-- 11 -->
    <g transform="translate(329.318895 356.38074)scale(0.033 -0.033)">
     <use xlink:href="#DejaVuSans-31"/>
     <use xlink:href="#DejaVuSans-31" x="63.623047"/>
    </g>
   </g>
   <g id="text_49">
    <!-- 13 -->
    <g transform="translate(372.2818 354.902414)scale(0.033 -0.033)">
     <use xlink:href="#DejaVuSans-31"/>
     <use xlink:href="#DejaVuSans-33" x="63.623047"/>
    </g>
   </g>
   <g id="text_50">
    <!-- 27 -->
    <g transform="translate(415.244705 346.735566)scale(0.033 -0.033)">
     <use xlink:href="#DejaVuSans-32"/>
     <use xlink:href="#DejaVuSans-37" x="63.623047"/>
    </g>
   </g>
   <g id="text_51">
    <!-- 53 -->
    <g transform="translate(458.20761 330.906665)scale(0.033 -0.033)">
     <use xlink:href="#DejaVuSans-35"/>
     <use xlink:href="#DejaVuSans-33" x="63.623047"/>
    </g>
   </g>
   <g id="text_52">
    <!-- paraphrase-multilingual-mpnet-base-v2 -->
    <g transform="translate(146.325415 20.88)scale(0.13 -0.13)">
     <defs>
      <path id="DejaVuSans-70" d="M 1159 525 
L 1159 -1331 
L 581 -1331 
L 581 3500 
L 1159 3500 
L 1159 2969 
Q 1341 3281 1617 3432 
Q 1894 3584 2278 3584 
Q 2916 3584 3314 3078 
Q 3713 2572 3713 1747 
Q 3713 922 3314 415 
Q 2916 -91 2278 -91 
Q 1894 -91 1617 61 
Q 1341 213 1159 525 
z
M 3116 1747 
Q 3116 2381 2855 2742 
Q 2594 3103 2138 3103 
Q 1681 3103 1420 2742 
Q 1159 2381 1159 1747 
Q 1159 1113 1420 752 
Q 1681 391 2138 391 
Q 2594 391 2855 752 
Q 3116 1113 3116 1747 
z
" transform="scale(0.015625)"/>
      <path id="DejaVuSans-72" d="M 2631 2963 
Q 2534 3019 2420 3045 
Q 2306 3072 2169 3072 
Q 1681 3072 1420 2755 
Q 1159 2438 1159 1844 
L 1159 0 
L 581 0 
L 581 3500 
L 1159 3500 
L 1159 2956 
Q 1341 3275 1631 3429 
Q 1922 3584 2338 3584 
Q 2397 3584 2469 3576 
Q 2541 3569 2628 3553 
L 2631 2963 
z
" transform="scale(0.015625)"/>
      <path id="DejaVuSans-2d" d="M 313 2009 
L 1997 2009 
L 1997 1497 
L 313 1497 
L 313 2009 
z
" transform="scale(0.015625)"/>
      <path id="DejaVuSans-75" d="M 544 1381 
L 544 3500 
L 1119 3500 
L 1119 1403 
Q 1119 906 1312 657 
Q 1506 409 1894 409 
Q 2359 409 2629 706 
Q 2900 1003 2900 1516 
L 2900 3500 
L 3475 3500 
L 3475 0 
L 2900 0 
L 2900 538 
Q 2691 219 2414 64 
Q 2138 -91 1772 -91 
Q 1169 -91 856 284 
Q 544 659 544 1381 
z
M 1991 3584 
L 1991 3584 
z
" transform="scale(0.015625)"/>
      <path id="DejaVuSans-67" d="M 2906 1791 
Q 2906 2416 2648 2759 
Q 2391 3103 1925 3103 
Q 1463 3103 1205 2759 
Q 947 2416 947 1791 
Q 947 1169 1205 825 
Q 1463 481 1925 481 
Q 2391 481 2648 825 
Q 2906 1169 2906 1791 
z
M 3481 434 
Q 3481 -459 3084 -895 
Q 2688 -1331 1869 -1331 
Q 1566 -1331 1297 -1286 
Q 1028 -1241 775 -1147 
L 775 -588 
Q 1028 -725 1275 -790 
Q 1522 -856 1778 -856 
Q 2344 -856 2625 -561 
Q 2906 -266 2906 331 
L 2906 616 
Q 2728 306 2450 153 
Q 2172 0 1784 0 
Q 1141 0 747 490 
Q 353 981 353 1791 
Q 353 2603 747 3093 
Q 1141 3584 1784 3584 
Q 2172 3584 2450 3431 
Q 2728 3278 2906 2969 
L 2906 3500 
L 3481 3500 
L 3481 434 
z
" transform="scale(0.015625)"/>
      <path id="DejaVuSans-76" d="M 191 3500 
L 800 3500 
L 1894 563 
L 2988 3500 
L 3597 3500 
L 2284 0 
L 1503 0 
L 191 3500 
z
" transform="scale(0.015625)"/>
     </defs>
     <use xlink:href="#DejaVuSans-70"/>
     <use xlink:href="#DejaVuSans-61" x="63.476562"/>
     <use xlink:href="#DejaVuSans-72" x="124.755859"/>
     <use xlink:href="#DejaVuSans-61" x="165.869141"/>
     <use xlink:href="#DejaVuSans-70" x="227.148438"/>
     <use xlink:href="#DejaVuSans-68" x="290.625"/>
     <use xlink:href="#DejaVuSans-72" x="354.003906"/>
     <use xlink:href="#DejaVuSans-61" x="395.117188"/>
     <use xlink:href="#DejaVuSans-73" x="456.396484"/>
     <use xlink:href="#DejaVuSans-65" x="508.496094"/>
     <use xlink:href="#DejaVuSans-2d" x="570.019531"/>
     <use xlink:href="#DejaVuSans-6d" x="606.103516"/>
     <use xlink:href="#DejaVuSans-75" x="703.515625"/>
     <use xlink:href="#DejaVuSans-6c" x="766.894531"/>
     <use xlink:href="#DejaVuSans-74" x="794.677734"/>
     <use xlink:href="#DejaVuSans-69" x="833.886719"/>
     <use xlink:href="#DejaVuSans-6c" x="861.669922"/>
     <use xlink:href="#DejaVuSans-69" x="889.453125"/>
     <use xlink:href="#DejaVuSans-6e" x="917.236328"/>
     <use xlink:href="#DejaVuSans-67" x="980.615234"/>
     <use xlink:href="#DejaVuSans-75" x="1044.091797"/>
     <use xlink:href="#DejaVuSans-61" x="1107.470703"/>
     <use xlink:href="#DejaVuSans-6c" x="1168.75"/>
     <use xlink:href="#DejaVuSans-2d" x="1196.533203"/>
     <use xlink:href="#DejaVuSans-6d" x="1232.617188"/>
     <use xlink:href="#DejaVuSans-70" x="1330.029297"/>
     <use xlink:href="#DejaVuSans-6e" x="1393.505859"/>
     <use xlink:href="#DejaVuSans-65" x="1456.884766"/>
     <use xlink:href="#DejaVuSans-74" x="1518.408203"/>
     <use xlink:href="#DejaVuSans-2d" x="1557.617188"/>
     <use xlink:href="#DejaVuSans-62" x="1593.701172"/>
     <use xlink:href="#DejaVuSans-61" x="1657.177734"/>
     <use xlink:href="#DejaVuSans-73" x="1718.457031"/>
     <use xlink:href="#DejaVuSans-65" x="1770.556641"/>
     <use xlink:href="#DejaVuSans-2d" x="1832.080078"/>
     <use xlink:href="#DejaVuSans-76" x="1865.539062"/>
     <use xlink:href="#DejaVuSans-32" x="1924.71875"/>
    </g>
   </g>
   <g id="legend_1">
    <g id="patch_43">
     <path d="M 330.912549 75.443125 
L 484.503487 75.443125 
Q 487.103487 75.443125 487.103487 72.843125 
L 487.103487 35.98 
Q 487.103487 33.38 484.503487 33.38 
L 330.912549 33.38 
Q 328.312549 33.38 328.312549 35.98 
L 328.312549 72.843125 
Q 328.312549 75.443125 330.912549 75.443125 
z
" style="fill: #ffffff; opacity: 0.8; stroke: #cccccc; stroke-linejoin: miter"/>
    </g>
    <g id="patch_44">
     <path d="M 333.512549 48.457969 
L 359.512549 48.457969 
L 359.512549 39.357969 
L 333.512549 39.357969 
z
" style="fill: #dc143c"/>
    </g>
    <g id="text_53">
     <!-- 5g -->
     <g transform="translate(369.912549 48.457969)scale(0.13 -0.13)">
      <use xlink:href="#DejaVuSans-35"/>
      <use xlink:href="#DejaVuSans-67" x="63.623047"/>
     </g>
    </g>
    <g id="patch_45">
     <path d="M 333.512549 67.539531 
L 359.512549 67.539531 
L 359.512549 58.439531 
L 333.512549 58.439531 
z
" style="fill: #8b008b"/>
    </g>
    <g id="text_54">
     <!-- 10g -->
     <g transform="translate(369.912549 67.539531)scale(0.13 -0.13)">
      <use xlink:href="#DejaVuSans-31"/>
      <use xlink:href="#DejaVuSans-30" x="63.623047"/>
      <use xlink:href="#DejaVuSans-67" x="127.246094"/>
     </g>
    </g>
    <g id="patch_46">
     <path d="M 420.708018 48.457969 
L 446.708018 48.457969 
L 446.708018 39.357969 
L 420.708018 39.357969 
z
" style="fill: #6495ed"/>
    </g>
    <g id="text_55">
     <!-- 20g -->
     <g transform="translate(457.108018 48.457969)scale(0.13 -0.13)">
      <use xlink:href="#DejaVuSans-32"/>
      <use xlink:href="#DejaVuSans-30" x="63.623047"/>
      <use xlink:href="#DejaVuSans-67" x="127.246094"/>
     </g>
    </g>
    <g id="patch_47">
     <path d="M 420.708018 67.539531 
L 446.708018 67.539531 
L 446.708018 58.439531 
L 420.708018 58.439531 
z
" style="fill: #3cb371"/>
    </g>
    <g id="text_56">
     <!-- 40g -->
     <g transform="translate(457.108018 67.539531)scale(0.13 -0.13)">
      <use xlink:href="#DejaVuSans-34"/>
      <use xlink:href="#DejaVuSans-30" x="63.623047"/>
      <use xlink:href="#DejaVuSans-67" x="127.246094"/>
     </g>
    </g>
   </g>
  </g>
 </g>
 <defs>
  <clipPath id="p95cdc2755a">
   <rect x="57.53" y="26.88" width="436.073487" height="336.731332"/>
  </clipPath>
 </defs>
</svg>
