<?xml version="1.0" encoding="utf-8" standalone="no"?>
<!DOCTYPE svg PUBLIC "-//W3C//DTD SVG 1.1//EN"
  "http://www.w3.org/Graphics/SVG/1.1/DTD/svg11.dtd">
<svg xmlns:xlink="http://www.w3.org/1999/xlink" width="504.403487pt" height="415.651332pt" viewBox="0 0 504.403487 415.651332" xmlns="http://www.w3.org/2000/svg" version="1.1">
 <metadata>
  <rdf:RDF xmlns:dc="http://purl.org/dc/elements/1.1/" xmlns:cc="http://creativecommons.org/ns#" xmlns:rdf="http://www.w3.org/1999/02/22-rdf-syntax-ns#">
   <cc:Work>
    <dc:type rdf:resource="http://purl.org/dc/dcmitype/StillImage"/>
    <dc:date>2022-07-09T15:46:11.767442</dc:date>
    <dc:format>image/svg+xml</dc:format>
    <dc:creator>
     <cc:Agent>
      <dc:title>Matplotlib v3.5.1, https://matplotlib.org/</dc:title>
     </cc:Agent>
    </dc:creator>
   </cc:Work>
  </rdf:RDF>
 </metadata>
 <defs>
  <style type="text/css">*{stroke-linejoin: round; stroke-linecap: butt}</style>
 </defs>
 <g id="figure_1">
  <g id="patch_1">
   <path d="M 0 415.651332 
L 504.403487 415.651332 
L 504.403487 0 
L 0 0 
z
" style="fill: #ffffff"/>
  </g>
  <g id="axes_1">
   <g id="patch_2">
    <path d="M 57.53 363.611332 
L 493.603487 363.611332 
L 493.603487 26.88 
L 57.53 26.88 
z
" style="fill: #ffffff"/>
   </g>
   <g id="patch_3">
    <path d="M 87.604034 363.611332 
L 99.475363 363.611332 
L 99.475363 351.975833 
L 87.604034 351.975833 
z
" clip-path="url(#p927c3fc742)" style="fill: #dc143c"/>
   </g>
   <g id="patch_4">
    <path d="M 166.746227 363.611332 
L 178.617556 363.611332 
L 178.617556 340.42782 
L 166.746227 340.42782 
z
" clip-path="url(#p927c3fc742)" style="fill: #dc143c"/>
   </g>
   <g id="patch_5">
    <path d="M 245.888421 363.611332 
L 257.75975 363.611332 
L 257.75975 316.395703 
L 245.888421 316.395703 
z
" clip-path="url(#p927c3fc742)" style="fill: #dc143c"/>
   </g>
   <g id="patch_6">
    <path d="M 325.030614 363.611332 
L 336.901944 363.611332 
L 336.901944 261.47265 
L 325.030614 261.47265 
z
" clip-path="url(#p927c3fc742)" style="fill: #dc143c"/>
   </g>
   <g id="patch_7">
    <path d="M 404.172808 363.611332 
L 416.044137 363.611332 
L 416.044137 123.088952 
L 404.172808 123.088952 
z
" clip-path="url(#p927c3fc742)" style="fill: #dc143c"/>
   </g>
   <g id="patch_8">
    <path d="M 103.432472 363.611332 
L 115.303801 363.611332 
L 115.303801 358.003546 
L 103.432472 358.003546 
z
" clip-path="url(#p927c3fc742)" style="fill: #8b008b"/>
   </g>
   <g id="patch_9">
    <path d="M 182.574666 363.611332 
L 194.445995 363.611332 
L 194.445995 352.903174 
L 182.574666 352.903174 
z
" clip-path="url(#p927c3fc742)" style="fill: #8b008b"/>
   </g>
   <g id="patch_10">
    <path d="M 261.71686 363.611332 
L 273.588189 363.611332 
L 273.588189 340.445317 
L 261.71686 340.445317 
z
" clip-path="url(#p927c3fc742)" style="fill: #8b008b"/>
   </g>
   <g id="patch_11">
    <path d="M 340.859053 363.611332 
L 352.730382 363.611332 
L 352.730382 314.348555 
L 340.859053 314.348555 
z
" clip-path="url(#p927c3fc742)" style="fill: #8b008b"/>
   </g>
   <g id="patch_12">
    <path d="M 420.001247 363.611332 
L 431.872576 363.611332 
L 431.872576 247.300088 
L 420.001247 247.300088 
z
" clip-path="url(#p927c3fc742)" style="fill: #8b008b"/>
   </g>
   <g id="patch_13">
    <path d="M 119.260911 363.611332 
L 131.13224 363.611332 
L 131.13224 358.677181 
L 119.260911 358.677181 
z
" clip-path="url(#p927c3fc742)" style="fill: #6495ed"/>
   </g>
   <g id="patch_14">
    <path d="M 198.403105 363.611332 
L 210.274434 363.611332 
L 210.274434 356.743763 
L 198.403105 356.743763 
z
" clip-path="url(#p927c3fc742)" style="fill: #6495ed"/>
   </g>
   <g id="patch_15">
    <path d="M 277.545298 363.611332 
L 289.416627 363.611332 
L 289.416627 350.024919 
L 277.545298 350.024919 
z
" clip-path="url(#p927c3fc742)" style="fill: #6495ed"/>
   </g>
   <g id="patch_16">
    <path d="M 356.687492 363.611332 
L 368.558821 363.611332 
L 368.558821 334.198891 
L 356.687492 334.198891 
z
" clip-path="url(#p927c3fc742)" style="fill: #6495ed"/>
   </g>
   <g id="patch_17">
    <path d="M 435.829686 363.611332 
L 447.701015 363.611332 
L 447.701015 296.676595 
L 435.829686 296.676595 
z
" clip-path="url(#p927c3fc742)" style="fill: #6495ed"/>
   </g>
   <g id="patch_18">
    <path d="M 135.08935 363.611332 
L 146.960679 363.611332 
L 146.960679 358.615941 
L 135.08935 358.615941 
z
" clip-path="url(#p927c3fc742)" style="fill: #3cb371"/>
   </g>
   <g id="patch_19">
    <path d="M 214.231543 363.611332 
L 226.102872 363.611332 
L 226.102872 358.703426 
L 214.231543 358.703426 
z
" clip-path="url(#p927c3fc742)" style="fill: #3cb371"/>
   </g>
   <g id="patch_20">
    <path d="M 293.373737 363.611332 
L 305.245066 363.611332 
L 305.245066 357.312415 
L 293.373737 357.312415 
z
" clip-path="url(#p927c3fc742)" style="fill: #3cb371"/>
   </g>
   <g id="patch_21">
    <path d="M 372.515931 363.611332 
L 384.38726 363.611332 
L 384.38726 349.954931 
L 372.515931 349.954931 
z
" clip-path="url(#p927c3fc742)" style="fill: #3cb371"/>
   </g>
   <g id="patch_22">
    <path d="M 451.658124 363.611332 
L 463.529453 363.611332 
L 463.529453 331.968025 
L 451.658124 331.968025 
z
" clip-path="url(#p927c3fc742)" style="fill: #3cb371"/>
   </g>
   <g id="matplotlib.axis_1">
    <g id="xtick_1">
     <g id="line2d_1">
      <defs>
       <path id="m4f439cefb0" d="M 0 0 
L 0 3.5 
" style="stroke: #000000; stroke-width: 0.8"/>
      </defs>
      <g>
       <use xlink:href="#m4f439cefb0" x="117.282356" y="363.611332" style="stroke: #000000; stroke-width: 0.8"/>
      </g>
     </g>
     <g id="text_1">
      <!-- 32 -->
      <g transform="translate(108.374856 381.249144)scale(0.14 -0.14)">
       <defs>
        <path id="DejaVuSans-33" d="M 2597 2516 
Q 3050 2419 3304 2112 
Q 3559 1806 3559 1356 
Q 3559 666 3084 287 
Q 2609 -91 1734 -91 
Q 1441 -91 1130 -33 
Q 819 25 488 141 
L 488 750 
Q 750 597 1062 519 
Q 1375 441 1716 441 
Q 2309 441 2620 675 
Q 2931 909 2931 1356 
Q 2931 1769 2642 2001 
Q 2353 2234 1838 2234 
L 1294 2234 
L 1294 2753 
L 1863 2753 
Q 2328 2753 2575 2939 
Q 2822 3125 2822 3475 
Q 2822 3834 2567 4026 
Q 2313 4219 1838 4219 
Q 1578 4219 1281 4162 
Q 984 4106 628 3988 
L 628 4550 
Q 988 4650 1302 4700 
Q 1616 4750 1894 4750 
Q 2613 4750 3031 4423 
Q 3450 4097 3450 3541 
Q 3450 3153 3228 2886 
Q 3006 2619 2597 2516 
z
" transform="scale(0.015625)"/>
        <path id="DejaVuSans-32" d="M 1228 531 
L 3431 531 
L 3431 0 
L 469 0 
L 469 531 
Q 828 903 1448 1529 
Q 2069 2156 2228 2338 
Q 2531 2678 2651 2914 
Q 2772 3150 2772 3378 
Q 2772 3750 2511 3984 
Q 2250 4219 1831 4219 
Q 1534 4219 1204 4116 
Q 875 4013 500 3803 
L 500 4441 
Q 881 4594 1212 4672 
Q 1544 4750 1819 4750 
Q 2544 4750 2975 4387 
Q 3406 4025 3406 3419 
Q 3406 3131 3298 2873 
Q 3191 2616 2906 2266 
Q 2828 2175 2409 1742 
Q 1991 1309 1228 531 
z
" transform="scale(0.015625)"/>
       </defs>
       <use xlink:href="#DejaVuSans-33"/>
       <use xlink:href="#DejaVuSans-32" x="63.623047"/>
      </g>
     </g>
    </g>
    <g id="xtick_2">
     <g id="line2d_2">
      <g>
       <use xlink:href="#m4f439cefb0" x="196.42455" y="363.611332" style="stroke: #000000; stroke-width: 0.8"/>
      </g>
     </g>
     <g id="text_2">
      <!-- 64 -->
      <g transform="translate(187.51705 381.249144)scale(0.14 -0.14)">
       <defs>
        <path id="DejaVuSans-36" d="M 2113 2584 
Q 1688 2584 1439 2293 
Q 1191 2003 1191 1497 
Q 1191 994 1439 701 
Q 1688 409 2113 409 
Q 2538 409 2786 701 
Q 3034 994 3034 1497 
Q 3034 2003 2786 2293 
Q 2538 2584 2113 2584 
z
M 3366 4563 
L 3366 3988 
Q 3128 4100 2886 4159 
Q 2644 4219 2406 4219 
Q 1781 4219 1451 3797 
Q 1122 3375 1075 2522 
Q 1259 2794 1537 2939 
Q 1816 3084 2150 3084 
Q 2853 3084 3261 2657 
Q 3669 2231 3669 1497 
Q 3669 778 3244 343 
Q 2819 -91 2113 -91 
Q 1303 -91 875 529 
Q 447 1150 447 2328 
Q 447 3434 972 4092 
Q 1497 4750 2381 4750 
Q 2619 4750 2861 4703 
Q 3103 4656 3366 4563 
z
" transform="scale(0.015625)"/>
        <path id="DejaVuSans-34" d="M 2419 4116 
L 825 1625 
L 2419 1625 
L 2419 4116 
z
M 2253 4666 
L 3047 4666 
L 3047 1625 
L 3713 1625 
L 3713 1100 
L 3047 1100 
L 3047 0 
L 2419 0 
L 2419 1100 
L 313 1100 
L 313 1709 
L 2253 4666 
z
" transform="scale(0.015625)"/>
       </defs>
       <use xlink:href="#DejaVuSans-36"/>
       <use xlink:href="#DejaVuSans-34" x="63.623047"/>
      </g>
     </g>
    </g>
    <g id="xtick_3">
     <g id="line2d_3">
      <g>
       <use xlink:href="#m4f439cefb0" x="275.566743" y="363.611332" style="stroke: #000000; stroke-width: 0.8"/>
      </g>
     </g>
     <g id="text_3">
      <!-- 128 -->
      <g transform="translate(262.205493 381.249144)scale(0.14 -0.14)">
       <defs>
        <path id="DejaVuSans-31" d="M 794 531 
L 1825 531 
L 1825 4091 
L 703 3866 
L 703 4441 
L 1819 4666 
L 2450 4666 
L 2450 531 
L 3481 531 
L 3481 0 
L 794 0 
L 794 531 
z
" transform="scale(0.015625)"/>
        <path id="DejaVuSans-38" d="M 2034 2216 
Q 1584 2216 1326 1975 
Q 1069 1734 1069 1313 
Q 1069 891 1326 650 
Q 1584 409 2034 409 
Q 2484 409 2743 651 
Q 3003 894 3003 1313 
Q 3003 1734 2745 1975 
Q 2488 2216 2034 2216 
z
M 1403 2484 
Q 997 2584 770 2862 
Q 544 3141 544 3541 
Q 544 4100 942 4425 
Q 1341 4750 2034 4750 
Q 2731 4750 3128 4425 
Q 3525 4100 3525 3541 
Q 3525 3141 3298 2862 
Q 3072 2584 2669 2484 
Q 3125 2378 3379 2068 
Q 3634 1759 3634 1313 
Q 3634 634 3220 271 
Q 2806 -91 2034 -91 
Q 1263 -91 848 271 
Q 434 634 434 1313 
Q 434 1759 690 2068 
Q 947 2378 1403 2484 
z
M 1172 3481 
Q 1172 3119 1398 2916 
Q 1625 2713 2034 2713 
Q 2441 2713 2670 2916 
Q 2900 3119 2900 3481 
Q 2900 3844 2670 4047 
Q 2441 4250 2034 4250 
Q 1625 4250 1398 4047 
Q 1172 3844 1172 3481 
z
" transform="scale(0.015625)"/>
       </defs>
       <use xlink:href="#DejaVuSans-31"/>
       <use xlink:href="#DejaVuSans-32" x="63.623047"/>
       <use xlink:href="#DejaVuSans-38" x="127.246094"/>
      </g>
     </g>
    </g>
    <g id="xtick_4">
     <g id="line2d_4">
      <g>
       <use xlink:href="#m4f439cefb0" x="354.708937" y="363.611332" style="stroke: #000000; stroke-width: 0.8"/>
      </g>
     </g>
     <g id="text_4">
      <!-- 256 -->
      <g transform="translate(341.347687 381.249144)scale(0.14 -0.14)">
       <defs>
        <path id="DejaVuSans-35" d="M 691 4666 
L 3169 4666 
L 3169 4134 
L 1269 4134 
L 1269 2991 
Q 1406 3038 1543 3061 
Q 1681 3084 1819 3084 
Q 2600 3084 3056 2656 
Q 3513 2228 3513 1497 
Q 3513 744 3044 326 
Q 2575 -91 1722 -91 
Q 1428 -91 1123 -41 
Q 819 9 494 109 
L 494 744 
Q 775 591 1075 516 
Q 1375 441 1709 441 
Q 2250 441 2565 725 
Q 2881 1009 2881 1497 
Q 2881 1984 2565 2268 
Q 2250 2553 1709 2553 
Q 1456 2553 1204 2497 
Q 953 2441 691 2322 
L 691 4666 
z
" transform="scale(0.015625)"/>
       </defs>
       <use xlink:href="#DejaVuSans-32"/>
       <use xlink:href="#DejaVuSans-35" x="63.623047"/>
       <use xlink:href="#DejaVuSans-36" x="127.246094"/>
      </g>
     </g>
    </g>
    <g id="xtick_5">
     <g id="line2d_5">
      <g>
       <use xlink:href="#m4f439cefb0" x="433.851131" y="363.611332" style="stroke: #000000; stroke-width: 0.8"/>
      </g>
     </g>
     <g id="text_5">
      <!-- 512 -->
      <g transform="translate(420.489881 381.249144)scale(0.14 -0.14)">
       <use xlink:href="#DejaVuSans-35"/>
       <use xlink:href="#DejaVuSans-31" x="63.623047"/>
       <use xlink:href="#DejaVuSans-32" x="127.246094"/>
      </g>
     </g>
    </g>
    <g id="text_6">
     <!-- sequence length -->
     <g transform="translate(208.971743 400.318207)scale(0.16 -0.16)">
      <defs>
       <path id="DejaVuSans-73" d="M 2834 3397 
L 2834 2853 
Q 2591 2978 2328 3040 
Q 2066 3103 1784 3103 
Q 1356 3103 1142 2972 
Q 928 2841 928 2578 
Q 928 2378 1081 2264 
Q 1234 2150 1697 2047 
L 1894 2003 
Q 2506 1872 2764 1633 
Q 3022 1394 3022 966 
Q 3022 478 2636 193 
Q 2250 -91 1575 -91 
Q 1294 -91 989 -36 
Q 684 19 347 128 
L 347 722 
Q 666 556 975 473 
Q 1284 391 1588 391 
Q 1994 391 2212 530 
Q 2431 669 2431 922 
Q 2431 1156 2273 1281 
Q 2116 1406 1581 1522 
L 1381 1569 
Q 847 1681 609 1914 
Q 372 2147 372 2553 
Q 372 3047 722 3315 
Q 1072 3584 1716 3584 
Q 2034 3584 2315 3537 
Q 2597 3491 2834 3397 
z
" transform="scale(0.015625)"/>
       <path id="DejaVuSans-65" d="M 3597 1894 
L 3597 1613 
L 953 1613 
Q 991 1019 1311 708 
Q 1631 397 2203 397 
Q 2534 397 2845 478 
Q 3156 559 3463 722 
L 3463 178 
Q 3153 47 2828 -22 
Q 2503 -91 2169 -91 
Q 1331 -91 842 396 
Q 353 884 353 1716 
Q 353 2575 817 3079 
Q 1281 3584 2069 3584 
Q 2775 3584 3186 3129 
Q 3597 2675 3597 1894 
z
M 3022 2063 
Q 3016 2534 2758 2815 
Q 2500 3097 2075 3097 
Q 1594 3097 1305 2825 
Q 1016 2553 972 2059 
L 3022 2063 
z
" transform="scale(0.015625)"/>
       <path id="DejaVuSans-71" d="M 947 1747 
Q 947 1113 1208 752 
Q 1469 391 1925 391 
Q 2381 391 2643 752 
Q 2906 1113 2906 1747 
Q 2906 2381 2643 2742 
Q 2381 3103 1925 3103 
Q 1469 3103 1208 2742 
Q 947 2381 947 1747 
z
M 2906 525 
Q 2725 213 2448 61 
Q 2172 -91 1784 -91 
Q 1150 -91 751 415 
Q 353 922 353 1747 
Q 353 2572 751 3078 
Q 1150 3584 1784 3584 
Q 2172 3584 2448 3432 
Q 2725 3281 2906 2969 
L 2906 3500 
L 3481 3500 
L 3481 -1331 
L 2906 -1331 
L 2906 525 
z
" transform="scale(0.015625)"/>
       <path id="DejaVuSans-75" d="M 544 1381 
L 544 3500 
L 1119 3500 
L 1119 1403 
Q 1119 906 1312 657 
Q 1506 409 1894 409 
Q 2359 409 2629 706 
Q 2900 1003 2900 1516 
L 2900 3500 
L 3475 3500 
L 3475 0 
L 2900 0 
L 2900 538 
Q 2691 219 2414 64 
Q 2138 -91 1772 -91 
Q 1169 -91 856 284 
Q 544 659 544 1381 
z
M 1991 3584 
L 1991 3584 
z
" transform="scale(0.015625)"/>
       <path id="DejaVuSans-6e" d="M 3513 2113 
L 3513 0 
L 2938 0 
L 2938 2094 
Q 2938 2591 2744 2837 
Q 2550 3084 2163 3084 
Q 1697 3084 1428 2787 
Q 1159 2491 1159 1978 
L 1159 0 
L 581 0 
L 581 3500 
L 1159 3500 
L 1159 2956 
Q 1366 3272 1645 3428 
Q 1925 3584 2291 3584 
Q 2894 3584 3203 3211 
Q 3513 2838 3513 2113 
z
" transform="scale(0.015625)"/>
       <path id="DejaVuSans-63" d="M 3122 3366 
L 3122 2828 
Q 2878 2963 2633 3030 
Q 2388 3097 2138 3097 
Q 1578 3097 1268 2742 
Q 959 2388 959 1747 
Q 959 1106 1268 751 
Q 1578 397 2138 397 
Q 2388 397 2633 464 
Q 2878 531 3122 666 
L 3122 134 
Q 2881 22 2623 -34 
Q 2366 -91 2075 -91 
Q 1284 -91 818 406 
Q 353 903 353 1747 
Q 353 2603 823 3093 
Q 1294 3584 2113 3584 
Q 2378 3584 2631 3529 
Q 2884 3475 3122 3366 
z
" transform="scale(0.015625)"/>
       <path id="DejaVuSans-20" transform="scale(0.015625)"/>
       <path id="DejaVuSans-6c" d="M 603 4863 
L 1178 4863 
L 1178 0 
L 603 0 
L 603 4863 
z
" transform="scale(0.015625)"/>
       <path id="DejaVuSans-67" d="M 2906 1791 
Q 2906 2416 2648 2759 
Q 2391 3103 1925 3103 
Q 1463 3103 1205 2759 
Q 947 2416 947 1791 
Q 947 1169 1205 825 
Q 1463 481 1925 481 
Q 2391 481 2648 825 
Q 2906 1169 2906 1791 
z
M 3481 434 
Q 3481 -459 3084 -895 
Q 2688 -1331 1869 -1331 
Q 1566 -1331 1297 -1286 
Q 1028 -1241 775 -1147 
L 775 -588 
Q 1028 -725 1275 -790 
Q 1522 -856 1778 -856 
Q 2344 -856 2625 -561 
Q 2906 -266 2906 331 
L 2906 616 
Q 2728 306 2450 153 
Q 2172 0 1784 0 
Q 1141 0 747 490 
Q 353 981 353 1791 
Q 353 2603 747 3093 
Q 1141 3584 1784 3584 
Q 2172 3584 2450 3431 
Q 2728 3278 2906 2969 
L 2906 3500 
L 3481 3500 
L 3481 434 
z
" transform="scale(0.015625)"/>
       <path id="DejaVuSans-74" d="M 1172 4494 
L 1172 3500 
L 2356 3500 
L 2356 3053 
L 1172 3053 
L 1172 1153 
Q 1172 725 1289 603 
Q 1406 481 1766 481 
L 2356 481 
L 2356 0 
L 1766 0 
Q 1100 0 847 248 
Q 594 497 594 1153 
L 594 3053 
L 172 3053 
L 172 3500 
L 594 3500 
L 594 4494 
L 1172 4494 
z
" transform="scale(0.015625)"/>
       <path id="DejaVuSans-68" d="M 3513 2113 
L 3513 0 
L 2938 0 
L 2938 2094 
Q 2938 2591 2744 2837 
Q 2550 3084 2163 3084 
Q 1697 3084 1428 2787 
Q 1159 2491 1159 1978 
L 1159 0 
L 581 0 
L 581 4863 
L 1159 4863 
L 1159 2956 
Q 1366 3272 1645 3428 
Q 1925 3584 2291 3584 
Q 2894 3584 3203 3211 
Q 3513 2838 3513 2113 
z
" transform="scale(0.015625)"/>
      </defs>
      <use xlink:href="#DejaVuSans-73"/>
      <use xlink:href="#DejaVuSans-65" x="52.099609"/>
      <use xlink:href="#DejaVuSans-71" x="113.623047"/>
      <use xlink:href="#DejaVuSans-75" x="177.099609"/>
      <use xlink:href="#DejaVuSans-65" x="240.478516"/>
      <use xlink:href="#DejaVuSans-6e" x="302.001953"/>
      <use xlink:href="#DejaVuSans-63" x="365.380859"/>
      <use xlink:href="#DejaVuSans-65" x="420.361328"/>
      <use xlink:href="#DejaVuSans-20" x="481.884766"/>
      <use xlink:href="#DejaVuSans-6c" x="513.671875"/>
      <use xlink:href="#DejaVuSans-65" x="541.455078"/>
      <use xlink:href="#DejaVuSans-6e" x="602.978516"/>
      <use xlink:href="#DejaVuSans-67" x="666.357422"/>
      <use xlink:href="#DejaVuSans-74" x="729.833984"/>
      <use xlink:href="#DejaVuSans-68" x="769.042969"/>
     </g>
    </g>
   </g>
   <g id="matplotlib.axis_2">
    <g id="ytick_1">
     <g id="line2d_6">
      <defs>
       <path id="mfa9a9a68b0" d="M 0 0 
L -3.5 0 
" style="stroke: #000000; stroke-width: 0.8"/>
      </defs>
      <g>
       <use xlink:href="#mfa9a9a68b0" x="57.53" y="363.611332" style="stroke: #000000; stroke-width: 0.8"/>
      </g>
     </g>
    </g>
    <g id="ytick_2">
     <g id="line2d_7">
      <g>
       <use xlink:href="#mfa9a9a68b0" x="57.53" y="319.868856" style="stroke: #000000; stroke-width: 0.8"/>
      </g>
     </g>
    </g>
    <g id="ytick_3">
     <g id="line2d_8">
      <g>
       <use xlink:href="#mfa9a9a68b0" x="57.53" y="276.126379" style="stroke: #000000; stroke-width: 0.8"/>
      </g>
     </g>
     <g id="text_7">
      <!-- 100 -->
      <g transform="translate(31.4425 279.925598)scale(0.1 -0.1)">
       <defs>
        <path id="DejaVuSans-30" d="M 2034 4250 
Q 1547 4250 1301 3770 
Q 1056 3291 1056 2328 
Q 1056 1369 1301 889 
Q 1547 409 2034 409 
Q 2525 409 2770 889 
Q 3016 1369 3016 2328 
Q 3016 3291 2770 3770 
Q 2525 4250 2034 4250 
z
M 2034 4750 
Q 2819 4750 3233 4129 
Q 3647 3509 3647 2328 
Q 3647 1150 3233 529 
Q 2819 -91 2034 -91 
Q 1250 -91 836 529 
Q 422 1150 422 2328 
Q 422 3509 836 4129 
Q 1250 4750 2034 4750 
z
" transform="scale(0.015625)"/>
       </defs>
       <use xlink:href="#DejaVuSans-31"/>
       <use xlink:href="#DejaVuSans-30" x="63.623047"/>
       <use xlink:href="#DejaVuSans-30" x="127.246094"/>
      </g>
     </g>
    </g>
    <g id="ytick_4">
     <g id="line2d_9">
      <g>
       <use xlink:href="#mfa9a9a68b0" x="57.53" y="232.383903" style="stroke: #000000; stroke-width: 0.8"/>
      </g>
     </g>
     <g id="text_8">
      <!-- 150 -->
      <g transform="translate(31.4425 236.183122)scale(0.1 -0.1)">
       <use xlink:href="#DejaVuSans-31"/>
       <use xlink:href="#DejaVuSans-35" x="63.623047"/>
       <use xlink:href="#DejaVuSans-30" x="127.246094"/>
      </g>
     </g>
    </g>
    <g id="ytick_5">
     <g id="line2d_10">
      <g>
       <use xlink:href="#mfa9a9a68b0" x="57.53" y="188.641427" style="stroke: #000000; stroke-width: 0.8"/>
      </g>
     </g>
     <g id="text_9">
      <!-- 200 -->
      <g transform="translate(31.4425 192.440646)scale(0.1 -0.1)">
       <use xlink:href="#DejaVuSans-32"/>
       <use xlink:href="#DejaVuSans-30" x="63.623047"/>
       <use xlink:href="#DejaVuSans-30" x="127.246094"/>
      </g>
     </g>
    </g>
    <g id="ytick_6">
     <g id="line2d_11">
      <g>
       <use xlink:href="#mfa9a9a68b0" x="57.53" y="144.898951" style="stroke: #000000; stroke-width: 0.8"/>
      </g>
     </g>
     <g id="text_10">
      <!-- 250 -->
      <g transform="translate(31.4425 148.698169)scale(0.1 -0.1)">
       <use xlink:href="#DejaVuSans-32"/>
       <use xlink:href="#DejaVuSans-35" x="63.623047"/>
       <use xlink:href="#DejaVuSans-30" x="127.246094"/>
      </g>
     </g>
    </g>
    <g id="ytick_7">
     <g id="line2d_12">
      <g>
       <use xlink:href="#mfa9a9a68b0" x="57.53" y="101.156474" style="stroke: #000000; stroke-width: 0.8"/>
      </g>
     </g>
     <g id="text_11">
      <!-- 300 -->
      <g transform="translate(31.4425 104.955693)scale(0.1 -0.1)">
       <use xlink:href="#DejaVuSans-33"/>
       <use xlink:href="#DejaVuSans-30" x="63.623047"/>
       <use xlink:href="#DejaVuSans-30" x="127.246094"/>
      </g>
     </g>
    </g>
    <g id="ytick_8">
     <g id="line2d_13">
      <g>
       <use xlink:href="#mfa9a9a68b0" x="57.53" y="57.413998" style="stroke: #000000; stroke-width: 0.8"/>
      </g>
     </g>
     <g id="text_12">
      <!-- 350 -->
      <g transform="translate(31.4425 61.213217)scale(0.1 -0.1)">
       <use xlink:href="#DejaVuSans-33"/>
       <use xlink:href="#DejaVuSans-35" x="63.623047"/>
       <use xlink:href="#DejaVuSans-30" x="127.246094"/>
      </g>
     </g>
    </g>
    <g id="text_13">
     <!-- latency(ms) -->
     <g transform="translate(24.115 242.835666)rotate(-90)scale(0.16 -0.16)">
      <defs>
       <path id="DejaVuSans-61" d="M 2194 1759 
Q 1497 1759 1228 1600 
Q 959 1441 959 1056 
Q 959 750 1161 570 
Q 1363 391 1709 391 
Q 2188 391 2477 730 
Q 2766 1069 2766 1631 
L 2766 1759 
L 2194 1759 
z
M 3341 1997 
L 3341 0 
L 2766 0 
L 2766 531 
Q 2569 213 2275 61 
Q 1981 -91 1556 -91 
Q 1019 -91 701 211 
Q 384 513 384 1019 
Q 384 1609 779 1909 
Q 1175 2209 1959 2209 
L 2766 2209 
L 2766 2266 
Q 2766 2663 2505 2880 
Q 2244 3097 1772 3097 
Q 1472 3097 1187 3025 
Q 903 2953 641 2809 
L 641 3341 
Q 956 3463 1253 3523 
Q 1550 3584 1831 3584 
Q 2591 3584 2966 3190 
Q 3341 2797 3341 1997 
z
" transform="scale(0.015625)"/>
       <path id="DejaVuSans-79" d="M 2059 -325 
Q 1816 -950 1584 -1140 
Q 1353 -1331 966 -1331 
L 506 -1331 
L 506 -850 
L 844 -850 
Q 1081 -850 1212 -737 
Q 1344 -625 1503 -206 
L 1606 56 
L 191 3500 
L 800 3500 
L 1894 763 
L 2988 3500 
L 3597 3500 
L 2059 -325 
z
" transform="scale(0.015625)"/>
       <path id="DejaVuSans-28" d="M 1984 4856 
Q 1566 4138 1362 3434 
Q 1159 2731 1159 2009 
Q 1159 1288 1364 580 
Q 1569 -128 1984 -844 
L 1484 -844 
Q 1016 -109 783 600 
Q 550 1309 550 2009 
Q 550 2706 781 3412 
Q 1013 4119 1484 4856 
L 1984 4856 
z
" transform="scale(0.015625)"/>
       <path id="DejaVuSans-6d" d="M 3328 2828 
Q 3544 3216 3844 3400 
Q 4144 3584 4550 3584 
Q 5097 3584 5394 3201 
Q 5691 2819 5691 2113 
L 5691 0 
L 5113 0 
L 5113 2094 
Q 5113 2597 4934 2840 
Q 4756 3084 4391 3084 
Q 3944 3084 3684 2787 
Q 3425 2491 3425 1978 
L 3425 0 
L 2847 0 
L 2847 2094 
Q 2847 2600 2669 2842 
Q 2491 3084 2119 3084 
Q 1678 3084 1418 2786 
Q 1159 2488 1159 1978 
L 1159 0 
L 581 0 
L 581 3500 
L 1159 3500 
L 1159 2956 
Q 1356 3278 1631 3431 
Q 1906 3584 2284 3584 
Q 2666 3584 2933 3390 
Q 3200 3197 3328 2828 
z
" transform="scale(0.015625)"/>
       <path id="DejaVuSans-29" d="M 513 4856 
L 1013 4856 
Q 1481 4119 1714 3412 
Q 1947 2706 1947 2009 
Q 1947 1309 1714 600 
Q 1481 -109 1013 -844 
L 513 -844 
Q 928 -128 1133 580 
Q 1338 1288 1338 2009 
Q 1338 2731 1133 3434 
Q 928 4138 513 4856 
z
" transform="scale(0.015625)"/>
      </defs>
      <use xlink:href="#DejaVuSans-6c"/>
      <use xlink:href="#DejaVuSans-61" x="27.783203"/>
      <use xlink:href="#DejaVuSans-74" x="89.0625"/>
      <use xlink:href="#DejaVuSans-65" x="128.271484"/>
      <use xlink:href="#DejaVuSans-6e" x="189.794922"/>
      <use xlink:href="#DejaVuSans-63" x="253.173828"/>
      <use xlink:href="#DejaVuSans-79" x="308.154297"/>
      <use xlink:href="#DejaVuSans-28" x="367.333984"/>
      <use xlink:href="#DejaVuSans-6d" x="406.347656"/>
      <use xlink:href="#DejaVuSans-73" x="503.759766"/>
      <use xlink:href="#DejaVuSans-29" x="555.859375"/>
     </g>
    </g>
   </g>
   <g id="LineCollection_1">
    <path d="M 93.539698 351.984582 
L 93.539698 351.967085 
" clip-path="url(#p927c3fc742)" style="fill: none; stroke: #000000; stroke-width: 1.5"/>
    <path d="M 172.681892 340.436568 
L 172.681892 340.419071 
" clip-path="url(#p927c3fc742)" style="fill: none; stroke: #000000; stroke-width: 1.5"/>
    <path d="M 251.824085 316.4132 
L 251.824085 316.378206 
" clip-path="url(#p927c3fc742)" style="fill: none; stroke: #000000; stroke-width: 1.5"/>
    <path d="M 330.966279 261.498895 
L 330.966279 261.446404 
" clip-path="url(#p927c3fc742)" style="fill: none; stroke: #000000; stroke-width: 1.5"/>
    <path d="M 410.108473 123.132694 
L 410.108473 123.04521 
" clip-path="url(#p927c3fc742)" style="fill: none; stroke: #000000; stroke-width: 1.5"/>
   </g>
   <g id="LineCollection_2">
    <path d="M 109.368137 358.029792 
L 109.368137 357.977301 
" clip-path="url(#p927c3fc742)" style="fill: none; stroke: #000000; stroke-width: 1.5"/>
    <path d="M 188.51033 352.911922 
L 188.51033 352.894425 
" clip-path="url(#p927c3fc742)" style="fill: none; stroke: #000000; stroke-width: 1.5"/>
    <path d="M 267.652524 340.454065 
L 267.652524 340.436568 
" clip-path="url(#p927c3fc742)" style="fill: none; stroke: #000000; stroke-width: 1.5"/>
    <path d="M 346.794718 314.366052 
L 346.794718 314.331058 
" clip-path="url(#p927c3fc742)" style="fill: none; stroke: #000000; stroke-width: 1.5"/>
    <path d="M 425.936911 247.335082 
L 425.936911 247.265094 
" clip-path="url(#p927c3fc742)" style="fill: none; stroke: #000000; stroke-width: 1.5"/>
   </g>
   <g id="LineCollection_3">
    <path d="M 125.196576 358.703426 
L 125.196576 358.650935 
" clip-path="url(#p927c3fc742)" style="fill: none; stroke: #000000; stroke-width: 1.5"/>
    <path d="M 204.338769 356.752512 
L 204.338769 356.735015 
" clip-path="url(#p927c3fc742)" style="fill: none; stroke: #000000; stroke-width: 1.5"/>
    <path d="M 283.480963 350.042416 
L 283.480963 350.007422 
" clip-path="url(#p927c3fc742)" style="fill: none; stroke: #000000; stroke-width: 1.5"/>
    <path d="M 362.623156 334.207639 
L 362.623156 334.190142 
" clip-path="url(#p927c3fc742)" style="fill: none; stroke: #000000; stroke-width: 1.5"/>
    <path d="M 441.76535 296.685343 
L 441.76535 296.667846 
" clip-path="url(#p927c3fc742)" style="fill: none; stroke: #000000; stroke-width: 1.5"/>
   </g>
   <g id="LineCollection_4">
    <path d="M 141.025014 358.650935 
L 141.025014 358.580947 
" clip-path="url(#p927c3fc742)" style="fill: none; stroke: #000000; stroke-width: 1.5"/>
    <path d="M 220.167208 358.782163 
L 220.167208 358.62469 
" clip-path="url(#p927c3fc742)" style="fill: none; stroke: #000000; stroke-width: 1.5"/>
    <path d="M 299.309402 357.329912 
L 299.309402 357.294918 
" clip-path="url(#p927c3fc742)" style="fill: none; stroke: #000000; stroke-width: 1.5"/>
    <path d="M 378.451595 349.963679 
L 378.451595 349.946182 
" clip-path="url(#p927c3fc742)" style="fill: none; stroke: #000000; stroke-width: 1.5"/>
    <path d="M 457.593789 331.976773 
L 457.593789 331.959276 
" clip-path="url(#p927c3fc742)" style="fill: none; stroke: #000000; stroke-width: 1.5"/>
   </g>
   <g id="patch_23">
    <path d="M 57.53 363.611332 
L 57.53 26.88 
" style="fill: none; stroke: #000000; stroke-width: 0.8; stroke-linejoin: miter; stroke-linecap: square"/>
   </g>
   <g id="patch_24">
    <path d="M 493.603487 363.611332 
L 493.603487 26.88 
" style="fill: none; stroke: #000000; stroke-width: 0.8; stroke-linejoin: miter; stroke-linecap: square"/>
   </g>
   <g id="patch_25">
    <path d="M 57.53 363.611332 
L 493.603487 363.611332 
" style="fill: none; stroke: #000000; stroke-width: 0.8; stroke-linejoin: miter; stroke-linecap: square"/>
   </g>
   <g id="patch_26">
    <path d="M 57.53 26.88 
L 493.603487 26.88 
" style="fill: none; stroke: #000000; stroke-width: 0.8; stroke-linejoin: miter; stroke-linecap: square"/>
   </g>
   <g id="text_14">
    <!-- 13 -->
    <g transform="translate(91.440073 351.280788)scale(0.033 -0.033)">
     <use xlink:href="#DejaVuSans-31"/>
     <use xlink:href="#DejaVuSans-33" x="63.623047"/>
    </g>
   </g>
   <g id="text_15">
    <!-- 26 -->
    <g transform="translate(170.582267 339.732774)scale(0.033 -0.033)">
     <use xlink:href="#DejaVuSans-32"/>
     <use xlink:href="#DejaVuSans-36" x="63.623047"/>
    </g>
   </g>
   <g id="text_16">
    <!-- 54 -->
    <g transform="translate(249.72446 315.691909)scale(0.033 -0.033)">
     <use xlink:href="#DejaVuSans-35"/>
     <use xlink:href="#DejaVuSans-34" x="63.623047"/>
    </g>
   </g>
   <g id="text_17">
    <!-- 117 -->
    <g transform="translate(327.816842 260.760108)scale(0.033 -0.033)">
     <defs>
      <path id="DejaVuSans-37" d="M 525 4666 
L 3525 4666 
L 3525 4397 
L 1831 0 
L 1172 0 
L 2766 4134 
L 525 4134 
L 525 4666 
z
" transform="scale(0.015625)"/>
     </defs>
     <use xlink:href="#DejaVuSans-31"/>
     <use xlink:href="#DejaVuSans-31" x="63.623047"/>
     <use xlink:href="#DejaVuSans-37" x="127.246094"/>
    </g>
   </g>
   <g id="text_18">
    <!-- 275 -->
    <g transform="translate(406.959035 122.358913)scale(0.033 -0.033)">
     <use xlink:href="#DejaVuSans-32"/>
     <use xlink:href="#DejaVuSans-37" x="63.623047"/>
     <use xlink:href="#DejaVuSans-35" x="127.246094"/>
    </g>
   </g>
   <g id="text_19">
    <!-- 6 -->
    <g transform="translate(108.318324 357.291004)scale(0.033 -0.033)">
     <use xlink:href="#DejaVuSans-36"/>
    </g>
   </g>
   <g id="text_20">
    <!-- 12 -->
    <g transform="translate(186.410705 352.208128)scale(0.033 -0.033)">
     <use xlink:href="#DejaVuSans-31"/>
     <use xlink:href="#DejaVuSans-32" x="63.623047"/>
    </g>
   </g>
   <g id="text_21">
    <!-- 26 -->
    <g transform="translate(265.552899 339.750271)scale(0.033 -0.033)">
     <use xlink:href="#DejaVuSans-32"/>
     <use xlink:href="#DejaVuSans-36" x="63.623047"/>
    </g>
   </g>
   <g id="text_22">
    <!-- 56 -->
    <g transform="translate(344.695093 313.644761)scale(0.033 -0.033)">
     <use xlink:href="#DejaVuSans-35"/>
     <use xlink:href="#DejaVuSans-36" x="63.623047"/>
    </g>
   </g>
   <g id="text_23">
    <!-- 133 -->
    <g transform="translate(422.787474 246.578797)scale(0.033 -0.033)">
     <use xlink:href="#DejaVuSans-31"/>
     <use xlink:href="#DejaVuSans-33" x="63.623047"/>
     <use xlink:href="#DejaVuSans-33" x="127.246094"/>
    </g>
   </g>
   <g id="text_24">
    <!-- 6 -->
    <g transform="translate(124.146763 357.964638)scale(0.033 -0.033)">
     <use xlink:href="#DejaVuSans-36"/>
    </g>
   </g>
   <g id="text_25">
    <!-- 8 -->
    <g transform="translate(203.288957 356.048718)scale(0.033 -0.033)">
     <use xlink:href="#DejaVuSans-38"/>
    </g>
   </g>
   <g id="text_26">
    <!-- 16 -->
    <g transform="translate(281.381338 349.321125)scale(0.033 -0.033)">
     <use xlink:href="#DejaVuSans-31"/>
     <use xlink:href="#DejaVuSans-36" x="63.623047"/>
    </g>
   </g>
   <g id="text_27">
    <!-- 34 -->
    <g transform="translate(360.523531 333.503846)scale(0.033 -0.033)">
     <use xlink:href="#DejaVuSans-33"/>
     <use xlink:href="#DejaVuSans-34" x="63.623047"/>
    </g>
   </g>
   <g id="text_28">
    <!-- 77 -->
    <g transform="translate(439.665725 295.981549)scale(0.033 -0.033)">
     <use xlink:href="#DejaVuSans-37"/>
     <use xlink:href="#DejaVuSans-37" x="63.623047"/>
    </g>
   </g>
   <g id="text_29">
    <!-- 6 -->
    <g transform="translate(139.975202 357.89465)scale(0.033 -0.033)">
     <use xlink:href="#DejaVuSans-36"/>
    </g>
   </g>
   <g id="text_30">
    <!-- 6 -->
    <g transform="translate(219.117395 357.938393)scale(0.033 -0.033)">
     <use xlink:href="#DejaVuSans-36"/>
    </g>
   </g>
   <g id="text_31">
    <!-- 7 -->
    <g transform="translate(298.259589 356.608622)scale(0.033 -0.033)">
     <use xlink:href="#DejaVuSans-37"/>
    </g>
   </g>
   <g id="text_32">
    <!-- 16 -->
    <g transform="translate(376.35197 349.259885)scale(0.033 -0.033)">
     <use xlink:href="#DejaVuSans-31"/>
     <use xlink:href="#DejaVuSans-36" x="63.623047"/>
    </g>
   </g>
   <g id="text_33">
    <!-- 36 -->
    <g transform="translate(455.494164 331.272979)scale(0.033 -0.033)">
     <use xlink:href="#DejaVuSans-33"/>
     <use xlink:href="#DejaVuSans-36" x="63.623047"/>
    </g>
   </g>
   <g id="text_34">
    <!-- distiluse-base-multilingual-cased-v2 -->
    <g transform="translate(158.449947 20.88)scale(0.13 -0.13)">
     <defs>
      <path id="DejaVuSans-64" d="M 2906 2969 
L 2906 4863 
L 3481 4863 
L 3481 0 
L 2906 0 
L 2906 525 
Q 2725 213 2448 61 
Q 2172 -91 1784 -91 
Q 1150 -91 751 415 
Q 353 922 353 1747 
Q 353 2572 751 3078 
Q 1150 3584 1784 3584 
Q 2172 3584 2448 3432 
Q 2725 3281 2906 2969 
z
M 947 1747 
Q 947 1113 1208 752 
Q 1469 391 1925 391 
Q 2381 391 2643 752 
Q 2906 1113 2906 1747 
Q 2906 2381 2643 2742 
Q 2381 3103 1925 3103 
Q 1469 3103 1208 2742 
Q 947 2381 947 1747 
z
" transform="scale(0.015625)"/>
      <path id="DejaVuSans-69" d="M 603 3500 
L 1178 3500 
L 1178 0 
L 603 0 
L 603 3500 
z
M 603 4863 
L 1178 4863 
L 1178 4134 
L 603 4134 
L 603 4863 
z
" transform="scale(0.015625)"/>
      <path id="DejaVuSans-2d" d="M 313 2009 
L 1997 2009 
L 1997 1497 
L 313 1497 
L 313 2009 
z
" transform="scale(0.015625)"/>
      <path id="DejaVuSans-62" d="M 3116 1747 
Q 3116 2381 2855 2742 
Q 2594 3103 2138 3103 
Q 1681 3103 1420 2742 
Q 1159 2381 1159 1747 
Q 1159 1113 1420 752 
Q 1681 391 2138 391 
Q 2594 391 2855 752 
Q 3116 1113 3116 1747 
z
M 1159 2969 
Q 1341 3281 1617 3432 
Q 1894 3584 2278 3584 
Q 2916 3584 3314 3078 
Q 3713 2572 3713 1747 
Q 3713 922 3314 415 
Q 2916 -91 2278 -91 
Q 1894 -91 1617 61 
Q 1341 213 1159 525 
L 1159 0 
L 581 0 
L 581 4863 
L 1159 4863 
L 1159 2969 
z
" transform="scale(0.015625)"/>
      <path id="DejaVuSans-76" d="M 191 3500 
L 800 3500 
L 1894 563 
L 2988 3500 
L 3597 3500 
L 2284 0 
L 1503 0 
L 191 3500 
z
" transform="scale(0.015625)"/>
     </defs>
     <use xlink:href="#DejaVuSans-64"/>
     <use xlink:href="#DejaVuSans-69" x="63.476562"/>
     <use xlink:href="#DejaVuSans-73" x="91.259766"/>
     <use xlink:href="#DejaVuSans-74" x="143.359375"/>
     <use xlink:href="#DejaVuSans-69" x="182.568359"/>
     <use xlink:href="#DejaVuSans-6c" x="210.351562"/>
     <use xlink:href="#DejaVuSans-75" x="238.134766"/>
     <use xlink:href="#DejaVuSans-73" x="301.513672"/>
     <use xlink:href="#DejaVuSans-65" x="353.613281"/>
     <use xlink:href="#DejaVuSans-2d" x="415.136719"/>
     <use xlink:href="#DejaVuSans-62" x="451.220703"/>
     <use xlink:href="#DejaVuSans-61" x="514.697266"/>
     <use xlink:href="#DejaVuSans-73" x="575.976562"/>
     <use xlink:href="#DejaVuSans-65" x="628.076172"/>
     <use xlink:href="#DejaVuSans-2d" x="689.599609"/>
     <use xlink:href="#DejaVuSans-6d" x="725.683594"/>
     <use xlink:href="#DejaVuSans-75" x="823.095703"/>
     <use xlink:href="#DejaVuSans-6c" x="886.474609"/>
     <use xlink:href="#DejaVuSans-74" x="914.257812"/>
     <use xlink:href="#DejaVuSans-69" x="953.466797"/>
     <use xlink:href="#DejaVuSans-6c" x="981.25"/>
     <use xlink:href="#DejaVuSans-69" x="1009.033203"/>
     <use xlink:href="#DejaVuSans-6e" x="1036.816406"/>
     <use xlink:href="#DejaVuSans-67" x="1100.195312"/>
     <use xlink:href="#DejaVuSans-75" x="1163.671875"/>
     <use xlink:href="#DejaVuSans-61" x="1227.050781"/>
     <use xlink:href="#DejaVuSans-6c" x="1288.330078"/>
     <use xlink:href="#DejaVuSans-2d" x="1316.113281"/>
     <use xlink:href="#DejaVuSans-63" x="1352.197266"/>
     <use xlink:href="#DejaVuSans-61" x="1407.177734"/>
     <use xlink:href="#DejaVuSans-73" x="1468.457031"/>
     <use xlink:href="#DejaVuSans-65" x="1520.556641"/>
     <use xlink:href="#DejaVuSans-64" x="1582.080078"/>
     <use xlink:href="#DejaVuSans-2d" x="1645.556641"/>
     <use xlink:href="#DejaVuSans-76" x="1679.015625"/>
     <use xlink:href="#DejaVuSans-32" x="1738.195312"/>
    </g>
   </g>
   <g id="legend_1">
    <g id="patch_27">
     <path d="M 330.912549 75.443125 
L 484.503487 75.443125 
Q 487.103487 75.443125 487.103487 72.843125 
L 487.103487 35.98 
Q 487.103487 33.38 484.503487 33.38 
L 330.912549 33.38 
Q 328.312549 33.38 328.312549 35.98 
L 328.312549 72.843125 
Q 328.312549 75.443125 330.912549 75.443125 
z
" style="fill: #ffffff; opacity: 0.8; stroke: #cccccc; stroke-linejoin: miter"/>
    </g>
    <g id="patch_28">
     <path d="M 333.512549 48.457969 
L 359.512549 48.457969 
L 359.512549 39.357969 
L 333.512549 39.357969 
z
" style="fill: #dc143c"/>
    </g>
    <g id="text_35">
     <!-- 5g -->
     <g transform="translate(369.912549 48.457969)scale(0.13 -0.13)">
      <use xlink:href="#DejaVuSans-35"/>
      <use xlink:href="#DejaVuSans-67" x="63.623047"/>
     </g>
    </g>
    <g id="patch_29">
     <path d="M 333.512549 67.539531 
L 359.512549 67.539531 
L 359.512549 58.439531 
L 333.512549 58.439531 
z
" style="fill: #8b008b"/>
    </g>
    <g id="text_36">
     <!-- 10g -->
     <g transform="translate(369.912549 67.539531)scale(0.13 -0.13)">
      <use xlink:href="#DejaVuSans-31"/>
      <use xlink:href="#DejaVuSans-30" x="63.623047"/>
      <use xlink:href="#DejaVuSans-67" x="127.246094"/>
     </g>
    </g>
    <g id="patch_30">
     <path d="M 420.708018 48.457969 
L 446.708018 48.457969 
L 446.708018 39.357969 
L 420.708018 39.357969 
z
" style="fill: #6495ed"/>
    </g>
    <g id="text_37">
     <!-- 20g -->
     <g transform="translate(457.108018 48.457969)scale(0.13 -0.13)">
      <use xlink:href="#DejaVuSans-32"/>
      <use xlink:href="#DejaVuSans-30" x="63.623047"/>
      <use xlink:href="#DejaVuSans-67" x="127.246094"/>
     </g>
    </g>
    <g id="patch_31">
     <path d="M 420.708018 67.539531 
L 446.708018 67.539531 
L 446.708018 58.439531 
L 420.708018 58.439531 
z
" style="fill: #3cb371"/>
    </g>
    <g id="text_38">
     <!-- 40g -->
     <g transform="translate(457.108018 67.539531)scale(0.13 -0.13)">
      <use xlink:href="#DejaVuSans-34"/>
      <use xlink:href="#DejaVuSans-30" x="63.623047"/>
      <use xlink:href="#DejaVuSans-67" x="127.246094"/>
     </g>
    </g>
   </g>
  </g>
 </g>
 <defs>
  <clipPath id="p927c3fc742">
   <rect x="57.53" y="26.88" width="436.073487" height="336.731332"/>
  </clipPath>
 </defs>
</svg>
