<?xml version="1.0" encoding="utf-8" standalone="no"?>
<!DOCTYPE svg PUBLIC "-//W3C//DTD SVG 1.1//EN"
  "http://www.w3.org/Graphics/SVG/1.1/DTD/svg11.dtd">
<svg xmlns:xlink="http://www.w3.org/1999/xlink" width="504.403487pt" height="415.651332pt" viewBox="0 0 504.403487 415.651332" xmlns="http://www.w3.org/2000/svg" version="1.1">
 <metadata>
  <rdf:RDF xmlns:dc="http://purl.org/dc/elements/1.1/" xmlns:cc="http://creativecommons.org/ns#" xmlns:rdf="http://www.w3.org/1999/02/22-rdf-syntax-ns#">
   <cc:Work>
    <dc:type rdf:resource="http://purl.org/dc/dcmitype/StillImage"/>
    <dc:date>2022-07-09T14:16:36.582687</dc:date>
    <dc:format>image/svg+xml</dc:format>
    <dc:creator>
     <cc:Agent>
      <dc:title>Matplotlib v3.5.1, https://matplotlib.org/</dc:title>
     </cc:Agent>
    </dc:creator>
   </cc:Work>
  </rdf:RDF>
 </metadata>
 <defs>
  <style type="text/css">*{stroke-linejoin: round; stroke-linecap: butt}</style>
 </defs>
 <g id="figure_1">
  <g id="patch_1">
   <path d="M 0 415.651332 
L 504.403487 415.651332 
L 504.403487 0 
L 0 0 
z
" style="fill: #ffffff"/>
  </g>
  <g id="axes_1">
   <g id="patch_2">
    <path d="M 70.31 363.611332 
L 493.603487 363.611332 
L 493.603487 26.88 
L 70.31 26.88 
z
" style="fill: #ffffff"/>
   </g>
   <g id="patch_3">
    <path d="M 99.502654 363.611332 
L 105.758223 363.611332 
L 105.758223 359.142489 
L 99.502654 359.142489 
z
" clip-path="url(#pa208d9b718)" style="fill: #dc143c"/>
   </g>
   <g id="patch_4">
    <path d="M 141.206446 363.611332 
L 147.462015 363.611332 
L 147.462015 354.653481 
L 141.206446 354.653481 
z
" clip-path="url(#pa208d9b718)" style="fill: #dc143c"/>
   </g>
   <g id="patch_5">
    <path d="M 182.910238 363.611332 
L 189.165807 363.611332 
L 189.165807 346.653329 
L 182.910238 346.653329 
z
" clip-path="url(#pa208d9b718)" style="fill: #dc143c"/>
   </g>
   <g id="patch_6">
    <path d="M 224.61403 363.611332 
L 230.869598 363.611332 
L 230.869598 336.511986 
L 224.61403 336.511986 
z
" clip-path="url(#pa208d9b718)" style="fill: #dc143c"/>
   </g>
   <g id="patch_7">
    <path d="M 266.317822 363.611332 
L 272.57339 363.611332 
L 272.57339 333.936383 
L 266.317822 333.936383 
z
" clip-path="url(#pa208d9b718)" style="fill: #dc143c"/>
   </g>
   <g id="patch_8">
    <path d="M 308.021613 363.611332 
L 314.277182 363.611332 
L 314.277182 333.585119 
L 308.021613 333.585119 
z
" clip-path="url(#pa208d9b718)" style="fill: #dc143c"/>
   </g>
   <g id="patch_9">
    <path d="M 349.725405 363.611332 
L 355.980974 363.611332 
L 355.980974 332.258731 
L 349.725405 332.258731 
z
" clip-path="url(#pa208d9b718)" style="fill: #dc143c"/>
   </g>
   <g id="patch_10">
    <path d="M 391.429197 363.611332 
L 397.684766 363.611332 
L 397.684766 331.923151 
L 391.429197 331.923151 
z
" clip-path="url(#pa208d9b718)" style="fill: #dc143c"/>
   </g>
   <g id="patch_11">
    <path d="M 433.132989 363.611332 
L 439.388558 363.611332 
L 439.388558 331.695862 
L 433.132989 331.695862 
z
" clip-path="url(#pa208d9b718)" style="fill: #dc143c"/>
   </g>
   <g id="patch_12">
    <path d="M 107.843413 363.611332 
L 114.098981 363.611332 
L 114.098981 359.169126 
L 107.843413 359.169126 
z
" clip-path="url(#pa208d9b718)" style="fill: #8b008b"/>
   </g>
   <g id="patch_13">
    <path d="M 149.547204 363.611332 
L 155.802773 363.611332 
L 155.802773 354.628089 
L 149.547204 354.628089 
z
" clip-path="url(#pa208d9b718)" style="fill: #8b008b"/>
   </g>
   <g id="patch_14">
    <path d="M 191.250996 363.611332 
L 197.506565 363.611332 
L 197.506565 345.790978 
L 191.250996 345.790978 
z
" clip-path="url(#pa208d9b718)" style="fill: #8b008b"/>
   </g>
   <g id="patch_15">
    <path d="M 232.954788 363.611332 
L 239.210357 363.611332 
L 239.210357 327.650727 
L 232.954788 327.650727 
z
" clip-path="url(#pa208d9b718)" style="fill: #8b008b"/>
   </g>
   <g id="patch_16">
    <path d="M 274.65858 363.611332 
L 280.914149 363.611332 
L 280.914149 301.392821 
L 274.65858 301.392821 
z
" clip-path="url(#pa208d9b718)" style="fill: #8b008b"/>
   </g>
   <g id="patch_17">
    <path d="M 316.362372 363.611332 
L 322.61794 363.611332 
L 322.61794 298.525701 
L 316.362372 298.525701 
z
" clip-path="url(#pa208d9b718)" style="fill: #8b008b"/>
   </g>
   <g id="patch_18">
    <path d="M 358.066164 363.611332 
L 364.321732 363.611332 
L 364.321732 299.613847 
L 358.066164 299.613847 
z
" clip-path="url(#pa208d9b718)" style="fill: #8b008b"/>
   </g>
   <g id="patch_19">
    <path d="M 399.769955 363.611332 
L 406.025524 363.611332 
L 406.025524 297.273748 
L 399.769955 297.273748 
z
" clip-path="url(#pa208d9b718)" style="fill: #8b008b"/>
   </g>
   <g id="patch_20">
    <path d="M 441.473747 363.611332 
L 447.729316 363.611332 
L 447.729316 296.468156 
L 441.473747 296.468156 
z
" clip-path="url(#pa208d9b718)" style="fill: #8b008b"/>
   </g>
   <g id="patch_21">
    <path d="M 116.184171 363.611332 
L 122.43974 363.611332 
L 122.43974 359.220658 
L 116.184171 359.220658 
z
" clip-path="url(#pa208d9b718)" style="fill: #6495ed"/>
   </g>
   <g id="patch_22">
    <path d="M 157.887963 363.611332 
L 164.143532 363.611332 
L 164.143532 354.824757 
L 157.887963 354.824757 
z
" clip-path="url(#pa208d9b718)" style="fill: #6495ed"/>
   </g>
   <g id="patch_23">
    <path d="M 199.591755 363.611332 
L 205.847323 363.611332 
L 205.847323 346.89904 
L 199.591755 346.89904 
z
" clip-path="url(#pa208d9b718)" style="fill: #6495ed"/>
   </g>
   <g id="patch_24">
    <path d="M 241.295546 363.611332 
L 247.551115 363.611332 
L 247.551115 327.607161 
L 241.295546 327.607161 
z
" clip-path="url(#pa208d9b718)" style="fill: #6495ed"/>
   </g>
   <g id="patch_25">
    <path d="M 282.999338 363.611332 
L 289.254907 363.611332 
L 289.254907 293.046134 
L 282.999338 293.046134 
z
" clip-path="url(#pa208d9b718)" style="fill: #6495ed"/>
   </g>
   <g id="patch_26">
    <path d="M 324.70313 363.611332 
L 330.958699 363.611332 
L 330.958699 262.006459 
L 324.70313 262.006459 
z
" clip-path="url(#pa208d9b718)" style="fill: #6495ed"/>
   </g>
   <g id="patch_27">
    <path d="M 366.406922 363.611332 
L 372.662491 363.611332 
L 372.662491 253.666744 
L 366.406922 253.666744 
z
" clip-path="url(#pa208d9b718)" style="fill: #6495ed"/>
   </g>
   <g id="patch_28">
    <path d="M 408.110714 363.611332 
L 414.366282 363.611332 
L 414.366282 255.067318 
L 408.110714 255.067318 
z
" clip-path="url(#pa208d9b718)" style="fill: #6495ed"/>
   </g>
   <g id="patch_29">
    <path d="M 449.814506 363.611332 
L 456.070074 363.611332 
L 456.070074 251.958969 
L 449.814506 251.958969 
z
" clip-path="url(#pa208d9b718)" style="fill: #6495ed"/>
   </g>
   <g id="patch_30">
    <path d="M 124.524929 363.611332 
L 130.780498 363.611332 
L 130.780498 359.107388 
L 124.524929 359.107388 
z
" clip-path="url(#pa208d9b718)" style="fill: #3cb371"/>
   </g>
   <g id="patch_31">
    <path d="M 166.228721 363.611332 
L 172.48429 363.611332 
L 172.48429 354.821023 
L 166.228721 354.821023 
z
" clip-path="url(#pa208d9b718)" style="fill: #3cb371"/>
   </g>
   <g id="patch_32">
    <path d="M 207.932513 363.611332 
L 214.188082 363.611332 
L 214.188082 346.04341 
L 207.932513 346.04341 
z
" clip-path="url(#pa208d9b718)" style="fill: #3cb371"/>
   </g>
   <g id="patch_33">
    <path d="M 249.636305 363.611332 
L 255.891874 363.611332 
L 255.891874 326.400267 
L 249.636305 326.400267 
z
" clip-path="url(#pa208d9b718)" style="fill: #3cb371"/>
   </g>
   <g id="patch_34">
    <path d="M 291.340097 363.611332 
L 297.595665 363.611332 
L 297.595665 290.080183 
L 291.340097 290.080183 
z
" clip-path="url(#pa208d9b718)" style="fill: #3cb371"/>
   </g>
   <g id="patch_35">
    <path d="M 333.043888 363.611332 
L 339.299457 363.611332 
L 339.299457 217.033733 
L 333.043888 217.033733 
z
" clip-path="url(#pa208d9b718)" style="fill: #3cb371"/>
   </g>
   <g id="patch_36">
    <path d="M 374.74768 363.611332 
L 381.003249 363.611332 
L 381.003249 127.201801 
L 374.74768 127.201801 
z
" clip-path="url(#pa208d9b718)" style="fill: #3cb371"/>
   </g>
   <g id="patch_37">
    <path d="M 416.451472 363.611332 
L 422.707041 363.611332 
L 422.707041 124.980947 
L 416.451472 124.980947 
z
" clip-path="url(#pa208d9b718)" style="fill: #3cb371"/>
   </g>
   <g id="patch_38">
    <path d="M 458.155264 363.611332 
L 464.410833 363.611332 
L 464.410833 123.088952 
L 458.155264 123.088952 
z
" clip-path="url(#pa208d9b718)" style="fill: #3cb371"/>
   </g>
   <g id="matplotlib.axis_1">
    <g id="xtick_1">
     <g id="line2d_1">
      <defs>
       <path id="mcdd233eaae" d="M 0 0 
L 0 3.5 
" style="stroke: #000000; stroke-width: 0.8"/>
      </defs>
      <g>
       <use xlink:href="#mcdd233eaae" x="115.141576" y="363.611332" style="stroke: #000000; stroke-width: 0.8"/>
      </g>
     </g>
     <g id="text_1">
      <!-- 1 -->
      <g transform="translate(110.687826 381.249144)scale(0.14 -0.14)">
       <defs>
        <path id="DejaVuSans-31" d="M 794 531 
L 1825 531 
L 1825 4091 
L 703 3866 
L 703 4441 
L 1819 4666 
L 2450 4666 
L 2450 531 
L 3481 531 
L 3481 0 
L 794 0 
L 794 531 
z
" transform="scale(0.015625)"/>
       </defs>
       <use xlink:href="#DejaVuSans-31"/>
      </g>
     </g>
    </g>
    <g id="xtick_2">
     <g id="line2d_2">
      <g>
       <use xlink:href="#mcdd233eaae" x="156.845368" y="363.611332" style="stroke: #000000; stroke-width: 0.8"/>
      </g>
     </g>
     <g id="text_2">
      <!-- 2 -->
      <g transform="translate(152.391618 381.249144)scale(0.14 -0.14)">
       <defs>
        <path id="DejaVuSans-32" d="M 1228 531 
L 3431 531 
L 3431 0 
L 469 0 
L 469 531 
Q 828 903 1448 1529 
Q 2069 2156 2228 2338 
Q 2531 2678 2651 2914 
Q 2772 3150 2772 3378 
Q 2772 3750 2511 3984 
Q 2250 4219 1831 4219 
Q 1534 4219 1204 4116 
Q 875 4013 500 3803 
L 500 4441 
Q 881 4594 1212 4672 
Q 1544 4750 1819 4750 
Q 2544 4750 2975 4387 
Q 3406 4025 3406 3419 
Q 3406 3131 3298 2873 
Q 3191 2616 2906 2266 
Q 2828 2175 2409 1742 
Q 1991 1309 1228 531 
z
" transform="scale(0.015625)"/>
       </defs>
       <use xlink:href="#DejaVuSans-32"/>
      </g>
     </g>
    </g>
    <g id="xtick_3">
     <g id="line2d_3">
      <g>
       <use xlink:href="#mcdd233eaae" x="198.54916" y="363.611332" style="stroke: #000000; stroke-width: 0.8"/>
      </g>
     </g>
     <g id="text_3">
      <!-- 4 -->
      <g transform="translate(194.09541 381.249144)scale(0.14 -0.14)">
       <defs>
        <path id="DejaVuSans-34" d="M 2419 4116 
L 825 1625 
L 2419 1625 
L 2419 4116 
z
M 2253 4666 
L 3047 4666 
L 3047 1625 
L 3713 1625 
L 3713 1100 
L 3047 1100 
L 3047 0 
L 2419 0 
L 2419 1100 
L 313 1100 
L 313 1709 
L 2253 4666 
z
" transform="scale(0.015625)"/>
       </defs>
       <use xlink:href="#DejaVuSans-34"/>
      </g>
     </g>
    </g>
    <g id="xtick_4">
     <g id="line2d_4">
      <g>
       <use xlink:href="#mcdd233eaae" x="240.252952" y="363.611332" style="stroke: #000000; stroke-width: 0.8"/>
      </g>
     </g>
     <g id="text_4">
      <!-- 8 -->
      <g transform="translate(235.799202 381.249144)scale(0.14 -0.14)">
       <defs>
        <path id="DejaVuSans-38" d="M 2034 2216 
Q 1584 2216 1326 1975 
Q 1069 1734 1069 1313 
Q 1069 891 1326 650 
Q 1584 409 2034 409 
Q 2484 409 2743 651 
Q 3003 894 3003 1313 
Q 3003 1734 2745 1975 
Q 2488 2216 2034 2216 
z
M 1403 2484 
Q 997 2584 770 2862 
Q 544 3141 544 3541 
Q 544 4100 942 4425 
Q 1341 4750 2034 4750 
Q 2731 4750 3128 4425 
Q 3525 4100 3525 3541 
Q 3525 3141 3298 2862 
Q 3072 2584 2669 2484 
Q 3125 2378 3379 2068 
Q 3634 1759 3634 1313 
Q 3634 634 3220 271 
Q 2806 -91 2034 -91 
Q 1263 -91 848 271 
Q 434 634 434 1313 
Q 434 1759 690 2068 
Q 947 2378 1403 2484 
z
M 1172 3481 
Q 1172 3119 1398 2916 
Q 1625 2713 2034 2713 
Q 2441 2713 2670 2916 
Q 2900 3119 2900 3481 
Q 2900 3844 2670 4047 
Q 2441 4250 2034 4250 
Q 1625 4250 1398 4047 
Q 1172 3844 1172 3481 
z
" transform="scale(0.015625)"/>
       </defs>
       <use xlink:href="#DejaVuSans-38"/>
      </g>
     </g>
    </g>
    <g id="xtick_5">
     <g id="line2d_5">
      <g>
       <use xlink:href="#mcdd233eaae" x="281.956743" y="363.611332" style="stroke: #000000; stroke-width: 0.8"/>
      </g>
     </g>
     <g id="text_5">
      <!-- 16 -->
      <g transform="translate(273.049243 381.249144)scale(0.14 -0.14)">
       <defs>
        <path id="DejaVuSans-36" d="M 2113 2584 
Q 1688 2584 1439 2293 
Q 1191 2003 1191 1497 
Q 1191 994 1439 701 
Q 1688 409 2113 409 
Q 2538 409 2786 701 
Q 3034 994 3034 1497 
Q 3034 2003 2786 2293 
Q 2538 2584 2113 2584 
z
M 3366 4563 
L 3366 3988 
Q 3128 4100 2886 4159 
Q 2644 4219 2406 4219 
Q 1781 4219 1451 3797 
Q 1122 3375 1075 2522 
Q 1259 2794 1537 2939 
Q 1816 3084 2150 3084 
Q 2853 3084 3261 2657 
Q 3669 2231 3669 1497 
Q 3669 778 3244 343 
Q 2819 -91 2113 -91 
Q 1303 -91 875 529 
Q 447 1150 447 2328 
Q 447 3434 972 4092 
Q 1497 4750 2381 4750 
Q 2619 4750 2861 4703 
Q 3103 4656 3366 4563 
z
" transform="scale(0.015625)"/>
       </defs>
       <use xlink:href="#DejaVuSans-31"/>
       <use xlink:href="#DejaVuSans-36" x="63.623047"/>
      </g>
     </g>
    </g>
    <g id="xtick_6">
     <g id="line2d_6">
      <g>
       <use xlink:href="#mcdd233eaae" x="323.660535" y="363.611332" style="stroke: #000000; stroke-width: 0.8"/>
      </g>
     </g>
     <g id="text_6">
      <!-- 32 -->
      <g transform="translate(314.753035 381.249144)scale(0.14 -0.14)">
       <defs>
        <path id="DejaVuSans-33" d="M 2597 2516 
Q 3050 2419 3304 2112 
Q 3559 1806 3559 1356 
Q 3559 666 3084 287 
Q 2609 -91 1734 -91 
Q 1441 -91 1130 -33 
Q 819 25 488 141 
L 488 750 
Q 750 597 1062 519 
Q 1375 441 1716 441 
Q 2309 441 2620 675 
Q 2931 909 2931 1356 
Q 2931 1769 2642 2001 
Q 2353 2234 1838 2234 
L 1294 2234 
L 1294 2753 
L 1863 2753 
Q 2328 2753 2575 2939 
Q 2822 3125 2822 3475 
Q 2822 3834 2567 4026 
Q 2313 4219 1838 4219 
Q 1578 4219 1281 4162 
Q 984 4106 628 3988 
L 628 4550 
Q 988 4650 1302 4700 
Q 1616 4750 1894 4750 
Q 2613 4750 3031 4423 
Q 3450 4097 3450 3541 
Q 3450 3153 3228 2886 
Q 3006 2619 2597 2516 
z
" transform="scale(0.015625)"/>
       </defs>
       <use xlink:href="#DejaVuSans-33"/>
       <use xlink:href="#DejaVuSans-32" x="63.623047"/>
      </g>
     </g>
    </g>
    <g id="xtick_7">
     <g id="line2d_7">
      <g>
       <use xlink:href="#mcdd233eaae" x="365.364327" y="363.611332" style="stroke: #000000; stroke-width: 0.8"/>
      </g>
     </g>
     <g id="text_7">
      <!-- 64 -->
      <g transform="translate(356.456827 381.249144)scale(0.14 -0.14)">
       <use xlink:href="#DejaVuSans-36"/>
       <use xlink:href="#DejaVuSans-34" x="63.623047"/>
      </g>
     </g>
    </g>
    <g id="xtick_8">
     <g id="line2d_8">
      <g>
       <use xlink:href="#mcdd233eaae" x="407.068119" y="363.611332" style="stroke: #000000; stroke-width: 0.8"/>
      </g>
     </g>
     <g id="text_8">
      <!-- 128 -->
      <g transform="translate(393.706869 381.249144)scale(0.14 -0.14)">
       <use xlink:href="#DejaVuSans-31"/>
       <use xlink:href="#DejaVuSans-32" x="63.623047"/>
       <use xlink:href="#DejaVuSans-38" x="127.246094"/>
      </g>
     </g>
    </g>
    <g id="xtick_9">
     <g id="line2d_9">
      <g>
       <use xlink:href="#mcdd233eaae" x="448.771911" y="363.611332" style="stroke: #000000; stroke-width: 0.8"/>
      </g>
     </g>
     <g id="text_9">
      <!-- 256 -->
      <g transform="translate(435.410661 381.249144)scale(0.14 -0.14)">
       <defs>
        <path id="DejaVuSans-35" d="M 691 4666 
L 3169 4666 
L 3169 4134 
L 1269 4134 
L 1269 2991 
Q 1406 3038 1543 3061 
Q 1681 3084 1819 3084 
Q 2600 3084 3056 2656 
Q 3513 2228 3513 1497 
Q 3513 744 3044 326 
Q 2575 -91 1722 -91 
Q 1428 -91 1123 -41 
Q 819 9 494 109 
L 494 744 
Q 775 591 1075 516 
Q 1375 441 1709 441 
Q 2250 441 2565 725 
Q 2881 1009 2881 1497 
Q 2881 1984 2565 2268 
Q 2250 2553 1709 2553 
Q 1456 2553 1204 2497 
Q 953 2441 691 2322 
L 691 4666 
z
" transform="scale(0.015625)"/>
       </defs>
       <use xlink:href="#DejaVuSans-32"/>
       <use xlink:href="#DejaVuSans-35" x="63.623047"/>
       <use xlink:href="#DejaVuSans-36" x="127.246094"/>
      </g>
     </g>
    </g>
    <g id="text_10">
     <!-- batch size -->
     <g transform="translate(241.316743 400.318207)scale(0.16 -0.16)">
      <defs>
       <path id="DejaVuSans-62" d="M 3116 1747 
Q 3116 2381 2855 2742 
Q 2594 3103 2138 3103 
Q 1681 3103 1420 2742 
Q 1159 2381 1159 1747 
Q 1159 1113 1420 752 
Q 1681 391 2138 391 
Q 2594 391 2855 752 
Q 3116 1113 3116 1747 
z
M 1159 2969 
Q 1341 3281 1617 3432 
Q 1894 3584 2278 3584 
Q 2916 3584 3314 3078 
Q 3713 2572 3713 1747 
Q 3713 922 3314 415 
Q 2916 -91 2278 -91 
Q 1894 -91 1617 61 
Q 1341 213 1159 525 
L 1159 0 
L 581 0 
L 581 4863 
L 1159 4863 
L 1159 2969 
z
" transform="scale(0.015625)"/>
       <path id="DejaVuSans-61" d="M 2194 1759 
Q 1497 1759 1228 1600 
Q 959 1441 959 1056 
Q 959 750 1161 570 
Q 1363 391 1709 391 
Q 2188 391 2477 730 
Q 2766 1069 2766 1631 
L 2766 1759 
L 2194 1759 
z
M 3341 1997 
L 3341 0 
L 2766 0 
L 2766 531 
Q 2569 213 2275 61 
Q 1981 -91 1556 -91 
Q 1019 -91 701 211 
Q 384 513 384 1019 
Q 384 1609 779 1909 
Q 1175 2209 1959 2209 
L 2766 2209 
L 2766 2266 
Q 2766 2663 2505 2880 
Q 2244 3097 1772 3097 
Q 1472 3097 1187 3025 
Q 903 2953 641 2809 
L 641 3341 
Q 956 3463 1253 3523 
Q 1550 3584 1831 3584 
Q 2591 3584 2966 3190 
Q 3341 2797 3341 1997 
z
" transform="scale(0.015625)"/>
       <path id="DejaVuSans-74" d="M 1172 4494 
L 1172 3500 
L 2356 3500 
L 2356 3053 
L 1172 3053 
L 1172 1153 
Q 1172 725 1289 603 
Q 1406 481 1766 481 
L 2356 481 
L 2356 0 
L 1766 0 
Q 1100 0 847 248 
Q 594 497 594 1153 
L 594 3053 
L 172 3053 
L 172 3500 
L 594 3500 
L 594 4494 
L 1172 4494 
z
" transform="scale(0.015625)"/>
       <path id="DejaVuSans-63" d="M 3122 3366 
L 3122 2828 
Q 2878 2963 2633 3030 
Q 2388 3097 2138 3097 
Q 1578 3097 1268 2742 
Q 959 2388 959 1747 
Q 959 1106 1268 751 
Q 1578 397 2138 397 
Q 2388 397 2633 464 
Q 2878 531 3122 666 
L 3122 134 
Q 2881 22 2623 -34 
Q 2366 -91 2075 -91 
Q 1284 -91 818 406 
Q 353 903 353 1747 
Q 353 2603 823 3093 
Q 1294 3584 2113 3584 
Q 2378 3584 2631 3529 
Q 2884 3475 3122 3366 
z
" transform="scale(0.015625)"/>
       <path id="DejaVuSans-68" d="M 3513 2113 
L 3513 0 
L 2938 0 
L 2938 2094 
Q 2938 2591 2744 2837 
Q 2550 3084 2163 3084 
Q 1697 3084 1428 2787 
Q 1159 2491 1159 1978 
L 1159 0 
L 581 0 
L 581 4863 
L 1159 4863 
L 1159 2956 
Q 1366 3272 1645 3428 
Q 1925 3584 2291 3584 
Q 2894 3584 3203 3211 
Q 3513 2838 3513 2113 
z
" transform="scale(0.015625)"/>
       <path id="DejaVuSans-20" transform="scale(0.015625)"/>
       <path id="DejaVuSans-73" d="M 2834 3397 
L 2834 2853 
Q 2591 2978 2328 3040 
Q 2066 3103 1784 3103 
Q 1356 3103 1142 2972 
Q 928 2841 928 2578 
Q 928 2378 1081 2264 
Q 1234 2150 1697 2047 
L 1894 2003 
Q 2506 1872 2764 1633 
Q 3022 1394 3022 966 
Q 3022 478 2636 193 
Q 2250 -91 1575 -91 
Q 1294 -91 989 -36 
Q 684 19 347 128 
L 347 722 
Q 666 556 975 473 
Q 1284 391 1588 391 
Q 1994 391 2212 530 
Q 2431 669 2431 922 
Q 2431 1156 2273 1281 
Q 2116 1406 1581 1522 
L 1381 1569 
Q 847 1681 609 1914 
Q 372 2147 372 2553 
Q 372 3047 722 3315 
Q 1072 3584 1716 3584 
Q 2034 3584 2315 3537 
Q 2597 3491 2834 3397 
z
" transform="scale(0.015625)"/>
       <path id="DejaVuSans-69" d="M 603 3500 
L 1178 3500 
L 1178 0 
L 603 0 
L 603 3500 
z
M 603 4863 
L 1178 4863 
L 1178 4134 
L 603 4134 
L 603 4863 
z
" transform="scale(0.015625)"/>
       <path id="DejaVuSans-7a" d="M 353 3500 
L 3084 3500 
L 3084 2975 
L 922 459 
L 3084 459 
L 3084 0 
L 275 0 
L 275 525 
L 2438 3041 
L 353 3041 
L 353 3500 
z
" transform="scale(0.015625)"/>
       <path id="DejaVuSans-65" d="M 3597 1894 
L 3597 1613 
L 953 1613 
Q 991 1019 1311 708 
Q 1631 397 2203 397 
Q 2534 397 2845 478 
Q 3156 559 3463 722 
L 3463 178 
Q 3153 47 2828 -22 
Q 2503 -91 2169 -91 
Q 1331 -91 842 396 
Q 353 884 353 1716 
Q 353 2575 817 3079 
Q 1281 3584 2069 3584 
Q 2775 3584 3186 3129 
Q 3597 2675 3597 1894 
z
M 3022 2063 
Q 3016 2534 2758 2815 
Q 2500 3097 2075 3097 
Q 1594 3097 1305 2825 
Q 1016 2553 972 2059 
L 3022 2063 
z
" transform="scale(0.015625)"/>
      </defs>
      <use xlink:href="#DejaVuSans-62"/>
      <use xlink:href="#DejaVuSans-61" x="63.476562"/>
      <use xlink:href="#DejaVuSans-74" x="124.755859"/>
      <use xlink:href="#DejaVuSans-63" x="163.964844"/>
      <use xlink:href="#DejaVuSans-68" x="218.945312"/>
      <use xlink:href="#DejaVuSans-20" x="282.324219"/>
      <use xlink:href="#DejaVuSans-73" x="314.111328"/>
      <use xlink:href="#DejaVuSans-69" x="366.210938"/>
      <use xlink:href="#DejaVuSans-7a" x="393.994141"/>
      <use xlink:href="#DejaVuSans-65" x="446.484375"/>
     </g>
    </g>
   </g>
   <g id="matplotlib.axis_2">
    <g id="ytick_1">
     <g id="line2d_10">
      <defs>
       <path id="mb296ff9b51" d="M 0 0 
L -3.5 0 
" style="stroke: #000000; stroke-width: 0.8"/>
      </defs>
      <g>
       <use xlink:href="#mb296ff9b51" x="70.31" y="363.611332" style="stroke: #000000; stroke-width: 0.8"/>
      </g>
     </g>
    </g>
    <g id="ytick_2">
     <g id="line2d_11">
      <g>
       <use xlink:href="#mb296ff9b51" x="70.31" y="313.821984" style="stroke: #000000; stroke-width: 0.8"/>
      </g>
     </g>
    </g>
    <g id="ytick_3">
     <g id="line2d_12">
      <g>
       <use xlink:href="#mb296ff9b51" x="70.31" y="264.032637" style="stroke: #000000; stroke-width: 0.8"/>
      </g>
     </g>
     <g id="text_11">
      <!-- 4000 -->
      <g transform="translate(37.86 267.831856)scale(0.1 -0.1)">
       <defs>
        <path id="DejaVuSans-30" d="M 2034 4250 
Q 1547 4250 1301 3770 
Q 1056 3291 1056 2328 
Q 1056 1369 1301 889 
Q 1547 409 2034 409 
Q 2525 409 2770 889 
Q 3016 1369 3016 2328 
Q 3016 3291 2770 3770 
Q 2525 4250 2034 4250 
z
M 2034 4750 
Q 2819 4750 3233 4129 
Q 3647 3509 3647 2328 
Q 3647 1150 3233 529 
Q 2819 -91 2034 -91 
Q 1250 -91 836 529 
Q 422 1150 422 2328 
Q 422 3509 836 4129 
Q 1250 4750 2034 4750 
z
" transform="scale(0.015625)"/>
       </defs>
       <use xlink:href="#DejaVuSans-34"/>
       <use xlink:href="#DejaVuSans-30" x="63.623047"/>
       <use xlink:href="#DejaVuSans-30" x="127.246094"/>
       <use xlink:href="#DejaVuSans-30" x="190.869141"/>
      </g>
     </g>
    </g>
    <g id="ytick_4">
     <g id="line2d_13">
      <g>
       <use xlink:href="#mb296ff9b51" x="70.31" y="214.243289" style="stroke: #000000; stroke-width: 0.8"/>
      </g>
     </g>
     <g id="text_12">
      <!-- 6000 -->
      <g transform="translate(37.86 218.042508)scale(0.1 -0.1)">
       <use xlink:href="#DejaVuSans-36"/>
       <use xlink:href="#DejaVuSans-30" x="63.623047"/>
       <use xlink:href="#DejaVuSans-30" x="127.246094"/>
       <use xlink:href="#DejaVuSans-30" x="190.869141"/>
      </g>
     </g>
    </g>
    <g id="ytick_5">
     <g id="line2d_14">
      <g>
       <use xlink:href="#mb296ff9b51" x="70.31" y="164.453942" style="stroke: #000000; stroke-width: 0.8"/>
      </g>
     </g>
     <g id="text_13">
      <!-- 8000 -->
      <g transform="translate(37.86 168.253161)scale(0.1 -0.1)">
       <use xlink:href="#DejaVuSans-38"/>
       <use xlink:href="#DejaVuSans-30" x="63.623047"/>
       <use xlink:href="#DejaVuSans-30" x="127.246094"/>
       <use xlink:href="#DejaVuSans-30" x="190.869141"/>
      </g>
     </g>
    </g>
    <g id="ytick_6">
     <g id="line2d_15">
      <g>
       <use xlink:href="#mb296ff9b51" x="70.31" y="114.664594" style="stroke: #000000; stroke-width: 0.8"/>
      </g>
     </g>
     <g id="text_14">
      <!-- 10000 -->
      <g transform="translate(31.4975 118.463813)scale(0.1 -0.1)">
       <use xlink:href="#DejaVuSans-31"/>
       <use xlink:href="#DejaVuSans-30" x="63.623047"/>
       <use xlink:href="#DejaVuSans-30" x="127.246094"/>
       <use xlink:href="#DejaVuSans-30" x="190.869141"/>
       <use xlink:href="#DejaVuSans-30" x="254.492188"/>
      </g>
     </g>
    </g>
    <g id="ytick_7">
     <g id="line2d_16">
      <g>
       <use xlink:href="#mb296ff9b51" x="70.31" y="64.875247" style="stroke: #000000; stroke-width: 0.8"/>
      </g>
     </g>
     <g id="text_15">
      <!-- 12000 -->
      <g transform="translate(31.4975 68.674466)scale(0.1 -0.1)">
       <use xlink:href="#DejaVuSans-31"/>
       <use xlink:href="#DejaVuSans-32" x="63.623047"/>
       <use xlink:href="#DejaVuSans-30" x="127.246094"/>
       <use xlink:href="#DejaVuSans-30" x="190.869141"/>
       <use xlink:href="#DejaVuSans-30" x="254.492188"/>
      </g>
     </g>
    </g>
    <g id="text_16">
     <!-- throughput(/s) -->
     <g transform="translate(24.17 253.064416)rotate(-90)scale(0.16 -0.16)">
      <defs>
       <path id="DejaVuSans-72" d="M 2631 2963 
Q 2534 3019 2420 3045 
Q 2306 3072 2169 3072 
Q 1681 3072 1420 2755 
Q 1159 2438 1159 1844 
L 1159 0 
L 581 0 
L 581 3500 
L 1159 3500 
L 1159 2956 
Q 1341 3275 1631 3429 
Q 1922 3584 2338 3584 
Q 2397 3584 2469 3576 
Q 2541 3569 2628 3553 
L 2631 2963 
z
" transform="scale(0.015625)"/>
       <path id="DejaVuSans-6f" d="M 1959 3097 
Q 1497 3097 1228 2736 
Q 959 2375 959 1747 
Q 959 1119 1226 758 
Q 1494 397 1959 397 
Q 2419 397 2687 759 
Q 2956 1122 2956 1747 
Q 2956 2369 2687 2733 
Q 2419 3097 1959 3097 
z
M 1959 3584 
Q 2709 3584 3137 3096 
Q 3566 2609 3566 1747 
Q 3566 888 3137 398 
Q 2709 -91 1959 -91 
Q 1206 -91 779 398 
Q 353 888 353 1747 
Q 353 2609 779 3096 
Q 1206 3584 1959 3584 
z
" transform="scale(0.015625)"/>
       <path id="DejaVuSans-75" d="M 544 1381 
L 544 3500 
L 1119 3500 
L 1119 1403 
Q 1119 906 1312 657 
Q 1506 409 1894 409 
Q 2359 409 2629 706 
Q 2900 1003 2900 1516 
L 2900 3500 
L 3475 3500 
L 3475 0 
L 2900 0 
L 2900 538 
Q 2691 219 2414 64 
Q 2138 -91 1772 -91 
Q 1169 -91 856 284 
Q 544 659 544 1381 
z
M 1991 3584 
L 1991 3584 
z
" transform="scale(0.015625)"/>
       <path id="DejaVuSans-67" d="M 2906 1791 
Q 2906 2416 2648 2759 
Q 2391 3103 1925 3103 
Q 1463 3103 1205 2759 
Q 947 2416 947 1791 
Q 947 1169 1205 825 
Q 1463 481 1925 481 
Q 2391 481 2648 825 
Q 2906 1169 2906 1791 
z
M 3481 434 
Q 3481 -459 3084 -895 
Q 2688 -1331 1869 -1331 
Q 1566 -1331 1297 -1286 
Q 1028 -1241 775 -1147 
L 775 -588 
Q 1028 -725 1275 -790 
Q 1522 -856 1778 -856 
Q 2344 -856 2625 -561 
Q 2906 -266 2906 331 
L 2906 616 
Q 2728 306 2450 153 
Q 2172 0 1784 0 
Q 1141 0 747 490 
Q 353 981 353 1791 
Q 353 2603 747 3093 
Q 1141 3584 1784 3584 
Q 2172 3584 2450 3431 
Q 2728 3278 2906 2969 
L 2906 3500 
L 3481 3500 
L 3481 434 
z
" transform="scale(0.015625)"/>
       <path id="DejaVuSans-70" d="M 1159 525 
L 1159 -1331 
L 581 -1331 
L 581 3500 
L 1159 3500 
L 1159 2969 
Q 1341 3281 1617 3432 
Q 1894 3584 2278 3584 
Q 2916 3584 3314 3078 
Q 3713 2572 3713 1747 
Q 3713 922 3314 415 
Q 2916 -91 2278 -91 
Q 1894 -91 1617 61 
Q 1341 213 1159 525 
z
M 3116 1747 
Q 3116 2381 2855 2742 
Q 2594 3103 2138 3103 
Q 1681 3103 1420 2742 
Q 1159 2381 1159 1747 
Q 1159 1113 1420 752 
Q 1681 391 2138 391 
Q 2594 391 2855 752 
Q 3116 1113 3116 1747 
z
" transform="scale(0.015625)"/>
       <path id="DejaVuSans-28" d="M 1984 4856 
Q 1566 4138 1362 3434 
Q 1159 2731 1159 2009 
Q 1159 1288 1364 580 
Q 1569 -128 1984 -844 
L 1484 -844 
Q 1016 -109 783 600 
Q 550 1309 550 2009 
Q 550 2706 781 3412 
Q 1013 4119 1484 4856 
L 1984 4856 
z
" transform="scale(0.015625)"/>
       <path id="DejaVuSans-2f" d="M 1625 4666 
L 2156 4666 
L 531 -594 
L 0 -594 
L 1625 4666 
z
" transform="scale(0.015625)"/>
       <path id="DejaVuSans-29" d="M 513 4856 
L 1013 4856 
Q 1481 4119 1714 3412 
Q 1947 2706 1947 2009 
Q 1947 1309 1714 600 
Q 1481 -109 1013 -844 
L 513 -844 
Q 928 -128 1133 580 
Q 1338 1288 1338 2009 
Q 1338 2731 1133 3434 
Q 928 4138 513 4856 
z
" transform="scale(0.015625)"/>
      </defs>
      <use xlink:href="#DejaVuSans-74"/>
      <use xlink:href="#DejaVuSans-68" x="39.208984"/>
      <use xlink:href="#DejaVuSans-72" x="102.587891"/>
      <use xlink:href="#DejaVuSans-6f" x="141.451172"/>
      <use xlink:href="#DejaVuSans-75" x="202.632812"/>
      <use xlink:href="#DejaVuSans-67" x="266.011719"/>
      <use xlink:href="#DejaVuSans-68" x="329.488281"/>
      <use xlink:href="#DejaVuSans-70" x="392.867188"/>
      <use xlink:href="#DejaVuSans-75" x="456.34375"/>
      <use xlink:href="#DejaVuSans-74" x="519.722656"/>
      <use xlink:href="#DejaVuSans-28" x="558.931641"/>
      <use xlink:href="#DejaVuSans-2f" x="597.945312"/>
      <use xlink:href="#DejaVuSans-73" x="631.636719"/>
      <use xlink:href="#DejaVuSans-29" x="683.736328"/>
     </g>
    </g>
   </g>
   <g id="patch_39">
    <path d="M 70.31 363.611332 
L 70.31 26.88 
" style="fill: none; stroke: #000000; stroke-width: 0.8; stroke-linejoin: miter; stroke-linecap: square"/>
   </g>
   <g id="patch_40">
    <path d="M 493.603487 363.611332 
L 493.603487 26.88 
" style="fill: none; stroke: #000000; stroke-width: 0.8; stroke-linejoin: miter; stroke-linecap: square"/>
   </g>
   <g id="patch_41">
    <path d="M 70.31 363.611332 
L 493.603487 363.611332 
" style="fill: none; stroke: #000000; stroke-width: 0.8; stroke-linejoin: miter; stroke-linecap: square"/>
   </g>
   <g id="patch_42">
    <path d="M 70.31 26.88 
L 493.603487 26.88 
" style="fill: none; stroke: #000000; stroke-width: 0.8; stroke-linejoin: miter; stroke-linecap: square"/>
   </g>
   <g id="text_17">
    <!-- 180 -->
    <g transform="translate(99.481001 358.456192)scale(0.033 -0.033)">
     <use xlink:href="#DejaVuSans-31"/>
     <use xlink:href="#DejaVuSans-38" x="63.623047"/>
     <use xlink:href="#DejaVuSans-30" x="127.246094"/>
    </g>
   </g>
   <g id="text_18">
    <!-- 360 -->
    <g transform="translate(141.184793 353.967185)scale(0.033 -0.033)">
     <use xlink:href="#DejaVuSans-33"/>
     <use xlink:href="#DejaVuSans-36" x="63.623047"/>
     <use xlink:href="#DejaVuSans-30" x="127.246094"/>
    </g>
   </g>
   <g id="text_19">
    <!-- 681 -->
    <g transform="translate(182.888585 345.967032)scale(0.033 -0.033)">
     <use xlink:href="#DejaVuSans-36"/>
     <use xlink:href="#DejaVuSans-38" x="63.623047"/>
     <use xlink:href="#DejaVuSans-31" x="127.246094"/>
    </g>
   </g>
   <g id="text_20">
    <!-- 1089 -->
    <g transform="translate(223.542564 335.825689)scale(0.033 -0.033)">
     <defs>
      <path id="DejaVuSans-39" d="M 703 97 
L 703 672 
Q 941 559 1184 500 
Q 1428 441 1663 441 
Q 2288 441 2617 861 
Q 2947 1281 2994 2138 
Q 2813 1869 2534 1725 
Q 2256 1581 1919 1581 
Q 1219 1581 811 2004 
Q 403 2428 403 3163 
Q 403 3881 828 4315 
Q 1253 4750 1959 4750 
Q 2769 4750 3195 4129 
Q 3622 3509 3622 2328 
Q 3622 1225 3098 567 
Q 2575 -91 1691 -91 
Q 1453 -91 1209 -44 
Q 966 3 703 97 
z
M 1959 2075 
Q 2384 2075 2632 2365 
Q 2881 2656 2881 3163 
Q 2881 3666 2632 3958 
Q 2384 4250 1959 4250 
Q 1534 4250 1286 3958 
Q 1038 3666 1038 3163 
Q 1038 2656 1286 2365 
Q 1534 2075 1959 2075 
z
" transform="scale(0.015625)"/>
     </defs>
     <use xlink:href="#DejaVuSans-31"/>
     <use xlink:href="#DejaVuSans-30" x="63.623047"/>
     <use xlink:href="#DejaVuSans-38" x="127.246094"/>
     <use xlink:href="#DejaVuSans-39" x="190.869141"/>
    </g>
   </g>
   <g id="text_21">
    <!-- 1192 -->
    <g transform="translate(265.246356 333.250086)scale(0.033 -0.033)">
     <use xlink:href="#DejaVuSans-31"/>
     <use xlink:href="#DejaVuSans-31" x="63.623047"/>
     <use xlink:href="#DejaVuSans-39" x="127.246094"/>
     <use xlink:href="#DejaVuSans-32" x="190.869141"/>
    </g>
   </g>
   <g id="text_22">
    <!-- 1206 -->
    <g transform="translate(306.950148 332.898822)scale(0.033 -0.033)">
     <use xlink:href="#DejaVuSans-31"/>
     <use xlink:href="#DejaVuSans-32" x="63.623047"/>
     <use xlink:href="#DejaVuSans-30" x="127.246094"/>
     <use xlink:href="#DejaVuSans-36" x="190.869141"/>
    </g>
   </g>
   <g id="text_23">
    <!-- 1259 -->
    <g transform="translate(348.65394 331.572434)scale(0.033 -0.033)">
     <use xlink:href="#DejaVuSans-31"/>
     <use xlink:href="#DejaVuSans-32" x="63.623047"/>
     <use xlink:href="#DejaVuSans-35" x="127.246094"/>
     <use xlink:href="#DejaVuSans-39" x="190.869141"/>
    </g>
   </g>
   <g id="text_24">
    <!-- 1273 -->
    <g transform="translate(390.357731 331.236854)scale(0.033 -0.033)">
     <defs>
      <path id="DejaVuSans-37" d="M 525 4666 
L 3525 4666 
L 3525 4397 
L 1831 0 
L 1172 0 
L 2766 4134 
L 525 4134 
L 525 4666 
z
" transform="scale(0.015625)"/>
     </defs>
     <use xlink:href="#DejaVuSans-31"/>
     <use xlink:href="#DejaVuSans-32" x="63.623047"/>
     <use xlink:href="#DejaVuSans-37" x="127.246094"/>
     <use xlink:href="#DejaVuSans-33" x="190.869141"/>
    </g>
   </g>
   <g id="text_25">
    <!-- 1282 -->
    <g transform="translate(432.061523 331.009565)scale(0.033 -0.033)">
     <use xlink:href="#DejaVuSans-31"/>
     <use xlink:href="#DejaVuSans-32" x="63.623047"/>
     <use xlink:href="#DejaVuSans-38" x="127.246094"/>
     <use xlink:href="#DejaVuSans-32" x="190.869141"/>
    </g>
   </g>
   <g id="text_26">
    <!-- 178 -->
    <g transform="translate(107.82176 358.482829)scale(0.033 -0.033)">
     <use xlink:href="#DejaVuSans-31"/>
     <use xlink:href="#DejaVuSans-37" x="63.623047"/>
     <use xlink:href="#DejaVuSans-38" x="127.246094"/>
    </g>
   </g>
   <g id="text_27">
    <!-- 361 -->
    <g transform="translate(149.525551 353.941792)scale(0.033 -0.033)">
     <use xlink:href="#DejaVuSans-33"/>
     <use xlink:href="#DejaVuSans-36" x="63.623047"/>
     <use xlink:href="#DejaVuSans-31" x="127.246094"/>
    </g>
   </g>
   <g id="text_28">
    <!-- 716 -->
    <g transform="translate(191.229343 345.104681)scale(0.033 -0.033)">
     <use xlink:href="#DejaVuSans-37"/>
     <use xlink:href="#DejaVuSans-31" x="63.623047"/>
     <use xlink:href="#DejaVuSans-36" x="127.246094"/>
    </g>
   </g>
   <g id="text_29">
    <!-- 1445 -->
    <g transform="translate(231.883322 326.96443)scale(0.033 -0.033)">
     <use xlink:href="#DejaVuSans-31"/>
     <use xlink:href="#DejaVuSans-34" x="63.623047"/>
     <use xlink:href="#DejaVuSans-34" x="127.246094"/>
     <use xlink:href="#DejaVuSans-35" x="190.869141"/>
    </g>
   </g>
   <g id="text_30">
    <!-- 2499 -->
    <g transform="translate(273.587114 300.706524)scale(0.033 -0.033)">
     <use xlink:href="#DejaVuSans-32"/>
     <use xlink:href="#DejaVuSans-34" x="63.623047"/>
     <use xlink:href="#DejaVuSans-39" x="127.246094"/>
     <use xlink:href="#DejaVuSans-39" x="190.869141"/>
    </g>
   </g>
   <g id="text_31">
    <!-- 2614 -->
    <g transform="translate(315.290906 297.839404)scale(0.033 -0.033)">
     <use xlink:href="#DejaVuSans-32"/>
     <use xlink:href="#DejaVuSans-36" x="63.623047"/>
     <use xlink:href="#DejaVuSans-31" x="127.246094"/>
     <use xlink:href="#DejaVuSans-34" x="190.869141"/>
    </g>
   </g>
   <g id="text_32">
    <!-- 2571 -->
    <g transform="translate(356.994698 298.92755)scale(0.033 -0.033)">
     <use xlink:href="#DejaVuSans-32"/>
     <use xlink:href="#DejaVuSans-35" x="63.623047"/>
     <use xlink:href="#DejaVuSans-37" x="127.246094"/>
     <use xlink:href="#DejaVuSans-31" x="190.869141"/>
    </g>
   </g>
   <g id="text_33">
    <!-- 2665 -->
    <g transform="translate(398.69849 296.587451)scale(0.033 -0.033)">
     <use xlink:href="#DejaVuSans-32"/>
     <use xlink:href="#DejaVuSans-36" x="63.623047"/>
     <use xlink:href="#DejaVuSans-36" x="127.246094"/>
     <use xlink:href="#DejaVuSans-35" x="190.869141"/>
    </g>
   </g>
   <g id="text_34">
    <!-- 2697 -->
    <g transform="translate(440.402282 295.781859)scale(0.033 -0.033)">
     <use xlink:href="#DejaVuSans-32"/>
     <use xlink:href="#DejaVuSans-36" x="63.623047"/>
     <use xlink:href="#DejaVuSans-39" x="127.246094"/>
     <use xlink:href="#DejaVuSans-37" x="190.869141"/>
    </g>
   </g>
   <g id="text_35">
    <!-- 176 -->
    <g transform="translate(116.162518 358.534361)scale(0.033 -0.033)">
     <use xlink:href="#DejaVuSans-31"/>
     <use xlink:href="#DejaVuSans-37" x="63.623047"/>
     <use xlink:href="#DejaVuSans-36" x="127.246094"/>
    </g>
   </g>
   <g id="text_36">
    <!-- 353 -->
    <g transform="translate(157.86631 354.13846)scale(0.033 -0.033)">
     <use xlink:href="#DejaVuSans-33"/>
     <use xlink:href="#DejaVuSans-35" x="63.623047"/>
     <use xlink:href="#DejaVuSans-33" x="127.246094"/>
    </g>
   </g>
   <g id="text_37">
    <!-- 671 -->
    <g transform="translate(199.570102 346.212743)scale(0.033 -0.033)">
     <use xlink:href="#DejaVuSans-36"/>
     <use xlink:href="#DejaVuSans-37" x="63.623047"/>
     <use xlink:href="#DejaVuSans-31" x="127.246094"/>
    </g>
   </g>
   <g id="text_38">
    <!-- 1446 -->
    <g transform="translate(240.224081 326.920864)scale(0.033 -0.033)">
     <use xlink:href="#DejaVuSans-31"/>
     <use xlink:href="#DejaVuSans-34" x="63.623047"/>
     <use xlink:href="#DejaVuSans-34" x="127.246094"/>
     <use xlink:href="#DejaVuSans-36" x="190.869141"/>
    </g>
   </g>
   <g id="text_39">
    <!-- 2835 -->
    <g transform="translate(281.927873 292.359838)scale(0.033 -0.033)">
     <use xlink:href="#DejaVuSans-32"/>
     <use xlink:href="#DejaVuSans-38" x="63.623047"/>
     <use xlink:href="#DejaVuSans-33" x="127.246094"/>
     <use xlink:href="#DejaVuSans-35" x="190.869141"/>
    </g>
   </g>
   <g id="text_40">
    <!-- 4081 -->
    <g transform="translate(323.631664 261.320163)scale(0.033 -0.033)">
     <use xlink:href="#DejaVuSans-34"/>
     <use xlink:href="#DejaVuSans-30" x="63.623047"/>
     <use xlink:href="#DejaVuSans-38" x="127.246094"/>
     <use xlink:href="#DejaVuSans-31" x="190.869141"/>
    </g>
   </g>
   <g id="text_41">
    <!-- 4416 -->
    <g transform="translate(365.335456 252.980447)scale(0.033 -0.033)">
     <use xlink:href="#DejaVuSans-34"/>
     <use xlink:href="#DejaVuSans-34" x="63.623047"/>
     <use xlink:href="#DejaVuSans-31" x="127.246094"/>
     <use xlink:href="#DejaVuSans-36" x="190.869141"/>
    </g>
   </g>
   <g id="text_42">
    <!-- 4360 -->
    <g transform="translate(407.039248 254.381021)scale(0.033 -0.033)">
     <use xlink:href="#DejaVuSans-34"/>
     <use xlink:href="#DejaVuSans-33" x="63.623047"/>
     <use xlink:href="#DejaVuSans-36" x="127.246094"/>
     <use xlink:href="#DejaVuSans-30" x="190.869141"/>
    </g>
   </g>
   <g id="text_43">
    <!-- 4485 -->
    <g transform="translate(448.74304 251.272672)scale(0.033 -0.033)">
     <use xlink:href="#DejaVuSans-34"/>
     <use xlink:href="#DejaVuSans-34" x="63.623047"/>
     <use xlink:href="#DejaVuSans-38" x="127.246094"/>
     <use xlink:href="#DejaVuSans-35" x="190.869141"/>
    </g>
   </g>
   <g id="text_44">
    <!-- 181 -->
    <g transform="translate(124.503276 358.421091)scale(0.033 -0.033)">
     <use xlink:href="#DejaVuSans-31"/>
     <use xlink:href="#DejaVuSans-38" x="63.623047"/>
     <use xlink:href="#DejaVuSans-31" x="127.246094"/>
    </g>
   </g>
   <g id="text_45">
    <!-- 353 -->
    <g transform="translate(166.207068 354.134726)scale(0.033 -0.033)">
     <use xlink:href="#DejaVuSans-33"/>
     <use xlink:href="#DejaVuSans-35" x="63.623047"/>
     <use xlink:href="#DejaVuSans-33" x="127.246094"/>
    </g>
   </g>
   <g id="text_46">
    <!-- 706 -->
    <g transform="translate(207.91086 345.357113)scale(0.033 -0.033)">
     <use xlink:href="#DejaVuSans-37"/>
     <use xlink:href="#DejaVuSans-30" x="63.623047"/>
     <use xlink:href="#DejaVuSans-36" x="127.246094"/>
    </g>
   </g>
   <g id="text_47">
    <!-- 1495 -->
    <g transform="translate(248.564839 325.71397)scale(0.033 -0.033)">
     <use xlink:href="#DejaVuSans-31"/>
     <use xlink:href="#DejaVuSans-34" x="63.623047"/>
     <use xlink:href="#DejaVuSans-39" x="127.246094"/>
     <use xlink:href="#DejaVuSans-35" x="190.869141"/>
    </g>
   </g>
   <g id="text_48">
    <!-- 2954 -->
    <g transform="translate(290.268631 289.393886)scale(0.033 -0.033)">
     <use xlink:href="#DejaVuSans-32"/>
     <use xlink:href="#DejaVuSans-39" x="63.623047"/>
     <use xlink:href="#DejaVuSans-35" x="127.246094"/>
     <use xlink:href="#DejaVuSans-34" x="190.869141"/>
    </g>
   </g>
   <g id="text_49">
    <!-- 5888 -->
    <g transform="translate(331.972423 216.347437)scale(0.033 -0.033)">
     <use xlink:href="#DejaVuSans-35"/>
     <use xlink:href="#DejaVuSans-38" x="63.623047"/>
     <use xlink:href="#DejaVuSans-38" x="127.246094"/>
     <use xlink:href="#DejaVuSans-38" x="190.869141"/>
    </g>
   </g>
   <g id="text_50">
    <!-- 9496 -->
    <g transform="translate(373.676215 126.515504)scale(0.033 -0.033)">
     <use xlink:href="#DejaVuSans-39"/>
     <use xlink:href="#DejaVuSans-34" x="63.623047"/>
     <use xlink:href="#DejaVuSans-39" x="127.246094"/>
     <use xlink:href="#DejaVuSans-36" x="190.869141"/>
    </g>
   </g>
   <g id="text_51">
    <!-- 9586 -->
    <g transform="translate(415.380006 124.29465)scale(0.033 -0.033)">
     <use xlink:href="#DejaVuSans-39"/>
     <use xlink:href="#DejaVuSans-35" x="63.623047"/>
     <use xlink:href="#DejaVuSans-38" x="127.246094"/>
     <use xlink:href="#DejaVuSans-36" x="190.869141"/>
    </g>
   </g>
   <g id="text_52">
    <!-- 9662 -->
    <g transform="translate(457.083798 122.402655)scale(0.033 -0.033)">
     <use xlink:href="#DejaVuSans-39"/>
     <use xlink:href="#DejaVuSans-36" x="63.623047"/>
     <use xlink:href="#DejaVuSans-36" x="127.246094"/>
     <use xlink:href="#DejaVuSans-32" x="190.869141"/>
    </g>
   </g>
   <g id="text_53">
    <!-- distiluse-base-multilingual-cased-v1 -->
    <g transform="translate(164.839947 20.88)scale(0.13 -0.13)">
     <defs>
      <path id="DejaVuSans-64" d="M 2906 2969 
L 2906 4863 
L 3481 4863 
L 3481 0 
L 2906 0 
L 2906 525 
Q 2725 213 2448 61 
Q 2172 -91 1784 -91 
Q 1150 -91 751 415 
Q 353 922 353 1747 
Q 353 2572 751 3078 
Q 1150 3584 1784 3584 
Q 2172 3584 2448 3432 
Q 2725 3281 2906 2969 
z
M 947 1747 
Q 947 1113 1208 752 
Q 1469 391 1925 391 
Q 2381 391 2643 752 
Q 2906 1113 2906 1747 
Q 2906 2381 2643 2742 
Q 2381 3103 1925 3103 
Q 1469 3103 1208 2742 
Q 947 2381 947 1747 
z
" transform="scale(0.015625)"/>
      <path id="DejaVuSans-6c" d="M 603 4863 
L 1178 4863 
L 1178 0 
L 603 0 
L 603 4863 
z
" transform="scale(0.015625)"/>
      <path id="DejaVuSans-2d" d="M 313 2009 
L 1997 2009 
L 1997 1497 
L 313 1497 
L 313 2009 
z
" transform="scale(0.015625)"/>
      <path id="DejaVuSans-6d" d="M 3328 2828 
Q 3544 3216 3844 3400 
Q 4144 3584 4550 3584 
Q 5097 3584 5394 3201 
Q 5691 2819 5691 2113 
L 5691 0 
L 5113 0 
L 5113 2094 
Q 5113 2597 4934 2840 
Q 4756 3084 4391 3084 
Q 3944 3084 3684 2787 
Q 3425 2491 3425 1978 
L 3425 0 
L 2847 0 
L 2847 2094 
Q 2847 2600 2669 2842 
Q 2491 3084 2119 3084 
Q 1678 3084 1418 2786 
Q 1159 2488 1159 1978 
L 1159 0 
L 581 0 
L 581 3500 
L 1159 3500 
L 1159 2956 
Q 1356 3278 1631 3431 
Q 1906 3584 2284 3584 
Q 2666 3584 2933 3390 
Q 3200 3197 3328 2828 
z
" transform="scale(0.015625)"/>
      <path id="DejaVuSans-6e" d="M 3513 2113 
L 3513 0 
L 2938 0 
L 2938 2094 
Q 2938 2591 2744 2837 
Q 2550 3084 2163 3084 
Q 1697 3084 1428 2787 
Q 1159 2491 1159 1978 
L 1159 0 
L 581 0 
L 581 3500 
L 1159 3500 
L 1159 2956 
Q 1366 3272 1645 3428 
Q 1925 3584 2291 3584 
Q 2894 3584 3203 3211 
Q 3513 2838 3513 2113 
z
" transform="scale(0.015625)"/>
      <path id="DejaVuSans-76" d="M 191 3500 
L 800 3500 
L 1894 563 
L 2988 3500 
L 3597 3500 
L 2284 0 
L 1503 0 
L 191 3500 
z
" transform="scale(0.015625)"/>
     </defs>
     <use xlink:href="#DejaVuSans-64"/>
     <use xlink:href="#DejaVuSans-69" x="63.476562"/>
     <use xlink:href="#DejaVuSans-73" x="91.259766"/>
     <use xlink:href="#DejaVuSans-74" x="143.359375"/>
     <use xlink:href="#DejaVuSans-69" x="182.568359"/>
     <use xlink:href="#DejaVuSans-6c" x="210.351562"/>
     <use xlink:href="#DejaVuSans-75" x="238.134766"/>
     <use xlink:href="#DejaVuSans-73" x="301.513672"/>
     <use xlink:href="#DejaVuSans-65" x="353.613281"/>
     <use xlink:href="#DejaVuSans-2d" x="415.136719"/>
     <use xlink:href="#DejaVuSans-62" x="451.220703"/>
     <use xlink:href="#DejaVuSans-61" x="514.697266"/>
     <use xlink:href="#DejaVuSans-73" x="575.976562"/>
     <use xlink:href="#DejaVuSans-65" x="628.076172"/>
     <use xlink:href="#DejaVuSans-2d" x="689.599609"/>
     <use xlink:href="#DejaVuSans-6d" x="725.683594"/>
     <use xlink:href="#DejaVuSans-75" x="823.095703"/>
     <use xlink:href="#DejaVuSans-6c" x="886.474609"/>
     <use xlink:href="#DejaVuSans-74" x="914.257812"/>
     <use xlink:href="#DejaVuSans-69" x="953.466797"/>
     <use xlink:href="#DejaVuSans-6c" x="981.25"/>
     <use xlink:href="#DejaVuSans-69" x="1009.033203"/>
     <use xlink:href="#DejaVuSans-6e" x="1036.816406"/>
     <use xlink:href="#DejaVuSans-67" x="1100.195312"/>
     <use xlink:href="#DejaVuSans-75" x="1163.671875"/>
     <use xlink:href="#DejaVuSans-61" x="1227.050781"/>
     <use xlink:href="#DejaVuSans-6c" x="1288.330078"/>
     <use xlink:href="#DejaVuSans-2d" x="1316.113281"/>
     <use xlink:href="#DejaVuSans-63" x="1352.197266"/>
     <use xlink:href="#DejaVuSans-61" x="1407.177734"/>
     <use xlink:href="#DejaVuSans-73" x="1468.457031"/>
     <use xlink:href="#DejaVuSans-65" x="1520.556641"/>
     <use xlink:href="#DejaVuSans-64" x="1582.080078"/>
     <use xlink:href="#DejaVuSans-2d" x="1645.556641"/>
     <use xlink:href="#DejaVuSans-76" x="1679.015625"/>
     <use xlink:href="#DejaVuSans-31" x="1738.195312"/>
    </g>
   </g>
   <g id="legend_1">
    <g id="patch_43">
     <path d="M 330.912549 75.443125 
L 484.503487 75.443125 
Q 487.103487 75.443125 487.103487 72.843125 
L 487.103487 35.98 
Q 487.103487 33.38 484.503487 33.38 
L 330.912549 33.38 
Q 328.312549 33.38 328.312549 35.98 
L 328.312549 72.843125 
Q 328.312549 75.443125 330.912549 75.443125 
z
" style="fill: #ffffff; opacity: 0.8; stroke: #cccccc; stroke-linejoin: miter"/>
    </g>
    <g id="patch_44">
     <path d="M 333.512549 48.457969 
L 359.512549 48.457969 
L 359.512549 39.357969 
L 333.512549 39.357969 
z
" style="fill: #dc143c"/>
    </g>
    <g id="text_54">
     <!-- 5g -->
     <g transform="translate(369.912549 48.457969)scale(0.13 -0.13)">
      <use xlink:href="#DejaVuSans-35"/>
      <use xlink:href="#DejaVuSans-67" x="63.623047"/>
     </g>
    </g>
    <g id="patch_45">
     <path d="M 333.512549 67.539531 
L 359.512549 67.539531 
L 359.512549 58.439531 
L 333.512549 58.439531 
z
" style="fill: #8b008b"/>
    </g>
    <g id="text_55">
     <!-- 10g -->
     <g transform="translate(369.912549 67.539531)scale(0.13 -0.13)">
      <use xlink:href="#DejaVuSans-31"/>
      <use xlink:href="#DejaVuSans-30" x="63.623047"/>
      <use xlink:href="#DejaVuSans-67" x="127.246094"/>
     </g>
    </g>
    <g id="patch_46">
     <path d="M 420.708018 48.457969 
L 446.708018 48.457969 
L 446.708018 39.357969 
L 420.708018 39.357969 
z
" style="fill: #6495ed"/>
    </g>
    <g id="text_56">
     <!-- 20g -->
     <g transform="translate(457.108018 48.457969)scale(0.13 -0.13)">
      <use xlink:href="#DejaVuSans-32"/>
      <use xlink:href="#DejaVuSans-30" x="63.623047"/>
      <use xlink:href="#DejaVuSans-67" x="127.246094"/>
     </g>
    </g>
    <g id="patch_47">
     <path d="M 420.708018 67.539531 
L 446.708018 67.539531 
L 446.708018 58.439531 
L 420.708018 58.439531 
z
" style="fill: #3cb371"/>
    </g>
    <g id="text_57">
     <!-- 40g -->
     <g transform="translate(457.108018 67.539531)scale(0.13 -0.13)">
      <use xlink:href="#DejaVuSans-34"/>
      <use xlink:href="#DejaVuSans-30" x="63.623047"/>
      <use xlink:href="#DejaVuSans-67" x="127.246094"/>
     </g>
    </g>
   </g>
  </g>
 </g>
 <defs>
  <clipPath id="pa208d9b718">
   <rect x="70.31" y="26.88" width="423.293487" height="336.731332"/>
  </clipPath>
 </defs>
</svg>
