<?xml version="1.0" encoding="utf-8" standalone="no"?>
<!DOCTYPE svg PUBLIC "-//W3C//DTD SVG 1.1//EN"
  "http://www.w3.org/Graphics/SVG/1.1/DTD/svg11.dtd">
<svg xmlns:xlink="http://www.w3.org/1999/xlink" width="504.403487pt" height="415.651332pt" viewBox="0 0 504.403487 415.651332" xmlns="http://www.w3.org/2000/svg" version="1.1">
 <metadata>
  <rdf:RDF xmlns:dc="http://purl.org/dc/elements/1.1/" xmlns:cc="http://creativecommons.org/ns#" xmlns:rdf="http://www.w3.org/1999/02/22-rdf-syntax-ns#">
   <cc:Work>
    <dc:type rdf:resource="http://purl.org/dc/dcmitype/StillImage"/>
    <dc:date>2022-08-29T17:50:28.379076</dc:date>
    <dc:format>image/svg+xml</dc:format>
    <dc:creator>
     <cc:Agent>
      <dc:title>Matplotlib v3.5.1, https://matplotlib.org/</dc:title>
     </cc:Agent>
    </dc:creator>
   </cc:Work>
  </rdf:RDF>
 </metadata>
 <defs>
  <style type="text/css">*{stroke-linejoin: round; stroke-linecap: butt}</style>
 </defs>
 <g id="figure_1">
  <g id="patch_1">
   <path d="M 0 415.651332 
L 504.403487 415.651332 
L 504.403487 0 
L 0 0 
z
" style="fill: #ffffff"/>
  </g>
  <g id="axes_1">
   <g id="patch_2">
    <path d="M 57.53 363.611332 
L 493.603487 363.611332 
L 493.603487 26.88 
L 57.53 26.88 
z
" style="fill: #ffffff"/>
   </g>
   <g id="patch_3">
    <path d="M 87.604034 363.611332 
L 97.410784 363.611332 
L 97.410784 321.284513 
L 87.604034 321.284513 
z
" clip-path="url(#pc5636eb7d7)" style="fill: #dc143c"/>
   </g>
   <g id="patch_4">
    <path d="M 152.982367 363.611332 
L 162.789118 363.611332 
L 162.789118 336.947569 
L 152.982367 336.947569 
z
" clip-path="url(#pc5636eb7d7)" style="fill: #dc143c"/>
   </g>
   <g id="patch_5">
    <path d="M 218.360701 363.611332 
L 228.167451 363.611332 
L 228.167451 348.253004 
L 218.360701 348.253004 
z
" clip-path="url(#pc5636eb7d7)" style="fill: #dc143c"/>
   </g>
   <g id="patch_6">
    <path d="M 283.739035 363.611332 
L 293.545785 363.611332 
L 293.545785 355.292238 
L 283.739035 355.292238 
z
" clip-path="url(#pc5636eb7d7)" style="fill: #dc143c"/>
   </g>
   <g id="patch_7">
    <path d="M 349.117369 363.611332 
L 358.924119 363.611332 
L 358.924119 359.253711 
L 349.117369 359.253711 
z
" clip-path="url(#pc5636eb7d7)" style="fill: #dc143c"/>
   </g>
   <g id="patch_8">
    <path d="M 414.495703 363.611332 
L 424.302453 363.611332 
L 424.302453 363.611332 
L 414.495703 363.611332 
z
" clip-path="url(#pc5636eb7d7)" style="fill: #dc143c"/>
   </g>
   <g id="patch_9">
    <path d="M 100.6797 363.611332 
L 110.48645 363.611332 
L 110.48645 282.644911 
L 100.6797 282.644911 
z
" clip-path="url(#pc5636eb7d7)" style="fill: #8b008b"/>
   </g>
   <g id="patch_10">
    <path d="M 166.058034 363.611332 
L 175.864784 363.611332 
L 175.864784 311.137046 
L 166.058034 311.137046 
z
" clip-path="url(#pc5636eb7d7)" style="fill: #8b008b"/>
   </g>
   <g id="patch_11">
    <path d="M 231.436368 363.611332 
L 241.243118 363.611332 
L 241.243118 333.382243 
L 231.436368 333.382243 
z
" clip-path="url(#pc5636eb7d7)" style="fill: #8b008b"/>
   </g>
   <g id="patch_12">
    <path d="M 296.814702 363.611332 
L 306.621452 363.611332 
L 306.621452 347.186454 
L 296.814702 347.186454 
z
" clip-path="url(#pc5636eb7d7)" style="fill: #8b008b"/>
   </g>
   <g id="patch_13">
    <path d="M 362.193036 363.611332 
L 371.999786 363.611332 
L 371.999786 355.017982 
L 362.193036 355.017982 
z
" clip-path="url(#pc5636eb7d7)" style="fill: #8b008b"/>
   </g>
   <g id="patch_14">
    <path d="M 427.57137 363.611332 
L 437.37812 363.611332 
L 437.37812 359.192765 
L 427.57137 359.192765 
z
" clip-path="url(#pc5636eb7d7)" style="fill: #8b008b"/>
   </g>
   <g id="patch_15">
    <path d="M 113.755367 363.611332 
L 123.562117 363.611332 
L 123.562117 234.89392 
L 113.755367 234.89392 
z
" clip-path="url(#pc5636eb7d7)" style="fill: #6495ed"/>
   </g>
   <g id="patch_16">
    <path d="M 179.133701 363.611332 
L 188.940451 363.611332 
L 188.940451 281.944035 
L 179.133701 281.944035 
z
" clip-path="url(#pc5636eb7d7)" style="fill: #6495ed"/>
   </g>
   <g id="patch_17">
    <path d="M 244.512035 363.611332 
L 254.318785 363.611332 
L 254.318785 317.292566 
L 244.512035 317.292566 
z
" clip-path="url(#pc5636eb7d7)" style="fill: #6495ed"/>
   </g>
   <g id="patch_18">
    <path d="M 309.890369 363.611332 
L 319.697119 363.611332 
L 319.697119 338.836887 
L 309.890369 338.836887 
z
" clip-path="url(#pc5636eb7d7)" style="fill: #6495ed"/>
   </g>
   <g id="patch_19">
    <path d="M 375.268703 363.611332 
L 385.075453 363.611332 
L 385.075453 350.416578 
L 375.268703 350.416578 
z
" clip-path="url(#pc5636eb7d7)" style="fill: #6495ed"/>
   </g>
   <g id="patch_20">
    <path d="M 440.647036 363.611332 
L 450.453787 363.611332 
L 450.453787 356.785409 
L 440.647036 356.785409 
z
" clip-path="url(#pc5636eb7d7)" style="fill: #6495ed"/>
   </g>
   <g id="patch_21">
    <path d="M 126.831034 363.611332 
L 136.637784 363.611332 
L 136.637784 123.088952 
L 126.831034 123.088952 
z
" clip-path="url(#pc5636eb7d7)" style="fill: #3cb371"/>
   </g>
   <g id="patch_22">
    <path d="M 192.209368 363.611332 
L 202.016118 363.611332 
L 202.016118 197.960799 
L 192.209368 197.960799 
z
" clip-path="url(#pc5636eb7d7)" style="fill: #3cb371"/>
   </g>
   <g id="patch_23">
    <path d="M 257.587702 363.611332 
L 267.394452 363.611332 
L 267.394452 263.873621 
L 257.587702 263.873621 
z
" clip-path="url(#pc5636eb7d7)" style="fill: #3cb371"/>
   </g>
   <g id="patch_24">
    <path d="M 322.966036 363.611332 
L 332.772786 363.611332 
L 332.772786 307.99834 
L 322.966036 307.99834 
z
" clip-path="url(#pc5636eb7d7)" style="fill: #3cb371"/>
   </g>
   <g id="patch_25">
    <path d="M 388.344369 363.611332 
L 398.151119 363.611332 
L 398.151119 333.9917 
L 388.344369 333.9917 
z
" clip-path="url(#pc5636eb7d7)" style="fill: #3cb371"/>
   </g>
   <g id="patch_26">
    <path d="M 453.722703 363.611332 
L 463.529453 363.611332 
L 463.529453 348.283477 
L 453.722703 348.283477 
z
" clip-path="url(#pc5636eb7d7)" style="fill: #3cb371"/>
   </g>
   <g id="matplotlib.axis_1">
    <g id="xtick_1">
     <g id="line2d_1">
      <defs>
       <path id="m80119112a9" d="M 0 0 
L 0 3.5 
" style="stroke: #000000; stroke-width: 0.8"/>
      </defs>
      <g>
       <use xlink:href="#m80119112a9" x="112.120909" y="363.611332" style="stroke: #000000; stroke-width: 0.8"/>
      </g>
     </g>
     <g id="text_1">
      <!-- 8 -->
      <g transform="translate(107.667159 381.249144)scale(0.14 -0.14)">
       <defs>
        <path id="DejaVuSans-38" d="M 2034 2216 
Q 1584 2216 1326 1975 
Q 1069 1734 1069 1313 
Q 1069 891 1326 650 
Q 1584 409 2034 409 
Q 2484 409 2743 651 
Q 3003 894 3003 1313 
Q 3003 1734 2745 1975 
Q 2488 2216 2034 2216 
z
M 1403 2484 
Q 997 2584 770 2862 
Q 544 3141 544 3541 
Q 544 4100 942 4425 
Q 1341 4750 2034 4750 
Q 2731 4750 3128 4425 
Q 3525 4100 3525 3541 
Q 3525 3141 3298 2862 
Q 3072 2584 2669 2484 
Q 3125 2378 3379 2068 
Q 3634 1759 3634 1313 
Q 3634 634 3220 271 
Q 2806 -91 2034 -91 
Q 1263 -91 848 271 
Q 434 634 434 1313 
Q 434 1759 690 2068 
Q 947 2378 1403 2484 
z
M 1172 3481 
Q 1172 3119 1398 2916 
Q 1625 2713 2034 2713 
Q 2441 2713 2670 2916 
Q 2900 3119 2900 3481 
Q 2900 3844 2670 4047 
Q 2441 4250 2034 4250 
Q 1625 4250 1398 4047 
Q 1172 3844 1172 3481 
z
" transform="scale(0.015625)"/>
       </defs>
       <use xlink:href="#DejaVuSans-38"/>
      </g>
     </g>
    </g>
    <g id="xtick_2">
     <g id="line2d_2">
      <g>
       <use xlink:href="#m80119112a9" x="177.499243" y="363.611332" style="stroke: #000000; stroke-width: 0.8"/>
      </g>
     </g>
     <g id="text_2">
      <!-- 16 -->
      <g transform="translate(168.591743 381.249144)scale(0.14 -0.14)">
       <defs>
        <path id="DejaVuSans-31" d="M 794 531 
L 1825 531 
L 1825 4091 
L 703 3866 
L 703 4441 
L 1819 4666 
L 2450 4666 
L 2450 531 
L 3481 531 
L 3481 0 
L 794 0 
L 794 531 
z
" transform="scale(0.015625)"/>
        <path id="DejaVuSans-36" d="M 2113 2584 
Q 1688 2584 1439 2293 
Q 1191 2003 1191 1497 
Q 1191 994 1439 701 
Q 1688 409 2113 409 
Q 2538 409 2786 701 
Q 3034 994 3034 1497 
Q 3034 2003 2786 2293 
Q 2538 2584 2113 2584 
z
M 3366 4563 
L 3366 3988 
Q 3128 4100 2886 4159 
Q 2644 4219 2406 4219 
Q 1781 4219 1451 3797 
Q 1122 3375 1075 2522 
Q 1259 2794 1537 2939 
Q 1816 3084 2150 3084 
Q 2853 3084 3261 2657 
Q 3669 2231 3669 1497 
Q 3669 778 3244 343 
Q 2819 -91 2113 -91 
Q 1303 -91 875 529 
Q 447 1150 447 2328 
Q 447 3434 972 4092 
Q 1497 4750 2381 4750 
Q 2619 4750 2861 4703 
Q 3103 4656 3366 4563 
z
" transform="scale(0.015625)"/>
       </defs>
       <use xlink:href="#DejaVuSans-31"/>
       <use xlink:href="#DejaVuSans-36" x="63.623047"/>
      </g>
     </g>
    </g>
    <g id="xtick_3">
     <g id="line2d_3">
      <g>
       <use xlink:href="#m80119112a9" x="242.877577" y="363.611332" style="stroke: #000000; stroke-width: 0.8"/>
      </g>
     </g>
     <g id="text_3">
      <!-- 32 -->
      <g transform="translate(233.970077 381.249144)scale(0.14 -0.14)">
       <defs>
        <path id="DejaVuSans-33" d="M 2597 2516 
Q 3050 2419 3304 2112 
Q 3559 1806 3559 1356 
Q 3559 666 3084 287 
Q 2609 -91 1734 -91 
Q 1441 -91 1130 -33 
Q 819 25 488 141 
L 488 750 
Q 750 597 1062 519 
Q 1375 441 1716 441 
Q 2309 441 2620 675 
Q 2931 909 2931 1356 
Q 2931 1769 2642 2001 
Q 2353 2234 1838 2234 
L 1294 2234 
L 1294 2753 
L 1863 2753 
Q 2328 2753 2575 2939 
Q 2822 3125 2822 3475 
Q 2822 3834 2567 4026 
Q 2313 4219 1838 4219 
Q 1578 4219 1281 4162 
Q 984 4106 628 3988 
L 628 4550 
Q 988 4650 1302 4700 
Q 1616 4750 1894 4750 
Q 2613 4750 3031 4423 
Q 3450 4097 3450 3541 
Q 3450 3153 3228 2886 
Q 3006 2619 2597 2516 
z
" transform="scale(0.015625)"/>
        <path id="DejaVuSans-32" d="M 1228 531 
L 3431 531 
L 3431 0 
L 469 0 
L 469 531 
Q 828 903 1448 1529 
Q 2069 2156 2228 2338 
Q 2531 2678 2651 2914 
Q 2772 3150 2772 3378 
Q 2772 3750 2511 3984 
Q 2250 4219 1831 4219 
Q 1534 4219 1204 4116 
Q 875 4013 500 3803 
L 500 4441 
Q 881 4594 1212 4672 
Q 1544 4750 1819 4750 
Q 2544 4750 2975 4387 
Q 3406 4025 3406 3419 
Q 3406 3131 3298 2873 
Q 3191 2616 2906 2266 
Q 2828 2175 2409 1742 
Q 1991 1309 1228 531 
z
" transform="scale(0.015625)"/>
       </defs>
       <use xlink:href="#DejaVuSans-33"/>
       <use xlink:href="#DejaVuSans-32" x="63.623047"/>
      </g>
     </g>
    </g>
    <g id="xtick_4">
     <g id="line2d_4">
      <g>
       <use xlink:href="#m80119112a9" x="308.25591" y="363.611332" style="stroke: #000000; stroke-width: 0.8"/>
      </g>
     </g>
     <g id="text_4">
      <!-- 64 -->
      <g transform="translate(299.34841 381.249144)scale(0.14 -0.14)">
       <defs>
        <path id="DejaVuSans-34" d="M 2419 4116 
L 825 1625 
L 2419 1625 
L 2419 4116 
z
M 2253 4666 
L 3047 4666 
L 3047 1625 
L 3713 1625 
L 3713 1100 
L 3047 1100 
L 3047 0 
L 2419 0 
L 2419 1100 
L 313 1100 
L 313 1709 
L 2253 4666 
z
" transform="scale(0.015625)"/>
       </defs>
       <use xlink:href="#DejaVuSans-36"/>
       <use xlink:href="#DejaVuSans-34" x="63.623047"/>
      </g>
     </g>
    </g>
    <g id="xtick_5">
     <g id="line2d_5">
      <g>
       <use xlink:href="#m80119112a9" x="373.634244" y="363.611332" style="stroke: #000000; stroke-width: 0.8"/>
      </g>
     </g>
     <g id="text_5">
      <!-- 128 -->
      <g transform="translate(360.272994 381.249144)scale(0.14 -0.14)">
       <use xlink:href="#DejaVuSans-31"/>
       <use xlink:href="#DejaVuSans-32" x="63.623047"/>
       <use xlink:href="#DejaVuSans-38" x="127.246094"/>
      </g>
     </g>
    </g>
    <g id="xtick_6">
     <g id="line2d_6">
      <g>
       <use xlink:href="#m80119112a9" x="439.012578" y="363.611332" style="stroke: #000000; stroke-width: 0.8"/>
      </g>
     </g>
     <g id="text_6">
      <!-- 256 -->
      <g transform="translate(425.651328 381.249144)scale(0.14 -0.14)">
       <defs>
        <path id="DejaVuSans-35" d="M 691 4666 
L 3169 4666 
L 3169 4134 
L 1269 4134 
L 1269 2991 
Q 1406 3038 1543 3061 
Q 1681 3084 1819 3084 
Q 2600 3084 3056 2656 
Q 3513 2228 3513 1497 
Q 3513 744 3044 326 
Q 2575 -91 1722 -91 
Q 1428 -91 1123 -41 
Q 819 9 494 109 
L 494 744 
Q 775 591 1075 516 
Q 1375 441 1709 441 
Q 2250 441 2565 725 
Q 2881 1009 2881 1497 
Q 2881 1984 2565 2268 
Q 2250 2553 1709 2553 
Q 1456 2553 1204 2497 
Q 953 2441 691 2322 
L 691 4666 
z
" transform="scale(0.015625)"/>
       </defs>
       <use xlink:href="#DejaVuSans-32"/>
       <use xlink:href="#DejaVuSans-35" x="63.623047"/>
       <use xlink:href="#DejaVuSans-36" x="127.246094"/>
      </g>
     </g>
    </g>
    <g id="text_7">
     <!-- batch size -->
     <g transform="translate(234.926743 400.318207)scale(0.16 -0.16)">
      <defs>
       <path id="DejaVuSans-62" d="M 3116 1747 
Q 3116 2381 2855 2742 
Q 2594 3103 2138 3103 
Q 1681 3103 1420 2742 
Q 1159 2381 1159 1747 
Q 1159 1113 1420 752 
Q 1681 391 2138 391 
Q 2594 391 2855 752 
Q 3116 1113 3116 1747 
z
M 1159 2969 
Q 1341 3281 1617 3432 
Q 1894 3584 2278 3584 
Q 2916 3584 3314 3078 
Q 3713 2572 3713 1747 
Q 3713 922 3314 415 
Q 2916 -91 2278 -91 
Q 1894 -91 1617 61 
Q 1341 213 1159 525 
L 1159 0 
L 581 0 
L 581 4863 
L 1159 4863 
L 1159 2969 
z
" transform="scale(0.015625)"/>
       <path id="DejaVuSans-61" d="M 2194 1759 
Q 1497 1759 1228 1600 
Q 959 1441 959 1056 
Q 959 750 1161 570 
Q 1363 391 1709 391 
Q 2188 391 2477 730 
Q 2766 1069 2766 1631 
L 2766 1759 
L 2194 1759 
z
M 3341 1997 
L 3341 0 
L 2766 0 
L 2766 531 
Q 2569 213 2275 61 
Q 1981 -91 1556 -91 
Q 1019 -91 701 211 
Q 384 513 384 1019 
Q 384 1609 779 1909 
Q 1175 2209 1959 2209 
L 2766 2209 
L 2766 2266 
Q 2766 2663 2505 2880 
Q 2244 3097 1772 3097 
Q 1472 3097 1187 3025 
Q 903 2953 641 2809 
L 641 3341 
Q 956 3463 1253 3523 
Q 1550 3584 1831 3584 
Q 2591 3584 2966 3190 
Q 3341 2797 3341 1997 
z
" transform="scale(0.015625)"/>
       <path id="DejaVuSans-74" d="M 1172 4494 
L 1172 3500 
L 2356 3500 
L 2356 3053 
L 1172 3053 
L 1172 1153 
Q 1172 725 1289 603 
Q 1406 481 1766 481 
L 2356 481 
L 2356 0 
L 1766 0 
Q 1100 0 847 248 
Q 594 497 594 1153 
L 594 3053 
L 172 3053 
L 172 3500 
L 594 3500 
L 594 4494 
L 1172 4494 
z
" transform="scale(0.015625)"/>
       <path id="DejaVuSans-63" d="M 3122 3366 
L 3122 2828 
Q 2878 2963 2633 3030 
Q 2388 3097 2138 3097 
Q 1578 3097 1268 2742 
Q 959 2388 959 1747 
Q 959 1106 1268 751 
Q 1578 397 2138 397 
Q 2388 397 2633 464 
Q 2878 531 3122 666 
L 3122 134 
Q 2881 22 2623 -34 
Q 2366 -91 2075 -91 
Q 1284 -91 818 406 
Q 353 903 353 1747 
Q 353 2603 823 3093 
Q 1294 3584 2113 3584 
Q 2378 3584 2631 3529 
Q 2884 3475 3122 3366 
z
" transform="scale(0.015625)"/>
       <path id="DejaVuSans-68" d="M 3513 2113 
L 3513 0 
L 2938 0 
L 2938 2094 
Q 2938 2591 2744 2837 
Q 2550 3084 2163 3084 
Q 1697 3084 1428 2787 
Q 1159 2491 1159 1978 
L 1159 0 
L 581 0 
L 581 4863 
L 1159 4863 
L 1159 2956 
Q 1366 3272 1645 3428 
Q 1925 3584 2291 3584 
Q 2894 3584 3203 3211 
Q 3513 2838 3513 2113 
z
" transform="scale(0.015625)"/>
       <path id="DejaVuSans-20" transform="scale(0.015625)"/>
       <path id="DejaVuSans-73" d="M 2834 3397 
L 2834 2853 
Q 2591 2978 2328 3040 
Q 2066 3103 1784 3103 
Q 1356 3103 1142 2972 
Q 928 2841 928 2578 
Q 928 2378 1081 2264 
Q 1234 2150 1697 2047 
L 1894 2003 
Q 2506 1872 2764 1633 
Q 3022 1394 3022 966 
Q 3022 478 2636 193 
Q 2250 -91 1575 -91 
Q 1294 -91 989 -36 
Q 684 19 347 128 
L 347 722 
Q 666 556 975 473 
Q 1284 391 1588 391 
Q 1994 391 2212 530 
Q 2431 669 2431 922 
Q 2431 1156 2273 1281 
Q 2116 1406 1581 1522 
L 1381 1569 
Q 847 1681 609 1914 
Q 372 2147 372 2553 
Q 372 3047 722 3315 
Q 1072 3584 1716 3584 
Q 2034 3584 2315 3537 
Q 2597 3491 2834 3397 
z
" transform="scale(0.015625)"/>
       <path id="DejaVuSans-69" d="M 603 3500 
L 1178 3500 
L 1178 0 
L 603 0 
L 603 3500 
z
M 603 4863 
L 1178 4863 
L 1178 4134 
L 603 4134 
L 603 4863 
z
" transform="scale(0.015625)"/>
       <path id="DejaVuSans-7a" d="M 353 3500 
L 3084 3500 
L 3084 2975 
L 922 459 
L 3084 459 
L 3084 0 
L 275 0 
L 275 525 
L 2438 3041 
L 353 3041 
L 353 3500 
z
" transform="scale(0.015625)"/>
       <path id="DejaVuSans-65" d="M 3597 1894 
L 3597 1613 
L 953 1613 
Q 991 1019 1311 708 
Q 1631 397 2203 397 
Q 2534 397 2845 478 
Q 3156 559 3463 722 
L 3463 178 
Q 3153 47 2828 -22 
Q 2503 -91 2169 -91 
Q 1331 -91 842 396 
Q 353 884 353 1716 
Q 353 2575 817 3079 
Q 1281 3584 2069 3584 
Q 2775 3584 3186 3129 
Q 3597 2675 3597 1894 
z
M 3022 2063 
Q 3016 2534 2758 2815 
Q 2500 3097 2075 3097 
Q 1594 3097 1305 2825 
Q 1016 2553 972 2059 
L 3022 2063 
z
" transform="scale(0.015625)"/>
      </defs>
      <use xlink:href="#DejaVuSans-62"/>
      <use xlink:href="#DejaVuSans-61" x="63.476562"/>
      <use xlink:href="#DejaVuSans-74" x="124.755859"/>
      <use xlink:href="#DejaVuSans-63" x="163.964844"/>
      <use xlink:href="#DejaVuSans-68" x="218.945312"/>
      <use xlink:href="#DejaVuSans-20" x="282.324219"/>
      <use xlink:href="#DejaVuSans-73" x="314.111328"/>
      <use xlink:href="#DejaVuSans-69" x="366.210938"/>
      <use xlink:href="#DejaVuSans-7a" x="393.994141"/>
      <use xlink:href="#DejaVuSans-65" x="446.484375"/>
     </g>
    </g>
   </g>
   <g id="matplotlib.axis_2">
    <g id="ytick_1">
     <g id="line2d_7">
      <defs>
       <path id="mb807382fa9" d="M 0 0 
L -3.5 0 
" style="stroke: #000000; stroke-width: 0.8"/>
      </defs>
      <g>
       <use xlink:href="#mb807382fa9" x="57.53" y="363.611332" style="stroke: #000000; stroke-width: 0.8"/>
      </g>
     </g>
    </g>
    <g id="ytick_2">
     <g id="line2d_8">
      <g>
       <use xlink:href="#mb807382fa9" x="57.53" y="302.665588" style="stroke: #000000; stroke-width: 0.8"/>
      </g>
     </g>
    </g>
    <g id="ytick_3">
     <g id="line2d_9">
      <g>
       <use xlink:href="#mb807382fa9" x="57.53" y="241.719843" style="stroke: #000000; stroke-width: 0.8"/>
      </g>
     </g>
     <g id="text_8">
      <!-- 40 -->
      <g transform="translate(37.805 245.519062)scale(0.1 -0.1)">
       <defs>
        <path id="DejaVuSans-30" d="M 2034 4250 
Q 1547 4250 1301 3770 
Q 1056 3291 1056 2328 
Q 1056 1369 1301 889 
Q 1547 409 2034 409 
Q 2525 409 2770 889 
Q 3016 1369 3016 2328 
Q 3016 3291 2770 3770 
Q 2525 4250 2034 4250 
z
M 2034 4750 
Q 2819 4750 3233 4129 
Q 3647 3509 3647 2328 
Q 3647 1150 3233 529 
Q 2819 -91 2034 -91 
Q 1250 -91 836 529 
Q 422 1150 422 2328 
Q 422 3509 836 4129 
Q 1250 4750 2034 4750 
z
" transform="scale(0.015625)"/>
       </defs>
       <use xlink:href="#DejaVuSans-34"/>
       <use xlink:href="#DejaVuSans-30" x="63.623047"/>
      </g>
     </g>
    </g>
    <g id="ytick_4">
     <g id="line2d_10">
      <g>
       <use xlink:href="#mb807382fa9" x="57.53" y="180.774099" style="stroke: #000000; stroke-width: 0.8"/>
      </g>
     </g>
     <g id="text_9">
      <!-- 60 -->
      <g transform="translate(37.805 184.573318)scale(0.1 -0.1)">
       <use xlink:href="#DejaVuSans-36"/>
       <use xlink:href="#DejaVuSans-30" x="63.623047"/>
      </g>
     </g>
    </g>
    <g id="ytick_5">
     <g id="line2d_11">
      <g>
       <use xlink:href="#mb807382fa9" x="57.53" y="119.828355" style="stroke: #000000; stroke-width: 0.8"/>
      </g>
     </g>
     <g id="text_10">
      <!-- 80 -->
      <g transform="translate(37.805 123.627573)scale(0.1 -0.1)">
       <use xlink:href="#DejaVuSans-38"/>
       <use xlink:href="#DejaVuSans-30" x="63.623047"/>
      </g>
     </g>
    </g>
    <g id="ytick_6">
     <g id="line2d_12">
      <g>
       <use xlink:href="#mb807382fa9" x="57.53" y="58.88261" style="stroke: #000000; stroke-width: 0.8"/>
      </g>
     </g>
     <g id="text_11">
      <!-- 100 -->
      <g transform="translate(31.4425 62.681829)scale(0.1 -0.1)">
       <use xlink:href="#DejaVuSans-31"/>
       <use xlink:href="#DejaVuSans-30" x="63.623047"/>
       <use xlink:href="#DejaVuSans-30" x="127.246094"/>
      </g>
     </g>
    </g>
    <g id="text_12">
     <!-- throughput(/s) -->
     <g transform="translate(24.115 253.064416)rotate(-90)scale(0.16 -0.16)">
      <defs>
       <path id="DejaVuSans-72" d="M 2631 2963 
Q 2534 3019 2420 3045 
Q 2306 3072 2169 3072 
Q 1681 3072 1420 2755 
Q 1159 2438 1159 1844 
L 1159 0 
L 581 0 
L 581 3500 
L 1159 3500 
L 1159 2956 
Q 1341 3275 1631 3429 
Q 1922 3584 2338 3584 
Q 2397 3584 2469 3576 
Q 2541 3569 2628 3553 
L 2631 2963 
z
" transform="scale(0.015625)"/>
       <path id="DejaVuSans-6f" d="M 1959 3097 
Q 1497 3097 1228 2736 
Q 959 2375 959 1747 
Q 959 1119 1226 758 
Q 1494 397 1959 397 
Q 2419 397 2687 759 
Q 2956 1122 2956 1747 
Q 2956 2369 2687 2733 
Q 2419 3097 1959 3097 
z
M 1959 3584 
Q 2709 3584 3137 3096 
Q 3566 2609 3566 1747 
Q 3566 888 3137 398 
Q 2709 -91 1959 -91 
Q 1206 -91 779 398 
Q 353 888 353 1747 
Q 353 2609 779 3096 
Q 1206 3584 1959 3584 
z
" transform="scale(0.015625)"/>
       <path id="DejaVuSans-75" d="M 544 1381 
L 544 3500 
L 1119 3500 
L 1119 1403 
Q 1119 906 1312 657 
Q 1506 409 1894 409 
Q 2359 409 2629 706 
Q 2900 1003 2900 1516 
L 2900 3500 
L 3475 3500 
L 3475 0 
L 2900 0 
L 2900 538 
Q 2691 219 2414 64 
Q 2138 -91 1772 -91 
Q 1169 -91 856 284 
Q 544 659 544 1381 
z
M 1991 3584 
L 1991 3584 
z
" transform="scale(0.015625)"/>
       <path id="DejaVuSans-67" d="M 2906 1791 
Q 2906 2416 2648 2759 
Q 2391 3103 1925 3103 
Q 1463 3103 1205 2759 
Q 947 2416 947 1791 
Q 947 1169 1205 825 
Q 1463 481 1925 481 
Q 2391 481 2648 825 
Q 2906 1169 2906 1791 
z
M 3481 434 
Q 3481 -459 3084 -895 
Q 2688 -1331 1869 -1331 
Q 1566 -1331 1297 -1286 
Q 1028 -1241 775 -1147 
L 775 -588 
Q 1028 -725 1275 -790 
Q 1522 -856 1778 -856 
Q 2344 -856 2625 -561 
Q 2906 -266 2906 331 
L 2906 616 
Q 2728 306 2450 153 
Q 2172 0 1784 0 
Q 1141 0 747 490 
Q 353 981 353 1791 
Q 353 2603 747 3093 
Q 1141 3584 1784 3584 
Q 2172 3584 2450 3431 
Q 2728 3278 2906 2969 
L 2906 3500 
L 3481 3500 
L 3481 434 
z
" transform="scale(0.015625)"/>
       <path id="DejaVuSans-70" d="M 1159 525 
L 1159 -1331 
L 581 -1331 
L 581 3500 
L 1159 3500 
L 1159 2969 
Q 1341 3281 1617 3432 
Q 1894 3584 2278 3584 
Q 2916 3584 3314 3078 
Q 3713 2572 3713 1747 
Q 3713 922 3314 415 
Q 2916 -91 2278 -91 
Q 1894 -91 1617 61 
Q 1341 213 1159 525 
z
M 3116 1747 
Q 3116 2381 2855 2742 
Q 2594 3103 2138 3103 
Q 1681 3103 1420 2742 
Q 1159 2381 1159 1747 
Q 1159 1113 1420 752 
Q 1681 391 2138 391 
Q 2594 391 2855 752 
Q 3116 1113 3116 1747 
z
" transform="scale(0.015625)"/>
       <path id="DejaVuSans-28" d="M 1984 4856 
Q 1566 4138 1362 3434 
Q 1159 2731 1159 2009 
Q 1159 1288 1364 580 
Q 1569 -128 1984 -844 
L 1484 -844 
Q 1016 -109 783 600 
Q 550 1309 550 2009 
Q 550 2706 781 3412 
Q 1013 4119 1484 4856 
L 1984 4856 
z
" transform="scale(0.015625)"/>
       <path id="DejaVuSans-2f" d="M 1625 4666 
L 2156 4666 
L 531 -594 
L 0 -594 
L 1625 4666 
z
" transform="scale(0.015625)"/>
       <path id="DejaVuSans-29" d="M 513 4856 
L 1013 4856 
Q 1481 4119 1714 3412 
Q 1947 2706 1947 2009 
Q 1947 1309 1714 600 
Q 1481 -109 1013 -844 
L 513 -844 
Q 928 -128 1133 580 
Q 1338 1288 1338 2009 
Q 1338 2731 1133 3434 
Q 928 4138 513 4856 
z
" transform="scale(0.015625)"/>
      </defs>
      <use xlink:href="#DejaVuSans-74"/>
      <use xlink:href="#DejaVuSans-68" x="39.208984"/>
      <use xlink:href="#DejaVuSans-72" x="102.587891"/>
      <use xlink:href="#DejaVuSans-6f" x="141.451172"/>
      <use xlink:href="#DejaVuSans-75" x="202.632812"/>
      <use xlink:href="#DejaVuSans-67" x="266.011719"/>
      <use xlink:href="#DejaVuSans-68" x="329.488281"/>
      <use xlink:href="#DejaVuSans-70" x="392.867188"/>
      <use xlink:href="#DejaVuSans-75" x="456.34375"/>
      <use xlink:href="#DejaVuSans-74" x="519.722656"/>
      <use xlink:href="#DejaVuSans-28" x="558.931641"/>
      <use xlink:href="#DejaVuSans-2f" x="597.945312"/>
      <use xlink:href="#DejaVuSans-73" x="631.636719"/>
      <use xlink:href="#DejaVuSans-29" x="683.736328"/>
     </g>
    </g>
   </g>
   <g id="patch_27">
    <path d="M 57.53 363.611332 
L 57.53 26.88 
" style="fill: none; stroke: #000000; stroke-width: 0.8; stroke-linejoin: miter; stroke-linecap: square"/>
   </g>
   <g id="patch_28">
    <path d="M 493.603487 363.611332 
L 493.603487 26.88 
" style="fill: none; stroke: #000000; stroke-width: 0.8; stroke-linejoin: miter; stroke-linecap: square"/>
   </g>
   <g id="patch_29">
    <path d="M 57.53 363.611332 
L 493.603487 363.611332 
" style="fill: none; stroke: #000000; stroke-width: 0.8; stroke-linejoin: miter; stroke-linecap: square"/>
   </g>
   <g id="patch_30">
    <path d="M 57.53 26.88 
L 493.603487 26.88 
" style="fill: none; stroke: #000000; stroke-width: 0.8; stroke-linejoin: miter; stroke-linecap: square"/>
   </g>
   <g id="text_13">
    <!-- 14 -->
    <g transform="translate(89.962409 320.452638)scale(0.04 -0.04)">
     <use xlink:href="#DejaVuSans-31"/>
     <use xlink:href="#DejaVuSans-34" x="63.623047"/>
    </g>
   </g>
   <g id="text_14">
    <!-- 9 -->
    <g transform="translate(156.613242 336.115694)scale(0.04 -0.04)">
     <defs>
      <path id="DejaVuSans-39" d="M 703 97 
L 703 672 
Q 941 559 1184 500 
Q 1428 441 1663 441 
Q 2288 441 2617 861 
Q 2947 1281 2994 2138 
Q 2813 1869 2534 1725 
Q 2256 1581 1919 1581 
Q 1219 1581 811 2004 
Q 403 2428 403 3163 
Q 403 3881 828 4315 
Q 1253 4750 1959 4750 
Q 2769 4750 3195 4129 
Q 3622 3509 3622 2328 
Q 3622 1225 3098 567 
Q 2575 -91 1691 -91 
Q 1453 -91 1209 -44 
Q 966 3 703 97 
z
M 1959 2075 
Q 2384 2075 2632 2365 
Q 2881 2656 2881 3163 
Q 2881 3666 2632 3958 
Q 2384 4250 1959 4250 
Q 1534 4250 1286 3958 
Q 1038 3666 1038 3163 
Q 1038 2656 1286 2365 
Q 1534 2075 1959 2075 
z
" transform="scale(0.015625)"/>
     </defs>
     <use xlink:href="#DejaVuSans-39"/>
    </g>
   </g>
   <g id="text_15">
    <!-- 5 -->
    <g transform="translate(221.991576 347.421129)scale(0.04 -0.04)">
     <use xlink:href="#DejaVuSans-35"/>
    </g>
   </g>
   <g id="text_16">
    <!-- 3 -->
    <g transform="translate(287.36991 354.460363)scale(0.04 -0.04)">
     <use xlink:href="#DejaVuSans-33"/>
    </g>
   </g>
   <g id="text_17">
    <!-- 1 -->
    <g transform="translate(352.748244 358.421836)scale(0.04 -0.04)">
     <use xlink:href="#DejaVuSans-31"/>
    </g>
   </g>
   <g id="text_18">
    <!-- 0 -->
    <g transform="translate(418.126578 362.779457)scale(0.04 -0.04)">
     <use xlink:href="#DejaVuSans-30"/>
    </g>
   </g>
   <g id="text_19">
    <!-- 27 -->
    <g transform="translate(103.038075 281.813036)scale(0.04 -0.04)">
     <defs>
      <path id="DejaVuSans-37" d="M 525 4666 
L 3525 4666 
L 3525 4397 
L 1831 0 
L 1172 0 
L 2766 4134 
L 525 4134 
L 525 4666 
z
" transform="scale(0.015625)"/>
     </defs>
     <use xlink:href="#DejaVuSans-32"/>
     <use xlink:href="#DejaVuSans-37" x="63.623047"/>
    </g>
   </g>
   <g id="text_20">
    <!-- 17 -->
    <g transform="translate(168.416409 310.305171)scale(0.04 -0.04)">
     <use xlink:href="#DejaVuSans-31"/>
     <use xlink:href="#DejaVuSans-37" x="63.623047"/>
    </g>
   </g>
   <g id="text_21">
    <!-- 10 -->
    <g transform="translate(233.794743 332.550368)scale(0.04 -0.04)">
     <use xlink:href="#DejaVuSans-31"/>
     <use xlink:href="#DejaVuSans-30" x="63.623047"/>
    </g>
   </g>
   <g id="text_22">
    <!-- 5 -->
    <g transform="translate(300.445577 346.354579)scale(0.04 -0.04)">
     <use xlink:href="#DejaVuSans-35"/>
    </g>
   </g>
   <g id="text_23">
    <!-- 3 -->
    <g transform="translate(365.823911 354.186107)scale(0.04 -0.04)">
     <use xlink:href="#DejaVuSans-33"/>
    </g>
   </g>
   <g id="text_24">
    <!-- 1 -->
    <g transform="translate(431.202245 358.36089)scale(0.04 -0.04)">
     <use xlink:href="#DejaVuSans-31"/>
    </g>
   </g>
   <g id="text_25">
    <!-- 42 -->
    <g transform="translate(116.113742 234.062045)scale(0.04 -0.04)">
     <use xlink:href="#DejaVuSans-34"/>
     <use xlink:href="#DejaVuSans-32" x="63.623047"/>
    </g>
   </g>
   <g id="text_26">
    <!-- 27 -->
    <g transform="translate(181.492076 281.11216)scale(0.04 -0.04)">
     <use xlink:href="#DejaVuSans-32"/>
     <use xlink:href="#DejaVuSans-37" x="63.623047"/>
    </g>
   </g>
   <g id="text_27">
    <!-- 15 -->
    <g transform="translate(246.87041 316.460691)scale(0.04 -0.04)">
     <use xlink:href="#DejaVuSans-31"/>
     <use xlink:href="#DejaVuSans-35" x="63.623047"/>
    </g>
   </g>
   <g id="text_28">
    <!-- 8 -->
    <g transform="translate(313.521244 338.005012)scale(0.04 -0.04)">
     <use xlink:href="#DejaVuSans-38"/>
    </g>
   </g>
   <g id="text_29">
    <!-- 4 -->
    <g transform="translate(378.899578 349.584703)scale(0.04 -0.04)">
     <use xlink:href="#DejaVuSans-34"/>
    </g>
   </g>
   <g id="text_30">
    <!-- 2 -->
    <g transform="translate(444.277912 355.953534)scale(0.04 -0.04)">
     <use xlink:href="#DejaVuSans-32"/>
    </g>
   </g>
   <g id="text_31">
    <!-- 79 -->
    <g transform="translate(129.189409 122.257077)scale(0.04 -0.04)">
     <use xlink:href="#DejaVuSans-37"/>
     <use xlink:href="#DejaVuSans-39" x="63.623047"/>
    </g>
   </g>
   <g id="text_32">
    <!-- 54 -->
    <g transform="translate(194.567743 197.128924)scale(0.04 -0.04)">
     <use xlink:href="#DejaVuSans-35"/>
     <use xlink:href="#DejaVuSans-34" x="63.623047"/>
    </g>
   </g>
   <g id="text_33">
    <!-- 33 -->
    <g transform="translate(259.946077 263.041746)scale(0.04 -0.04)">
     <use xlink:href="#DejaVuSans-33"/>
     <use xlink:href="#DejaVuSans-33" x="63.623047"/>
    </g>
   </g>
   <g id="text_34">
    <!-- 18 -->
    <g transform="translate(325.324411 307.166465)scale(0.04 -0.04)">
     <use xlink:href="#DejaVuSans-31"/>
     <use xlink:href="#DejaVuSans-38" x="63.623047"/>
    </g>
   </g>
   <g id="text_35">
    <!-- 10 -->
    <g transform="translate(390.702744 333.159825)scale(0.04 -0.04)">
     <use xlink:href="#DejaVuSans-31"/>
     <use xlink:href="#DejaVuSans-30" x="63.623047"/>
    </g>
   </g>
   <g id="text_36">
    <!-- 5 -->
    <g transform="translate(457.353578 347.451602)scale(0.04 -0.04)">
     <use xlink:href="#DejaVuSans-35"/>
    </g>
   </g>
   <g id="text_37">
    <!-- bert-base -->
    <g transform="translate(244.379947 20.88)scale(0.13 -0.13)">
     <defs>
      <path id="DejaVuSans-2d" d="M 313 2009 
L 1997 2009 
L 1997 1497 
L 313 1497 
L 313 2009 
z
" transform="scale(0.015625)"/>
     </defs>
     <use xlink:href="#DejaVuSans-62"/>
     <use xlink:href="#DejaVuSans-65" x="63.476562"/>
     <use xlink:href="#DejaVuSans-72" x="125"/>
     <use xlink:href="#DejaVuSans-74" x="166.113281"/>
     <use xlink:href="#DejaVuSans-2d" x="205.322266"/>
     <use xlink:href="#DejaVuSans-62" x="241.40625"/>
     <use xlink:href="#DejaVuSans-61" x="304.882812"/>
     <use xlink:href="#DejaVuSans-73" x="366.162109"/>
     <use xlink:href="#DejaVuSans-65" x="418.261719"/>
    </g>
   </g>
   <g id="legend_1">
    <g id="patch_31">
     <path d="M 273.095049 75.443125 
L 484.503487 75.443125 
Q 487.103487 75.443125 487.103487 72.843125 
L 487.103487 35.98 
Q 487.103487 33.38 484.503487 33.38 
L 273.095049 33.38 
Q 270.495049 33.38 270.495049 35.98 
L 270.495049 72.843125 
Q 270.495049 75.443125 273.095049 75.443125 
z
" style="fill: #ffffff; opacity: 0.8; stroke: #cccccc; stroke-linejoin: miter"/>
    </g>
    <g id="patch_32">
     <path d="M 275.695049 48.457969 
L 301.695049 48.457969 
L 301.695049 39.357969 
L 275.695049 39.357969 
z
" style="fill: #dc143c"/>
    </g>
    <g id="text_38">
     <!-- 1g.10gb -->
     <g transform="translate(312.095049 48.457969)scale(0.13 -0.13)">
      <defs>
       <path id="DejaVuSans-2e" d="M 684 794 
L 1344 794 
L 1344 0 
L 684 0 
L 684 794 
z
" transform="scale(0.015625)"/>
      </defs>
      <use xlink:href="#DejaVuSans-31"/>
      <use xlink:href="#DejaVuSans-67" x="63.623047"/>
      <use xlink:href="#DejaVuSans-2e" x="127.099609"/>
      <use xlink:href="#DejaVuSans-31" x="158.886719"/>
      <use xlink:href="#DejaVuSans-30" x="222.509766"/>
      <use xlink:href="#DejaVuSans-67" x="286.132812"/>
      <use xlink:href="#DejaVuSans-62" x="349.609375"/>
     </g>
    </g>
    <g id="patch_33">
     <path d="M 275.695049 67.539531 
L 301.695049 67.539531 
L 301.695049 58.439531 
L 275.695049 58.439531 
z
" style="fill: #8b008b"/>
    </g>
    <g id="text_39">
     <!-- 2g.20gb -->
     <g transform="translate(312.095049 67.539531)scale(0.13 -0.13)">
      <use xlink:href="#DejaVuSans-32"/>
      <use xlink:href="#DejaVuSans-67" x="63.623047"/>
      <use xlink:href="#DejaVuSans-2e" x="127.099609"/>
      <use xlink:href="#DejaVuSans-32" x="158.886719"/>
      <use xlink:href="#DejaVuSans-30" x="222.509766"/>
      <use xlink:href="#DejaVuSans-67" x="286.132812"/>
      <use xlink:href="#DejaVuSans-62" x="349.609375"/>
     </g>
    </g>
    <g id="patch_34">
     <path d="M 391.799268 48.457969 
L 417.799268 48.457969 
L 417.799268 39.357969 
L 391.799268 39.357969 
z
" style="fill: #6495ed"/>
    </g>
    <g id="text_40">
     <!-- 3g.40gb -->
     <g transform="translate(428.199268 48.457969)scale(0.13 -0.13)">
      <use xlink:href="#DejaVuSans-33"/>
      <use xlink:href="#DejaVuSans-67" x="63.623047"/>
      <use xlink:href="#DejaVuSans-2e" x="127.099609"/>
      <use xlink:href="#DejaVuSans-34" x="158.886719"/>
      <use xlink:href="#DejaVuSans-30" x="222.509766"/>
      <use xlink:href="#DejaVuSans-67" x="286.132812"/>
      <use xlink:href="#DejaVuSans-62" x="349.609375"/>
     </g>
    </g>
    <g id="patch_35">
     <path d="M 391.799268 67.539531 
L 417.799268 67.539531 
L 417.799268 58.439531 
L 391.799268 58.439531 
z
" style="fill: #3cb371"/>
    </g>
    <g id="text_41">
     <!-- 7g.80gb -->
     <g transform="translate(428.199268 67.539531)scale(0.13 -0.13)">
      <use xlink:href="#DejaVuSans-37"/>
      <use xlink:href="#DejaVuSans-67" x="63.623047"/>
      <use xlink:href="#DejaVuSans-2e" x="127.099609"/>
      <use xlink:href="#DejaVuSans-38" x="158.886719"/>
      <use xlink:href="#DejaVuSans-30" x="222.509766"/>
      <use xlink:href="#DejaVuSans-67" x="286.132812"/>
      <use xlink:href="#DejaVuSans-62" x="349.609375"/>
     </g>
    </g>
   </g>
  </g>
 </g>
 <defs>
  <clipPath id="pc5636eb7d7">
   <rect x="57.53" y="26.88" width="436.073487" height="336.731332"/>
  </clipPath>
 </defs>
</svg>
