<?xml version="1.0" encoding="utf-8" standalone="no"?>
<!DOCTYPE svg PUBLIC "-//W3C//DTD SVG 1.1//EN"
  "http://www.w3.org/Graphics/SVG/1.1/DTD/svg11.dtd">
<svg xmlns:xlink="http://www.w3.org/1999/xlink" width="504.403487pt" height="415.651332pt" viewBox="0 0 504.403487 415.651332" xmlns="http://www.w3.org/2000/svg" version="1.1">
 <metadata>
  <rdf:RDF xmlns:dc="http://purl.org/dc/elements/1.1/" xmlns:cc="http://creativecommons.org/ns#" xmlns:rdf="http://www.w3.org/1999/02/22-rdf-syntax-ns#">
   <cc:Work>
    <dc:type rdf:resource="http://purl.org/dc/dcmitype/StillImage"/>
    <dc:date>2022-08-29T10:40:39.770421</dc:date>
    <dc:format>image/svg+xml</dc:format>
    <dc:creator>
     <cc:Agent>
      <dc:title>Matplotlib v3.5.1, https://matplotlib.org/</dc:title>
     </cc:Agent>
    </dc:creator>
   </cc:Work>
  </rdf:RDF>
 </metadata>
 <defs>
  <style type="text/css">*{stroke-linejoin: round; stroke-linecap: butt}</style>
 </defs>
 <g id="figure_1">
  <g id="patch_1">
   <path d="M 0 415.651332 
L 504.403487 415.651332 
L 504.403487 0 
L 0 0 
z
" style="fill: #ffffff"/>
  </g>
  <g id="axes_1">
   <g id="patch_2">
    <path d="M 54.29 363.611332 
L 493.603487 363.611332 
L 493.603487 26.88 
L 54.29 26.88 
z
" style="fill: #ffffff"/>
   </g>
   <g id="patch_3">
    <path d="M 84.587482 363.611332 
L 91.079799 363.611332 
L 91.079799 134.238996 
L 84.587482 134.238996 
z
" clip-path="url(#pb3060551b5)" style="fill: #dc143c"/>
   </g>
   <g id="patch_4">
    <path d="M 127.869599 363.611332 
L 134.361916 363.611332 
L 134.361916 131.053269 
L 127.869599 131.053269 
z
" clip-path="url(#pb3060551b5)" style="fill: #dc143c"/>
   </g>
   <g id="patch_5">
    <path d="M 171.151716 363.611332 
L 177.644033 363.611332 
L 177.644033 127.867542 
L 171.151716 127.867542 
z
" clip-path="url(#pb3060551b5)" style="fill: #dc143c"/>
   </g>
   <g id="patch_6">
    <path d="M 214.433833 363.611332 
L 220.92615 363.611332 
L 220.92615 123.354429 
L 214.433833 123.354429 
z
" clip-path="url(#pb3060551b5)" style="fill: #dc143c"/>
   </g>
   <g id="patch_7">
    <path d="M 257.71595 363.611332 
L 264.208267 363.611332 
L 264.208267 127.071111 
L 257.71595 127.071111 
z
" clip-path="url(#pb3060551b5)" style="fill: #dc143c"/>
   </g>
   <g id="patch_8">
    <path d="M 300.998067 363.611332 
L 307.490384 363.611332 
L 307.490384 124.150861 
L 300.998067 124.150861 
z
" clip-path="url(#pb3060551b5)" style="fill: #dc143c"/>
   </g>
   <g id="patch_9">
    <path d="M 344.280183 363.611332 
L 350.772501 363.611332 
L 350.772501 124.947293 
L 344.280183 124.947293 
z
" clip-path="url(#pb3060551b5)" style="fill: #dc143c"/>
   </g>
   <g id="patch_10">
    <path d="M 387.5623 363.611332 
L 394.054618 363.611332 
L 394.054618 125.743724 
L 387.5623 125.743724 
z
" clip-path="url(#pb3060551b5)" style="fill: #dc143c"/>
   </g>
   <g id="patch_11">
    <path d="M 430.844417 363.611332 
L 437.336735 363.611332 
L 437.336735 123.088952 
L 430.844417 123.088952 
z
" clip-path="url(#pb3060551b5)" style="fill: #dc143c"/>
   </g>
   <g id="patch_12">
    <path d="M 93.243905 363.611332 
L 99.736223 363.611332 
L 99.736223 193.440421 
L 93.243905 193.440421 
z
" clip-path="url(#pb3060551b5)" style="fill: #8b008b"/>
   </g>
   <g id="patch_13">
    <path d="M 136.526022 363.611332 
L 143.01834 363.611332 
L 143.01834 166.361742 
L 136.526022 166.361742 
z
" clip-path="url(#pb3060551b5)" style="fill: #8b008b"/>
   </g>
   <g id="patch_14">
    <path d="M 179.808139 363.611332 
L 186.300457 363.611332 
L 186.300457 147.512858 
L 179.808139 147.512858 
z
" clip-path="url(#pb3060551b5)" style="fill: #8b008b"/>
   </g>
   <g id="patch_15">
    <path d="M 223.090256 363.611332 
L 229.582574 363.611332 
L 229.582574 146.185472 
L 223.090256 146.185472 
z
" clip-path="url(#pb3060551b5)" style="fill: #8b008b"/>
   </g>
   <g id="patch_16">
    <path d="M 266.372373 363.611332 
L 272.864691 363.611332 
L 272.864691 145.919995 
L 266.372373 145.919995 
z
" clip-path="url(#pb3060551b5)" style="fill: #8b008b"/>
   </g>
   <g id="patch_17">
    <path d="M 309.65449 363.611332 
L 316.146807 363.611332 
L 316.146807 144.061654 
L 309.65449 144.061654 
z
" clip-path="url(#pb3060551b5)" style="fill: #8b008b"/>
   </g>
   <g id="patch_18">
    <path d="M 352.936607 363.611332 
L 359.428924 363.611332 
L 359.428924 149.902153 
L 352.936607 149.902153 
z
" clip-path="url(#pb3060551b5)" style="fill: #8b008b"/>
   </g>
   <g id="patch_19">
    <path d="M 396.218724 363.611332 
L 402.711041 363.611332 
L 402.711041 147.247381 
L 396.218724 147.247381 
z
" clip-path="url(#pb3060551b5)" style="fill: #8b008b"/>
   </g>
   <g id="patch_20">
    <path d="M 439.500841 363.611332 
L 445.993158 363.611332 
L 445.993158 144.327131 
L 439.500841 144.327131 
z
" clip-path="url(#pb3060551b5)" style="fill: #8b008b"/>
   </g>
   <g id="patch_21">
    <path d="M 101.900329 363.611332 
L 108.392646 363.611332 
L 108.392646 219.191713 
L 101.900329 219.191713 
z
" clip-path="url(#pb3060551b5)" style="fill: #6495ed"/>
   </g>
   <g id="patch_22">
    <path d="M 145.182446 363.611332 
L 151.674763 363.611332 
L 151.674763 209.103578 
L 145.182446 209.103578 
z
" clip-path="url(#pb3060551b5)" style="fill: #6495ed"/>
   </g>
   <g id="patch_23">
    <path d="M 188.464563 363.611332 
L 194.95688 363.611332 
L 194.95688 183.352286 
L 188.464563 183.352286 
z
" clip-path="url(#pb3060551b5)" style="fill: #6495ed"/>
   </g>
   <g id="patch_24">
    <path d="M 231.746679 363.611332 
L 238.238997 363.611332 
L 238.238997 165.56531 
L 231.746679 165.56531 
z
" clip-path="url(#pb3060551b5)" style="fill: #6495ed"/>
   </g>
   <g id="patch_25">
    <path d="M 275.028796 363.611332 
L 281.521114 363.611332 
L 281.521114 171.671287 
L 275.028796 171.671287 
z
" clip-path="url(#pb3060551b5)" style="fill: #6495ed"/>
   </g>
   <g id="patch_26">
    <path d="M 318.310913 363.611332 
L 324.803231 363.611332 
L 324.803231 175.653446 
L 318.310913 175.653446 
z
" clip-path="url(#pb3060551b5)" style="fill: #6495ed"/>
   </g>
   <g id="patch_27">
    <path d="M 361.59303 363.611332 
L 368.085348 363.611332 
L 368.085348 173.26415 
L 361.59303 173.26415 
z
" clip-path="url(#pb3060551b5)" style="fill: #6495ed"/>
   </g>
   <g id="patch_28">
    <path d="M 404.875147 363.611332 
L 411.367465 363.611332 
L 411.367465 173.26415 
L 404.875147 173.26415 
z
" clip-path="url(#pb3060551b5)" style="fill: #6495ed"/>
   </g>
   <g id="patch_29">
    <path d="M 448.157264 363.611332 
L 454.649582 363.611332 
L 454.649582 173.529628 
L 448.157264 173.529628 
z
" clip-path="url(#pb3060551b5)" style="fill: #6495ed"/>
   </g>
   <g id="patch_30">
    <path d="M 110.556752 363.611332 
L 117.04907 363.611332 
L 117.04907 256.624004 
L 110.556752 256.624004 
z
" clip-path="url(#pb3060551b5)" style="fill: #3cb371"/>
   </g>
   <g id="patch_31">
    <path d="M 153.838869 363.611332 
L 160.331186 363.611332 
L 160.331186 250.518027 
L 153.838869 250.518027 
z
" clip-path="url(#pb3060551b5)" style="fill: #3cb371"/>
   </g>
   <g id="patch_32">
    <path d="M 197.120986 363.611332 
L 203.613303 363.611332 
L 203.613303 243.881096 
L 197.120986 243.881096 
z
" clip-path="url(#pb3060551b5)" style="fill: #3cb371"/>
   </g>
   <g id="patch_33">
    <path d="M 240.403103 363.611332 
L 246.89542 363.611332 
L 246.89542 221.846485 
L 240.403103 221.846485 
z
" clip-path="url(#pb3060551b5)" style="fill: #3cb371"/>
   </g>
   <g id="patch_34">
    <path d="M 283.68522 363.611332 
L 290.177537 363.611332 
L 290.177537 203.528556 
L 283.68522 203.528556 
z
" clip-path="url(#pb3060551b5)" style="fill: #3cb371"/>
   </g>
   <g id="patch_35">
    <path d="M 326.967337 363.611332 
L 333.459654 363.611332 
L 333.459654 213.085737 
L 326.967337 213.085737 
z
" clip-path="url(#pb3060551b5)" style="fill: #3cb371"/>
   </g>
   <g id="patch_36">
    <path d="M 370.249454 363.611332 
L 376.741771 363.611332 
L 376.741771 217.864327 
L 370.249454 217.864327 
z
" clip-path="url(#pb3060551b5)" style="fill: #3cb371"/>
   </g>
   <g id="patch_37">
    <path d="M 413.531571 363.611332 
L 420.023888 363.611332 
L 420.023888 222.37744 
L 413.531571 222.37744 
z
" clip-path="url(#pb3060551b5)" style="fill: #3cb371"/>
   </g>
   <g id="patch_38">
    <path d="M 456.813688 363.611332 
L 463.306005 363.611332 
L 463.306005 216.536941 
L 456.813688 216.536941 
z
" clip-path="url(#pb3060551b5)" style="fill: #3cb371"/>
   </g>
   <g id="matplotlib.axis_1">
    <g id="xtick_1">
     <g id="line2d_1">
      <defs>
       <path id="m2519b2880f" d="M 0 0 
L 0 3.5 
" style="stroke: #000000; stroke-width: 0.8"/>
      </defs>
      <g>
       <use xlink:href="#m2519b2880f" x="100.818276" y="363.611332" style="stroke: #000000; stroke-width: 0.8"/>
      </g>
     </g>
     <g id="text_1">
      <!-- 1 -->
      <g transform="translate(96.364526 381.249144)scale(0.14 -0.14)">
       <defs>
        <path id="DejaVuSans-31" d="M 794 531 
L 1825 531 
L 1825 4091 
L 703 3866 
L 703 4441 
L 1819 4666 
L 2450 4666 
L 2450 531 
L 3481 531 
L 3481 0 
L 794 0 
L 794 531 
z
" transform="scale(0.015625)"/>
       </defs>
       <use xlink:href="#DejaVuSans-31"/>
      </g>
     </g>
    </g>
    <g id="xtick_2">
     <g id="line2d_2">
      <g>
       <use xlink:href="#m2519b2880f" x="144.100393" y="363.611332" style="stroke: #000000; stroke-width: 0.8"/>
      </g>
     </g>
     <g id="text_2">
      <!-- 2 -->
      <g transform="translate(139.646643 381.249144)scale(0.14 -0.14)">
       <defs>
        <path id="DejaVuSans-32" d="M 1228 531 
L 3431 531 
L 3431 0 
L 469 0 
L 469 531 
Q 828 903 1448 1529 
Q 2069 2156 2228 2338 
Q 2531 2678 2651 2914 
Q 2772 3150 2772 3378 
Q 2772 3750 2511 3984 
Q 2250 4219 1831 4219 
Q 1534 4219 1204 4116 
Q 875 4013 500 3803 
L 500 4441 
Q 881 4594 1212 4672 
Q 1544 4750 1819 4750 
Q 2544 4750 2975 4387 
Q 3406 4025 3406 3419 
Q 3406 3131 3298 2873 
Q 3191 2616 2906 2266 
Q 2828 2175 2409 1742 
Q 1991 1309 1228 531 
z
" transform="scale(0.015625)"/>
       </defs>
       <use xlink:href="#DejaVuSans-32"/>
      </g>
     </g>
    </g>
    <g id="xtick_3">
     <g id="line2d_3">
      <g>
       <use xlink:href="#m2519b2880f" x="187.38251" y="363.611332" style="stroke: #000000; stroke-width: 0.8"/>
      </g>
     </g>
     <g id="text_3">
      <!-- 4 -->
      <g transform="translate(182.92876 381.249144)scale(0.14 -0.14)">
       <defs>
        <path id="DejaVuSans-34" d="M 2419 4116 
L 825 1625 
L 2419 1625 
L 2419 4116 
z
M 2253 4666 
L 3047 4666 
L 3047 1625 
L 3713 1625 
L 3713 1100 
L 3047 1100 
L 3047 0 
L 2419 0 
L 2419 1100 
L 313 1100 
L 313 1709 
L 2253 4666 
z
" transform="scale(0.015625)"/>
       </defs>
       <use xlink:href="#DejaVuSans-34"/>
      </g>
     </g>
    </g>
    <g id="xtick_4">
     <g id="line2d_4">
      <g>
       <use xlink:href="#m2519b2880f" x="230.664627" y="363.611332" style="stroke: #000000; stroke-width: 0.8"/>
      </g>
     </g>
     <g id="text_4">
      <!-- 8 -->
      <g transform="translate(226.210877 381.249144)scale(0.14 -0.14)">
       <defs>
        <path id="DejaVuSans-38" d="M 2034 2216 
Q 1584 2216 1326 1975 
Q 1069 1734 1069 1313 
Q 1069 891 1326 650 
Q 1584 409 2034 409 
Q 2484 409 2743 651 
Q 3003 894 3003 1313 
Q 3003 1734 2745 1975 
Q 2488 2216 2034 2216 
z
M 1403 2484 
Q 997 2584 770 2862 
Q 544 3141 544 3541 
Q 544 4100 942 4425 
Q 1341 4750 2034 4750 
Q 2731 4750 3128 4425 
Q 3525 4100 3525 3541 
Q 3525 3141 3298 2862 
Q 3072 2584 2669 2484 
Q 3125 2378 3379 2068 
Q 3634 1759 3634 1313 
Q 3634 634 3220 271 
Q 2806 -91 2034 -91 
Q 1263 -91 848 271 
Q 434 634 434 1313 
Q 434 1759 690 2068 
Q 947 2378 1403 2484 
z
M 1172 3481 
Q 1172 3119 1398 2916 
Q 1625 2713 2034 2713 
Q 2441 2713 2670 2916 
Q 2900 3119 2900 3481 
Q 2900 3844 2670 4047 
Q 2441 4250 2034 4250 
Q 1625 4250 1398 4047 
Q 1172 3844 1172 3481 
z
" transform="scale(0.015625)"/>
       </defs>
       <use xlink:href="#DejaVuSans-38"/>
      </g>
     </g>
    </g>
    <g id="xtick_5">
     <g id="line2d_5">
      <g>
       <use xlink:href="#m2519b2880f" x="273.946743" y="363.611332" style="stroke: #000000; stroke-width: 0.8"/>
      </g>
     </g>
     <g id="text_5">
      <!-- 16 -->
      <g transform="translate(265.039243 381.249144)scale(0.14 -0.14)">
       <defs>
        <path id="DejaVuSans-36" d="M 2113 2584 
Q 1688 2584 1439 2293 
Q 1191 2003 1191 1497 
Q 1191 994 1439 701 
Q 1688 409 2113 409 
Q 2538 409 2786 701 
Q 3034 994 3034 1497 
Q 3034 2003 2786 2293 
Q 2538 2584 2113 2584 
z
M 3366 4563 
L 3366 3988 
Q 3128 4100 2886 4159 
Q 2644 4219 2406 4219 
Q 1781 4219 1451 3797 
Q 1122 3375 1075 2522 
Q 1259 2794 1537 2939 
Q 1816 3084 2150 3084 
Q 2853 3084 3261 2657 
Q 3669 2231 3669 1497 
Q 3669 778 3244 343 
Q 2819 -91 2113 -91 
Q 1303 -91 875 529 
Q 447 1150 447 2328 
Q 447 3434 972 4092 
Q 1497 4750 2381 4750 
Q 2619 4750 2861 4703 
Q 3103 4656 3366 4563 
z
" transform="scale(0.015625)"/>
       </defs>
       <use xlink:href="#DejaVuSans-31"/>
       <use xlink:href="#DejaVuSans-36" x="63.623047"/>
      </g>
     </g>
    </g>
    <g id="xtick_6">
     <g id="line2d_6">
      <g>
       <use xlink:href="#m2519b2880f" x="317.22886" y="363.611332" style="stroke: #000000; stroke-width: 0.8"/>
      </g>
     </g>
     <g id="text_6">
      <!-- 32 -->
      <g transform="translate(308.32136 381.249144)scale(0.14 -0.14)">
       <defs>
        <path id="DejaVuSans-33" d="M 2597 2516 
Q 3050 2419 3304 2112 
Q 3559 1806 3559 1356 
Q 3559 666 3084 287 
Q 2609 -91 1734 -91 
Q 1441 -91 1130 -33 
Q 819 25 488 141 
L 488 750 
Q 750 597 1062 519 
Q 1375 441 1716 441 
Q 2309 441 2620 675 
Q 2931 909 2931 1356 
Q 2931 1769 2642 2001 
Q 2353 2234 1838 2234 
L 1294 2234 
L 1294 2753 
L 1863 2753 
Q 2328 2753 2575 2939 
Q 2822 3125 2822 3475 
Q 2822 3834 2567 4026 
Q 2313 4219 1838 4219 
Q 1578 4219 1281 4162 
Q 984 4106 628 3988 
L 628 4550 
Q 988 4650 1302 4700 
Q 1616 4750 1894 4750 
Q 2613 4750 3031 4423 
Q 3450 4097 3450 3541 
Q 3450 3153 3228 2886 
Q 3006 2619 2597 2516 
z
" transform="scale(0.015625)"/>
       </defs>
       <use xlink:href="#DejaVuSans-33"/>
       <use xlink:href="#DejaVuSans-32" x="63.623047"/>
      </g>
     </g>
    </g>
    <g id="xtick_7">
     <g id="line2d_7">
      <g>
       <use xlink:href="#m2519b2880f" x="360.510977" y="363.611332" style="stroke: #000000; stroke-width: 0.8"/>
      </g>
     </g>
     <g id="text_7">
      <!-- 64 -->
      <g transform="translate(351.603477 381.249144)scale(0.14 -0.14)">
       <use xlink:href="#DejaVuSans-36"/>
       <use xlink:href="#DejaVuSans-34" x="63.623047"/>
      </g>
     </g>
    </g>
    <g id="xtick_8">
     <g id="line2d_8">
      <g>
       <use xlink:href="#m2519b2880f" x="403.793094" y="363.611332" style="stroke: #000000; stroke-width: 0.8"/>
      </g>
     </g>
     <g id="text_8">
      <!-- 128 -->
      <g transform="translate(390.431844 381.249144)scale(0.14 -0.14)">
       <use xlink:href="#DejaVuSans-31"/>
       <use xlink:href="#DejaVuSans-32" x="63.623047"/>
       <use xlink:href="#DejaVuSans-38" x="127.246094"/>
      </g>
     </g>
    </g>
    <g id="xtick_9">
     <g id="line2d_9">
      <g>
       <use xlink:href="#m2519b2880f" x="447.075211" y="363.611332" style="stroke: #000000; stroke-width: 0.8"/>
      </g>
     </g>
     <g id="text_9">
      <!-- 256 -->
      <g transform="translate(433.713961 381.249144)scale(0.14 -0.14)">
       <defs>
        <path id="DejaVuSans-35" d="M 691 4666 
L 3169 4666 
L 3169 4134 
L 1269 4134 
L 1269 2991 
Q 1406 3038 1543 3061 
Q 1681 3084 1819 3084 
Q 2600 3084 3056 2656 
Q 3513 2228 3513 1497 
Q 3513 744 3044 326 
Q 2575 -91 1722 -91 
Q 1428 -91 1123 -41 
Q 819 9 494 109 
L 494 744 
Q 775 591 1075 516 
Q 1375 441 1709 441 
Q 2250 441 2565 725 
Q 2881 1009 2881 1497 
Q 2881 1984 2565 2268 
Q 2250 2553 1709 2553 
Q 1456 2553 1204 2497 
Q 953 2441 691 2322 
L 691 4666 
z
" transform="scale(0.015625)"/>
       </defs>
       <use xlink:href="#DejaVuSans-32"/>
       <use xlink:href="#DejaVuSans-35" x="63.623047"/>
       <use xlink:href="#DejaVuSans-36" x="127.246094"/>
      </g>
     </g>
    </g>
    <g id="text_10">
     <!-- batch size -->
     <g transform="translate(233.306743 400.318207)scale(0.16 -0.16)">
      <defs>
       <path id="DejaVuSans-62" d="M 3116 1747 
Q 3116 2381 2855 2742 
Q 2594 3103 2138 3103 
Q 1681 3103 1420 2742 
Q 1159 2381 1159 1747 
Q 1159 1113 1420 752 
Q 1681 391 2138 391 
Q 2594 391 2855 752 
Q 3116 1113 3116 1747 
z
M 1159 2969 
Q 1341 3281 1617 3432 
Q 1894 3584 2278 3584 
Q 2916 3584 3314 3078 
Q 3713 2572 3713 1747 
Q 3713 922 3314 415 
Q 2916 -91 2278 -91 
Q 1894 -91 1617 61 
Q 1341 213 1159 525 
L 1159 0 
L 581 0 
L 581 4863 
L 1159 4863 
L 1159 2969 
z
" transform="scale(0.015625)"/>
       <path id="DejaVuSans-61" d="M 2194 1759 
Q 1497 1759 1228 1600 
Q 959 1441 959 1056 
Q 959 750 1161 570 
Q 1363 391 1709 391 
Q 2188 391 2477 730 
Q 2766 1069 2766 1631 
L 2766 1759 
L 2194 1759 
z
M 3341 1997 
L 3341 0 
L 2766 0 
L 2766 531 
Q 2569 213 2275 61 
Q 1981 -91 1556 -91 
Q 1019 -91 701 211 
Q 384 513 384 1019 
Q 384 1609 779 1909 
Q 1175 2209 1959 2209 
L 2766 2209 
L 2766 2266 
Q 2766 2663 2505 2880 
Q 2244 3097 1772 3097 
Q 1472 3097 1187 3025 
Q 903 2953 641 2809 
L 641 3341 
Q 956 3463 1253 3523 
Q 1550 3584 1831 3584 
Q 2591 3584 2966 3190 
Q 3341 2797 3341 1997 
z
" transform="scale(0.015625)"/>
       <path id="DejaVuSans-74" d="M 1172 4494 
L 1172 3500 
L 2356 3500 
L 2356 3053 
L 1172 3053 
L 1172 1153 
Q 1172 725 1289 603 
Q 1406 481 1766 481 
L 2356 481 
L 2356 0 
L 1766 0 
Q 1100 0 847 248 
Q 594 497 594 1153 
L 594 3053 
L 172 3053 
L 172 3500 
L 594 3500 
L 594 4494 
L 1172 4494 
z
" transform="scale(0.015625)"/>
       <path id="DejaVuSans-63" d="M 3122 3366 
L 3122 2828 
Q 2878 2963 2633 3030 
Q 2388 3097 2138 3097 
Q 1578 3097 1268 2742 
Q 959 2388 959 1747 
Q 959 1106 1268 751 
Q 1578 397 2138 397 
Q 2388 397 2633 464 
Q 2878 531 3122 666 
L 3122 134 
Q 2881 22 2623 -34 
Q 2366 -91 2075 -91 
Q 1284 -91 818 406 
Q 353 903 353 1747 
Q 353 2603 823 3093 
Q 1294 3584 2113 3584 
Q 2378 3584 2631 3529 
Q 2884 3475 3122 3366 
z
" transform="scale(0.015625)"/>
       <path id="DejaVuSans-68" d="M 3513 2113 
L 3513 0 
L 2938 0 
L 2938 2094 
Q 2938 2591 2744 2837 
Q 2550 3084 2163 3084 
Q 1697 3084 1428 2787 
Q 1159 2491 1159 1978 
L 1159 0 
L 581 0 
L 581 4863 
L 1159 4863 
L 1159 2956 
Q 1366 3272 1645 3428 
Q 1925 3584 2291 3584 
Q 2894 3584 3203 3211 
Q 3513 2838 3513 2113 
z
" transform="scale(0.015625)"/>
       <path id="DejaVuSans-20" transform="scale(0.015625)"/>
       <path id="DejaVuSans-73" d="M 2834 3397 
L 2834 2853 
Q 2591 2978 2328 3040 
Q 2066 3103 1784 3103 
Q 1356 3103 1142 2972 
Q 928 2841 928 2578 
Q 928 2378 1081 2264 
Q 1234 2150 1697 2047 
L 1894 2003 
Q 2506 1872 2764 1633 
Q 3022 1394 3022 966 
Q 3022 478 2636 193 
Q 2250 -91 1575 -91 
Q 1294 -91 989 -36 
Q 684 19 347 128 
L 347 722 
Q 666 556 975 473 
Q 1284 391 1588 391 
Q 1994 391 2212 530 
Q 2431 669 2431 922 
Q 2431 1156 2273 1281 
Q 2116 1406 1581 1522 
L 1381 1569 
Q 847 1681 609 1914 
Q 372 2147 372 2553 
Q 372 3047 722 3315 
Q 1072 3584 1716 3584 
Q 2034 3584 2315 3537 
Q 2597 3491 2834 3397 
z
" transform="scale(0.015625)"/>
       <path id="DejaVuSans-69" d="M 603 3500 
L 1178 3500 
L 1178 0 
L 603 0 
L 603 3500 
z
M 603 4863 
L 1178 4863 
L 1178 4134 
L 603 4134 
L 603 4863 
z
" transform="scale(0.015625)"/>
       <path id="DejaVuSans-7a" d="M 353 3500 
L 3084 3500 
L 3084 2975 
L 922 459 
L 3084 459 
L 3084 0 
L 275 0 
L 275 525 
L 2438 3041 
L 353 3041 
L 353 3500 
z
" transform="scale(0.015625)"/>
       <path id="DejaVuSans-65" d="M 3597 1894 
L 3597 1613 
L 953 1613 
Q 991 1019 1311 708 
Q 1631 397 2203 397 
Q 2534 397 2845 478 
Q 3156 559 3463 722 
L 3463 178 
Q 3153 47 2828 -22 
Q 2503 -91 2169 -91 
Q 1331 -91 842 396 
Q 353 884 353 1716 
Q 353 2575 817 3079 
Q 1281 3584 2069 3584 
Q 2775 3584 3186 3129 
Q 3597 2675 3597 1894 
z
M 3022 2063 
Q 3016 2534 2758 2815 
Q 2500 3097 2075 3097 
Q 1594 3097 1305 2825 
Q 1016 2553 972 2059 
L 3022 2063 
z
" transform="scale(0.015625)"/>
      </defs>
      <use xlink:href="#DejaVuSans-62"/>
      <use xlink:href="#DejaVuSans-61" x="63.476562"/>
      <use xlink:href="#DejaVuSans-74" x="124.755859"/>
      <use xlink:href="#DejaVuSans-63" x="163.964844"/>
      <use xlink:href="#DejaVuSans-68" x="218.945312"/>
      <use xlink:href="#DejaVuSans-20" x="282.324219"/>
      <use xlink:href="#DejaVuSans-73" x="314.111328"/>
      <use xlink:href="#DejaVuSans-69" x="366.210938"/>
      <use xlink:href="#DejaVuSans-7a" x="393.994141"/>
      <use xlink:href="#DejaVuSans-65" x="446.484375"/>
     </g>
    </g>
   </g>
   <g id="matplotlib.axis_2">
    <g id="ytick_1">
     <g id="line2d_10">
      <defs>
       <path id="m950f065003" d="M 0 0 
L -3.5 0 
" style="stroke: #000000; stroke-width: 0.8"/>
      </defs>
      <g>
       <use xlink:href="#m950f065003" x="54.29" y="363.611332" style="stroke: #000000; stroke-width: 0.8"/>
      </g>
     </g>
    </g>
    <g id="ytick_2">
     <g id="line2d_11">
      <g>
       <use xlink:href="#m950f065003" x="54.29" y="310.515884" style="stroke: #000000; stroke-width: 0.8"/>
      </g>
     </g>
    </g>
    <g id="ytick_3">
     <g id="line2d_12">
      <g>
       <use xlink:href="#m950f065003" x="54.29" y="257.420436" style="stroke: #000000; stroke-width: 0.8"/>
      </g>
     </g>
     <g id="text_11">
      <!-- 0.4 -->
      <g transform="translate(31.386875 261.219654)scale(0.1 -0.1)">
       <defs>
        <path id="DejaVuSans-30" d="M 2034 4250 
Q 1547 4250 1301 3770 
Q 1056 3291 1056 2328 
Q 1056 1369 1301 889 
Q 1547 409 2034 409 
Q 2525 409 2770 889 
Q 3016 1369 3016 2328 
Q 3016 3291 2770 3770 
Q 2525 4250 2034 4250 
z
M 2034 4750 
Q 2819 4750 3233 4129 
Q 3647 3509 3647 2328 
Q 3647 1150 3233 529 
Q 2819 -91 2034 -91 
Q 1250 -91 836 529 
Q 422 1150 422 2328 
Q 422 3509 836 4129 
Q 1250 4750 2034 4750 
z
" transform="scale(0.015625)"/>
        <path id="DejaVuSans-2e" d="M 684 794 
L 1344 794 
L 1344 0 
L 684 0 
L 684 794 
z
" transform="scale(0.015625)"/>
       </defs>
       <use xlink:href="#DejaVuSans-30"/>
       <use xlink:href="#DejaVuSans-2e" x="63.623047"/>
       <use xlink:href="#DejaVuSans-34" x="95.410156"/>
      </g>
     </g>
    </g>
    <g id="ytick_4">
     <g id="line2d_13">
      <g>
       <use xlink:href="#m950f065003" x="54.29" y="204.324988" style="stroke: #000000; stroke-width: 0.8"/>
      </g>
     </g>
     <g id="text_12">
      <!-- 0.6 -->
      <g transform="translate(31.386875 208.124206)scale(0.1 -0.1)">
       <use xlink:href="#DejaVuSans-30"/>
       <use xlink:href="#DejaVuSans-2e" x="63.623047"/>
       <use xlink:href="#DejaVuSans-36" x="95.410156"/>
      </g>
     </g>
    </g>
    <g id="ytick_5">
     <g id="line2d_14">
      <g>
       <use xlink:href="#m950f065003" x="54.29" y="151.229539" style="stroke: #000000; stroke-width: 0.8"/>
      </g>
     </g>
     <g id="text_13">
      <!-- 0.8 -->
      <g transform="translate(31.386875 155.028758)scale(0.1 -0.1)">
       <use xlink:href="#DejaVuSans-30"/>
       <use xlink:href="#DejaVuSans-2e" x="63.623047"/>
       <use xlink:href="#DejaVuSans-38" x="95.410156"/>
      </g>
     </g>
    </g>
    <g id="ytick_6">
     <g id="line2d_15">
      <g>
       <use xlink:href="#m950f065003" x="54.29" y="98.134091" style="stroke: #000000; stroke-width: 0.8"/>
      </g>
     </g>
     <g id="text_14">
      <!-- 1.0 -->
      <g transform="translate(31.386875 101.93331)scale(0.1 -0.1)">
       <use xlink:href="#DejaVuSans-31"/>
       <use xlink:href="#DejaVuSans-2e" x="63.623047"/>
       <use xlink:href="#DejaVuSans-30" x="95.410156"/>
      </g>
     </g>
    </g>
    <g id="ytick_7">
     <g id="line2d_16">
      <g>
       <use xlink:href="#m950f065003" x="54.29" y="45.038643" style="stroke: #000000; stroke-width: 0.8"/>
      </g>
     </g>
     <g id="text_15">
      <!-- 1.2 -->
      <g transform="translate(31.386875 48.837862)scale(0.1 -0.1)">
       <use xlink:href="#DejaVuSans-31"/>
       <use xlink:href="#DejaVuSans-2e" x="63.623047"/>
       <use xlink:href="#DejaVuSans-32" x="95.410156"/>
      </g>
     </g>
    </g>
    <g id="text_16">
     <!-- Graphics Engine Activity -->
     <g transform="translate(24.059375 292.995666)rotate(-90)scale(0.16 -0.16)">
      <defs>
       <path id="DejaVuSans-47" d="M 3809 666 
L 3809 1919 
L 2778 1919 
L 2778 2438 
L 4434 2438 
L 4434 434 
Q 4069 175 3628 42 
Q 3188 -91 2688 -91 
Q 1594 -91 976 548 
Q 359 1188 359 2328 
Q 359 3472 976 4111 
Q 1594 4750 2688 4750 
Q 3144 4750 3555 4637 
Q 3966 4525 4313 4306 
L 4313 3634 
Q 3963 3931 3569 4081 
Q 3175 4231 2741 4231 
Q 1884 4231 1454 3753 
Q 1025 3275 1025 2328 
Q 1025 1384 1454 906 
Q 1884 428 2741 428 
Q 3075 428 3337 486 
Q 3600 544 3809 666 
z
" transform="scale(0.015625)"/>
       <path id="DejaVuSans-72" d="M 2631 2963 
Q 2534 3019 2420 3045 
Q 2306 3072 2169 3072 
Q 1681 3072 1420 2755 
Q 1159 2438 1159 1844 
L 1159 0 
L 581 0 
L 581 3500 
L 1159 3500 
L 1159 2956 
Q 1341 3275 1631 3429 
Q 1922 3584 2338 3584 
Q 2397 3584 2469 3576 
Q 2541 3569 2628 3553 
L 2631 2963 
z
" transform="scale(0.015625)"/>
       <path id="DejaVuSans-70" d="M 1159 525 
L 1159 -1331 
L 581 -1331 
L 581 3500 
L 1159 3500 
L 1159 2969 
Q 1341 3281 1617 3432 
Q 1894 3584 2278 3584 
Q 2916 3584 3314 3078 
Q 3713 2572 3713 1747 
Q 3713 922 3314 415 
Q 2916 -91 2278 -91 
Q 1894 -91 1617 61 
Q 1341 213 1159 525 
z
M 3116 1747 
Q 3116 2381 2855 2742 
Q 2594 3103 2138 3103 
Q 1681 3103 1420 2742 
Q 1159 2381 1159 1747 
Q 1159 1113 1420 752 
Q 1681 391 2138 391 
Q 2594 391 2855 752 
Q 3116 1113 3116 1747 
z
" transform="scale(0.015625)"/>
       <path id="DejaVuSans-45" d="M 628 4666 
L 3578 4666 
L 3578 4134 
L 1259 4134 
L 1259 2753 
L 3481 2753 
L 3481 2222 
L 1259 2222 
L 1259 531 
L 3634 531 
L 3634 0 
L 628 0 
L 628 4666 
z
" transform="scale(0.015625)"/>
       <path id="DejaVuSans-6e" d="M 3513 2113 
L 3513 0 
L 2938 0 
L 2938 2094 
Q 2938 2591 2744 2837 
Q 2550 3084 2163 3084 
Q 1697 3084 1428 2787 
Q 1159 2491 1159 1978 
L 1159 0 
L 581 0 
L 581 3500 
L 1159 3500 
L 1159 2956 
Q 1366 3272 1645 3428 
Q 1925 3584 2291 3584 
Q 2894 3584 3203 3211 
Q 3513 2838 3513 2113 
z
" transform="scale(0.015625)"/>
       <path id="DejaVuSans-67" d="M 2906 1791 
Q 2906 2416 2648 2759 
Q 2391 3103 1925 3103 
Q 1463 3103 1205 2759 
Q 947 2416 947 1791 
Q 947 1169 1205 825 
Q 1463 481 1925 481 
Q 2391 481 2648 825 
Q 2906 1169 2906 1791 
z
M 3481 434 
Q 3481 -459 3084 -895 
Q 2688 -1331 1869 -1331 
Q 1566 -1331 1297 -1286 
Q 1028 -1241 775 -1147 
L 775 -588 
Q 1028 -725 1275 -790 
Q 1522 -856 1778 -856 
Q 2344 -856 2625 -561 
Q 2906 -266 2906 331 
L 2906 616 
Q 2728 306 2450 153 
Q 2172 0 1784 0 
Q 1141 0 747 490 
Q 353 981 353 1791 
Q 353 2603 747 3093 
Q 1141 3584 1784 3584 
Q 2172 3584 2450 3431 
Q 2728 3278 2906 2969 
L 2906 3500 
L 3481 3500 
L 3481 434 
z
" transform="scale(0.015625)"/>
       <path id="DejaVuSans-41" d="M 2188 4044 
L 1331 1722 
L 3047 1722 
L 2188 4044 
z
M 1831 4666 
L 2547 4666 
L 4325 0 
L 3669 0 
L 3244 1197 
L 1141 1197 
L 716 0 
L 50 0 
L 1831 4666 
z
" transform="scale(0.015625)"/>
       <path id="DejaVuSans-76" d="M 191 3500 
L 800 3500 
L 1894 563 
L 2988 3500 
L 3597 3500 
L 2284 0 
L 1503 0 
L 191 3500 
z
" transform="scale(0.015625)"/>
       <path id="DejaVuSans-79" d="M 2059 -325 
Q 1816 -950 1584 -1140 
Q 1353 -1331 966 -1331 
L 506 -1331 
L 506 -850 
L 844 -850 
Q 1081 -850 1212 -737 
Q 1344 -625 1503 -206 
L 1606 56 
L 191 3500 
L 800 3500 
L 1894 763 
L 2988 3500 
L 3597 3500 
L 2059 -325 
z
" transform="scale(0.015625)"/>
      </defs>
      <use xlink:href="#DejaVuSans-47"/>
      <use xlink:href="#DejaVuSans-72" x="77.490234"/>
      <use xlink:href="#DejaVuSans-61" x="118.603516"/>
      <use xlink:href="#DejaVuSans-70" x="179.882812"/>
      <use xlink:href="#DejaVuSans-68" x="243.359375"/>
      <use xlink:href="#DejaVuSans-69" x="306.738281"/>
      <use xlink:href="#DejaVuSans-63" x="334.521484"/>
      <use xlink:href="#DejaVuSans-73" x="389.501953"/>
      <use xlink:href="#DejaVuSans-20" x="441.601562"/>
      <use xlink:href="#DejaVuSans-45" x="473.388672"/>
      <use xlink:href="#DejaVuSans-6e" x="536.572266"/>
      <use xlink:href="#DejaVuSans-67" x="599.951172"/>
      <use xlink:href="#DejaVuSans-69" x="663.427734"/>
      <use xlink:href="#DejaVuSans-6e" x="691.210938"/>
      <use xlink:href="#DejaVuSans-65" x="754.589844"/>
      <use xlink:href="#DejaVuSans-20" x="816.113281"/>
      <use xlink:href="#DejaVuSans-41" x="847.900391"/>
      <use xlink:href="#DejaVuSans-63" x="914.558594"/>
      <use xlink:href="#DejaVuSans-74" x="969.539062"/>
      <use xlink:href="#DejaVuSans-69" x="1008.748047"/>
      <use xlink:href="#DejaVuSans-76" x="1036.53125"/>
      <use xlink:href="#DejaVuSans-69" x="1095.710938"/>
      <use xlink:href="#DejaVuSans-74" x="1123.494141"/>
      <use xlink:href="#DejaVuSans-79" x="1162.703125"/>
     </g>
    </g>
   </g>
   <g id="LineCollection_1">
    <path d="M 87.833641 167.423651 
L 87.833641 101.054341 
" clip-path="url(#pb3060551b5)" style="fill: none; stroke: #000000; stroke-width: 1.5"/>
    <path d="M 131.115758 154.946221 
L 131.115758 107.160318 
" clip-path="url(#pb3060551b5)" style="fill: none; stroke: #000000; stroke-width: 1.5"/>
    <path d="M 174.397875 144.592608 
L 174.397875 111.142476 
" clip-path="url(#pb3060551b5)" style="fill: none; stroke: #000000; stroke-width: 1.5"/>
    <path d="M 217.679991 130.787792 
L 217.679991 115.921066 
" clip-path="url(#pb3060551b5)" style="fill: none; stroke: #000000; stroke-width: 1.5"/>
    <path d="M 260.962108 147.247381 
L 260.962108 106.89484 
" clip-path="url(#pb3060551b5)" style="fill: none; stroke: #000000; stroke-width: 1.5"/>
    <path d="M 304.244225 125.743724 
L 304.244225 122.557998 
" clip-path="url(#pb3060551b5)" style="fill: none; stroke: #000000; stroke-width: 1.5"/>
    <path d="M 347.526342 131.318746 
L 347.526342 118.575839 
" clip-path="url(#pb3060551b5)" style="fill: none; stroke: #000000; stroke-width: 1.5"/>
    <path d="M 390.808459 134.238996 
L 390.808459 117.248453 
" clip-path="url(#pb3060551b5)" style="fill: none; stroke: #000000; stroke-width: 1.5"/>
    <path d="M 434.090576 131.584224 
L 434.090576 114.59368 
" clip-path="url(#pb3060551b5)" style="fill: none; stroke: #000000; stroke-width: 1.5"/>
   </g>
   <g id="LineCollection_2">
    <path d="M 96.490064 208.572623 
L 96.490064 178.308218 
" clip-path="url(#pb3060551b5)" style="fill: none; stroke: #000000; stroke-width: 1.5"/>
    <path d="M 139.772181 183.88324 
L 139.772181 148.840244 
" clip-path="url(#pb3060551b5)" style="fill: none; stroke: #000000; stroke-width: 1.5"/>
    <path d="M 183.054298 160.521243 
L 183.054298 134.504473 
" clip-path="url(#pb3060551b5)" style="fill: none; stroke: #000000; stroke-width: 1.5"/>
    <path d="M 226.336415 170.874855 
L 226.336415 121.496089 
" clip-path="url(#pb3060551b5)" style="fill: none; stroke: #000000; stroke-width: 1.5"/>
    <path d="M 269.618532 165.830788 
L 269.618532 126.009202 
" clip-path="url(#pb3060551b5)" style="fill: none; stroke: #000000; stroke-width: 1.5"/>
    <path d="M 312.900649 154.415266 
L 312.900649 133.708042 
" clip-path="url(#pb3060551b5)" style="fill: none; stroke: #000000; stroke-width: 1.5"/>
    <path d="M 356.182766 156.00813 
L 356.182766 143.796177 
" clip-path="url(#pb3060551b5)" style="fill: none; stroke: #000000; stroke-width: 1.5"/>
    <path d="M 399.464883 151.495017 
L 399.464883 142.999745 
" clip-path="url(#pb3060551b5)" style="fill: none; stroke: #000000; stroke-width: 1.5"/>
    <path d="M 442.747 151.760494 
L 442.747 136.893768 
" clip-path="url(#pb3060551b5)" style="fill: none; stroke: #000000; stroke-width: 1.5"/>
   </g>
   <g id="LineCollection_3">
    <path d="M 105.146487 237.244165 
L 105.146487 201.139261 
" clip-path="url(#pb3060551b5)" style="fill: none; stroke: #000000; stroke-width: 1.5"/>
    <path d="M 148.428604 230.341757 
L 148.428604 187.865399 
" clip-path="url(#pb3060551b5)" style="fill: none; stroke: #000000; stroke-width: 1.5"/>
    <path d="M 191.710721 202.20117 
L 191.710721 164.503402 
" clip-path="url(#pb3060551b5)" style="fill: none; stroke: #000000; stroke-width: 1.5"/>
    <path d="M 234.992838 185.210626 
L 234.992838 145.919995 
" clip-path="url(#pb3060551b5)" style="fill: none; stroke: #000000; stroke-width: 1.5"/>
    <path d="M 278.274955 190.785648 
L 278.274955 152.556926 
" clip-path="url(#pb3060551b5)" style="fill: none; stroke: #000000; stroke-width: 1.5"/>
    <path d="M 321.557072 191.847557 
L 321.557072 159.459334 
" clip-path="url(#pb3060551b5)" style="fill: none; stroke: #000000; stroke-width: 1.5"/>
    <path d="M 364.839189 185.210626 
L 364.839189 161.317675 
" clip-path="url(#pb3060551b5)" style="fill: none; stroke: #000000; stroke-width: 1.5"/>
    <path d="M 408.121306 175.387968 
L 408.121306 171.140333 
" clip-path="url(#pb3060551b5)" style="fill: none; stroke: #000000; stroke-width: 1.5"/>
    <path d="M 451.403423 177.777264 
L 451.403423 169.281992 
" clip-path="url(#pb3060551b5)" style="fill: none; stroke: #000000; stroke-width: 1.5"/>
   </g>
   <g id="LineCollection_4">
    <path d="M 113.802911 265.915707 
L 113.802911 247.332301 
" clip-path="url(#pb3060551b5)" style="fill: none; stroke: #000000; stroke-width: 1.5"/>
    <path d="M 157.085028 259.544254 
L 157.085028 241.491801 
" clip-path="url(#pb3060551b5)" style="fill: none; stroke: #000000; stroke-width: 1.5"/>
    <path d="M 200.367145 253.969232 
L 200.367145 233.792961 
" clip-path="url(#pb3060551b5)" style="fill: none; stroke: #000000; stroke-width: 1.5"/>
    <path d="M 243.649262 232.731052 
L 243.649262 210.961919 
" clip-path="url(#pb3060551b5)" style="fill: none; stroke: #000000; stroke-width: 1.5"/>
    <path d="M 286.931379 209.103578 
L 286.931379 197.953534 
" clip-path="url(#pb3060551b5)" style="fill: none; stroke: #000000; stroke-width: 1.5"/>
    <path d="M 330.213495 226.890553 
L 330.213495 199.28092 
" clip-path="url(#pb3060551b5)" style="fill: none; stroke: #000000; stroke-width: 1.5"/>
    <path d="M 373.495612 224.766735 
L 373.495612 210.961919 
" clip-path="url(#pb3060551b5)" style="fill: none; stroke: #000000; stroke-width: 1.5"/>
    <path d="M 416.777729 232.731052 
L 416.777729 212.023828 
" clip-path="url(#pb3060551b5)" style="fill: none; stroke: #000000; stroke-width: 1.5"/>
    <path d="M 460.059846 222.111963 
L 460.059846 210.961919 
" clip-path="url(#pb3060551b5)" style="fill: none; stroke: #000000; stroke-width: 1.5"/>
   </g>
   <g id="patch_39">
    <path d="M 54.29 363.611332 
L 54.29 26.88 
" style="fill: none; stroke: #000000; stroke-width: 0.8; stroke-linejoin: miter; stroke-linecap: square"/>
   </g>
   <g id="patch_40">
    <path d="M 493.603487 363.611332 
L 493.603487 26.88 
" style="fill: none; stroke: #000000; stroke-width: 0.8; stroke-linejoin: miter; stroke-linecap: square"/>
   </g>
   <g id="patch_41">
    <path d="M 54.29 363.611332 
L 493.603487 363.611332 
" style="fill: none; stroke: #000000; stroke-width: 0.8; stroke-linejoin: miter; stroke-linecap: square"/>
   </g>
   <g id="patch_42">
    <path d="M 54.29 26.88 
L 493.603487 26.88 
" style="fill: none; stroke: #000000; stroke-width: 0.8; stroke-linejoin: miter; stroke-linecap: square"/>
   </g>
   <g id="text_17">
    <!-- 0.86 -->
    <g transform="translate(83.380516 100.222466)scale(0.04 -0.04)">
     <use xlink:href="#DejaVuSans-30"/>
     <use xlink:href="#DejaVuSans-2e" x="63.623047"/>
     <use xlink:href="#DejaVuSans-38" x="95.410156"/>
     <use xlink:href="#DejaVuSans-36" x="159.033203"/>
    </g>
   </g>
   <g id="text_18">
    <!-- 0.88 -->
    <g transform="translate(126.662633 106.328443)scale(0.04 -0.04)">
     <use xlink:href="#DejaVuSans-30"/>
     <use xlink:href="#DejaVuSans-2e" x="63.623047"/>
     <use xlink:href="#DejaVuSans-38" x="95.410156"/>
     <use xlink:href="#DejaVuSans-38" x="159.033203"/>
    </g>
   </g>
   <g id="text_19">
    <!-- 0.89 -->
    <g transform="translate(169.94475 110.310601)scale(0.04 -0.04)">
     <defs>
      <path id="DejaVuSans-39" d="M 703 97 
L 703 672 
Q 941 559 1184 500 
Q 1428 441 1663 441 
Q 2288 441 2617 861 
Q 2947 1281 2994 2138 
Q 2813 1869 2534 1725 
Q 2256 1581 1919 1581 
Q 1219 1581 811 2004 
Q 403 2428 403 3163 
Q 403 3881 828 4315 
Q 1253 4750 1959 4750 
Q 2769 4750 3195 4129 
Q 3622 3509 3622 2328 
Q 3622 1225 3098 567 
Q 2575 -91 1691 -91 
Q 1453 -91 1209 -44 
Q 966 3 703 97 
z
M 1959 2075 
Q 2384 2075 2632 2365 
Q 2881 2656 2881 3163 
Q 2881 3666 2632 3958 
Q 2384 4250 1959 4250 
Q 1534 4250 1286 3958 
Q 1038 3666 1038 3163 
Q 1038 2656 1286 2365 
Q 1534 2075 1959 2075 
z
" transform="scale(0.015625)"/>
     </defs>
     <use xlink:href="#DejaVuSans-30"/>
     <use xlink:href="#DejaVuSans-2e" x="63.623047"/>
     <use xlink:href="#DejaVuSans-38" x="95.410156"/>
     <use xlink:href="#DejaVuSans-39" x="159.033203"/>
    </g>
   </g>
   <g id="text_20">
    <!-- 0.91 -->
    <g transform="translate(213.226866 115.089191)scale(0.04 -0.04)">
     <use xlink:href="#DejaVuSans-30"/>
     <use xlink:href="#DejaVuSans-2e" x="63.623047"/>
     <use xlink:href="#DejaVuSans-39" x="95.410156"/>
     <use xlink:href="#DejaVuSans-31" x="159.033203"/>
    </g>
   </g>
   <g id="text_21">
    <!-- 0.89 -->
    <g transform="translate(256.508983 106.062965)scale(0.04 -0.04)">
     <use xlink:href="#DejaVuSans-30"/>
     <use xlink:href="#DejaVuSans-2e" x="63.623047"/>
     <use xlink:href="#DejaVuSans-38" x="95.410156"/>
     <use xlink:href="#DejaVuSans-39" x="159.033203"/>
    </g>
   </g>
   <g id="text_22">
    <!-- 0.90 -->
    <g transform="translate(299.7911 121.726123)scale(0.04 -0.04)">
     <use xlink:href="#DejaVuSans-30"/>
     <use xlink:href="#DejaVuSans-2e" x="63.623047"/>
     <use xlink:href="#DejaVuSans-39" x="95.410156"/>
     <use xlink:href="#DejaVuSans-30" x="159.033203"/>
    </g>
   </g>
   <g id="text_23">
    <!-- 0.90 -->
    <g transform="translate(343.073217 117.743964)scale(0.04 -0.04)">
     <use xlink:href="#DejaVuSans-30"/>
     <use xlink:href="#DejaVuSans-2e" x="63.623047"/>
     <use xlink:href="#DejaVuSans-39" x="95.410156"/>
     <use xlink:href="#DejaVuSans-30" x="159.033203"/>
    </g>
   </g>
   <g id="text_24">
    <!-- 0.90 -->
    <g transform="translate(386.355334 116.416578)scale(0.04 -0.04)">
     <use xlink:href="#DejaVuSans-30"/>
     <use xlink:href="#DejaVuSans-2e" x="63.623047"/>
     <use xlink:href="#DejaVuSans-39" x="95.410156"/>
     <use xlink:href="#DejaVuSans-30" x="159.033203"/>
    </g>
   </g>
   <g id="text_25">
    <!-- 0.91 -->
    <g transform="translate(429.637451 113.761805)scale(0.04 -0.04)">
     <use xlink:href="#DejaVuSans-30"/>
     <use xlink:href="#DejaVuSans-2e" x="63.623047"/>
     <use xlink:href="#DejaVuSans-39" x="95.410156"/>
     <use xlink:href="#DejaVuSans-31" x="159.033203"/>
    </g>
   </g>
   <g id="text_26">
    <!-- 0.64 -->
    <g transform="translate(92.036939 177.476343)scale(0.04 -0.04)">
     <use xlink:href="#DejaVuSans-30"/>
     <use xlink:href="#DejaVuSans-2e" x="63.623047"/>
     <use xlink:href="#DejaVuSans-36" x="95.410156"/>
     <use xlink:href="#DejaVuSans-34" x="159.033203"/>
    </g>
   </g>
   <g id="text_27">
    <!-- 0.74 -->
    <g transform="translate(135.319056 148.008369)scale(0.04 -0.04)">
     <defs>
      <path id="DejaVuSans-37" d="M 525 4666 
L 3525 4666 
L 3525 4397 
L 1831 0 
L 1172 0 
L 2766 4134 
L 525 4134 
L 525 4666 
z
" transform="scale(0.015625)"/>
     </defs>
     <use xlink:href="#DejaVuSans-30"/>
     <use xlink:href="#DejaVuSans-2e" x="63.623047"/>
     <use xlink:href="#DejaVuSans-37" x="95.410156"/>
     <use xlink:href="#DejaVuSans-34" x="159.033203"/>
    </g>
   </g>
   <g id="text_28">
    <!-- 0.81 -->
    <g transform="translate(178.601173 133.672598)scale(0.04 -0.04)">
     <use xlink:href="#DejaVuSans-30"/>
     <use xlink:href="#DejaVuSans-2e" x="63.623047"/>
     <use xlink:href="#DejaVuSans-38" x="95.410156"/>
     <use xlink:href="#DejaVuSans-31" x="159.033203"/>
    </g>
   </g>
   <g id="text_29">
    <!-- 0.82 -->
    <g transform="translate(221.88329 120.664214)scale(0.04 -0.04)">
     <use xlink:href="#DejaVuSans-30"/>
     <use xlink:href="#DejaVuSans-2e" x="63.623047"/>
     <use xlink:href="#DejaVuSans-38" x="95.410156"/>
     <use xlink:href="#DejaVuSans-32" x="159.033203"/>
    </g>
   </g>
   <g id="text_30">
    <!-- 0.82 -->
    <g transform="translate(265.165407 125.177327)scale(0.04 -0.04)">
     <use xlink:href="#DejaVuSans-30"/>
     <use xlink:href="#DejaVuSans-2e" x="63.623047"/>
     <use xlink:href="#DejaVuSans-38" x="95.410156"/>
     <use xlink:href="#DejaVuSans-32" x="159.033203"/>
    </g>
   </g>
   <g id="text_31">
    <!-- 0.83 -->
    <g transform="translate(308.447524 132.876167)scale(0.04 -0.04)">
     <use xlink:href="#DejaVuSans-30"/>
     <use xlink:href="#DejaVuSans-2e" x="63.623047"/>
     <use xlink:href="#DejaVuSans-38" x="95.410156"/>
     <use xlink:href="#DejaVuSans-33" x="159.033203"/>
    </g>
   </g>
   <g id="text_32">
    <!-- 0.81 -->
    <g transform="translate(351.729641 142.964302)scale(0.04 -0.04)">
     <use xlink:href="#DejaVuSans-30"/>
     <use xlink:href="#DejaVuSans-2e" x="63.623047"/>
     <use xlink:href="#DejaVuSans-38" x="95.410156"/>
     <use xlink:href="#DejaVuSans-31" x="159.033203"/>
    </g>
   </g>
   <g id="text_33">
    <!-- 0.81 -->
    <g transform="translate(395.011758 142.16787)scale(0.04 -0.04)">
     <use xlink:href="#DejaVuSans-30"/>
     <use xlink:href="#DejaVuSans-2e" x="63.623047"/>
     <use xlink:href="#DejaVuSans-38" x="95.410156"/>
     <use xlink:href="#DejaVuSans-31" x="159.033203"/>
    </g>
   </g>
   <g id="text_34">
    <!-- 0.83 -->
    <g transform="translate(438.293875 136.061893)scale(0.04 -0.04)">
     <use xlink:href="#DejaVuSans-30"/>
     <use xlink:href="#DejaVuSans-2e" x="63.623047"/>
     <use xlink:href="#DejaVuSans-38" x="95.410156"/>
     <use xlink:href="#DejaVuSans-33" x="159.033203"/>
    </g>
   </g>
   <g id="text_35">
    <!-- 0.54 -->
    <g transform="translate(100.693362 200.307386)scale(0.04 -0.04)">
     <use xlink:href="#DejaVuSans-30"/>
     <use xlink:href="#DejaVuSans-2e" x="63.623047"/>
     <use xlink:href="#DejaVuSans-35" x="95.410156"/>
     <use xlink:href="#DejaVuSans-34" x="159.033203"/>
    </g>
   </g>
   <g id="text_36">
    <!-- 0.58 -->
    <g transform="translate(143.975479 187.033524)scale(0.04 -0.04)">
     <use xlink:href="#DejaVuSans-30"/>
     <use xlink:href="#DejaVuSans-2e" x="63.623047"/>
     <use xlink:href="#DejaVuSans-35" x="95.410156"/>
     <use xlink:href="#DejaVuSans-38" x="159.033203"/>
    </g>
   </g>
   <g id="text_37">
    <!-- 0.68 -->
    <g transform="translate(187.257596 163.671527)scale(0.04 -0.04)">
     <use xlink:href="#DejaVuSans-30"/>
     <use xlink:href="#DejaVuSans-2e" x="63.623047"/>
     <use xlink:href="#DejaVuSans-36" x="95.410156"/>
     <use xlink:href="#DejaVuSans-38" x="159.033203"/>
    </g>
   </g>
   <g id="text_38">
    <!-- 0.75 -->
    <g transform="translate(230.539713 145.08812)scale(0.04 -0.04)">
     <use xlink:href="#DejaVuSans-30"/>
     <use xlink:href="#DejaVuSans-2e" x="63.623047"/>
     <use xlink:href="#DejaVuSans-37" x="95.410156"/>
     <use xlink:href="#DejaVuSans-35" x="159.033203"/>
    </g>
   </g>
   <g id="text_39">
    <!-- 0.72 -->
    <g transform="translate(273.82183 151.725051)scale(0.04 -0.04)">
     <use xlink:href="#DejaVuSans-30"/>
     <use xlink:href="#DejaVuSans-2e" x="63.623047"/>
     <use xlink:href="#DejaVuSans-37" x="95.410156"/>
     <use xlink:href="#DejaVuSans-32" x="159.033203"/>
    </g>
   </g>
   <g id="text_40">
    <!-- 0.71 -->
    <g transform="translate(317.103947 158.627459)scale(0.04 -0.04)">
     <use xlink:href="#DejaVuSans-30"/>
     <use xlink:href="#DejaVuSans-2e" x="63.623047"/>
     <use xlink:href="#DejaVuSans-37" x="95.410156"/>
     <use xlink:href="#DejaVuSans-31" x="159.033203"/>
    </g>
   </g>
   <g id="text_41">
    <!-- 0.72 -->
    <g transform="translate(360.386064 160.4858)scale(0.04 -0.04)">
     <use xlink:href="#DejaVuSans-30"/>
     <use xlink:href="#DejaVuSans-2e" x="63.623047"/>
     <use xlink:href="#DejaVuSans-37" x="95.410156"/>
     <use xlink:href="#DejaVuSans-32" x="159.033203"/>
    </g>
   </g>
   <g id="text_42">
    <!-- 0.72 -->
    <g transform="translate(403.668181 170.308458)scale(0.04 -0.04)">
     <use xlink:href="#DejaVuSans-30"/>
     <use xlink:href="#DejaVuSans-2e" x="63.623047"/>
     <use xlink:href="#DejaVuSans-37" x="95.410156"/>
     <use xlink:href="#DejaVuSans-32" x="159.033203"/>
    </g>
   </g>
   <g id="text_43">
    <!-- 0.72 -->
    <g transform="translate(446.950298 168.450117)scale(0.04 -0.04)">
     <use xlink:href="#DejaVuSans-30"/>
     <use xlink:href="#DejaVuSans-2e" x="63.623047"/>
     <use xlink:href="#DejaVuSans-37" x="95.410156"/>
     <use xlink:href="#DejaVuSans-32" x="159.033203"/>
    </g>
   </g>
   <g id="text_44">
    <!-- 0.40 -->
    <g transform="translate(109.349786 246.500426)scale(0.04 -0.04)">
     <use xlink:href="#DejaVuSans-30"/>
     <use xlink:href="#DejaVuSans-2e" x="63.623047"/>
     <use xlink:href="#DejaVuSans-34" x="95.410156"/>
     <use xlink:href="#DejaVuSans-30" x="159.033203"/>
    </g>
   </g>
   <g id="text_45">
    <!-- 0.43 -->
    <g transform="translate(152.631903 240.659926)scale(0.04 -0.04)">
     <use xlink:href="#DejaVuSans-30"/>
     <use xlink:href="#DejaVuSans-2e" x="63.623047"/>
     <use xlink:href="#DejaVuSans-34" x="95.410156"/>
     <use xlink:href="#DejaVuSans-33" x="159.033203"/>
    </g>
   </g>
   <g id="text_46">
    <!-- 0.45 -->
    <g transform="translate(195.91402 232.961086)scale(0.04 -0.04)">
     <use xlink:href="#DejaVuSans-30"/>
     <use xlink:href="#DejaVuSans-2e" x="63.623047"/>
     <use xlink:href="#DejaVuSans-34" x="95.410156"/>
     <use xlink:href="#DejaVuSans-35" x="159.033203"/>
    </g>
   </g>
   <g id="text_47">
    <!-- 0.53 -->
    <g transform="translate(239.196137 210.130044)scale(0.04 -0.04)">
     <use xlink:href="#DejaVuSans-30"/>
     <use xlink:href="#DejaVuSans-2e" x="63.623047"/>
     <use xlink:href="#DejaVuSans-35" x="95.410156"/>
     <use xlink:href="#DejaVuSans-33" x="159.033203"/>
    </g>
   </g>
   <g id="text_48">
    <!-- 0.60 -->
    <g transform="translate(282.478254 197.121659)scale(0.04 -0.04)">
     <use xlink:href="#DejaVuSans-30"/>
     <use xlink:href="#DejaVuSans-2e" x="63.623047"/>
     <use xlink:href="#DejaVuSans-36" x="95.410156"/>
     <use xlink:href="#DejaVuSans-30" x="159.033203"/>
    </g>
   </g>
   <g id="text_49">
    <!-- 0.57 -->
    <g transform="translate(325.76037 198.449045)scale(0.04 -0.04)">
     <use xlink:href="#DejaVuSans-30"/>
     <use xlink:href="#DejaVuSans-2e" x="63.623047"/>
     <use xlink:href="#DejaVuSans-35" x="95.410156"/>
     <use xlink:href="#DejaVuSans-37" x="159.033203"/>
    </g>
   </g>
   <g id="text_50">
    <!-- 0.55 -->
    <g transform="translate(369.042487 210.130044)scale(0.04 -0.04)">
     <use xlink:href="#DejaVuSans-30"/>
     <use xlink:href="#DejaVuSans-2e" x="63.623047"/>
     <use xlink:href="#DejaVuSans-35" x="95.410156"/>
     <use xlink:href="#DejaVuSans-35" x="159.033203"/>
    </g>
   </g>
   <g id="text_51">
    <!-- 0.53 -->
    <g transform="translate(412.324604 211.191953)scale(0.04 -0.04)">
     <use xlink:href="#DejaVuSans-30"/>
     <use xlink:href="#DejaVuSans-2e" x="63.623047"/>
     <use xlink:href="#DejaVuSans-35" x="95.410156"/>
     <use xlink:href="#DejaVuSans-33" x="159.033203"/>
    </g>
   </g>
   <g id="text_52">
    <!-- 0.55 -->
    <g transform="translate(455.606721 210.130044)scale(0.04 -0.04)">
     <use xlink:href="#DejaVuSans-30"/>
     <use xlink:href="#DejaVuSans-2e" x="63.623047"/>
     <use xlink:href="#DejaVuSans-35" x="95.410156"/>
     <use xlink:href="#DejaVuSans-35" x="159.033203"/>
    </g>
   </g>
   <g id="text_53">
    <!-- resnet50 -->
    <g transform="translate(245.0969 20.88)scale(0.13 -0.13)">
     <use xlink:href="#DejaVuSans-72"/>
     <use xlink:href="#DejaVuSans-65" x="38.863281"/>
     <use xlink:href="#DejaVuSans-73" x="100.386719"/>
     <use xlink:href="#DejaVuSans-6e" x="152.486328"/>
     <use xlink:href="#DejaVuSans-65" x="215.865234"/>
     <use xlink:href="#DejaVuSans-74" x="277.388672"/>
     <use xlink:href="#DejaVuSans-35" x="316.597656"/>
     <use xlink:href="#DejaVuSans-30" x="380.220703"/>
    </g>
   </g>
   <g id="legend_1">
    <g id="patch_43">
     <path d="M 273.095049 75.443125 
L 484.503487 75.443125 
Q 487.103487 75.443125 487.103487 72.843125 
L 487.103487 35.98 
Q 487.103487 33.38 484.503487 33.38 
L 273.095049 33.38 
Q 270.495049 33.38 270.495049 35.98 
L 270.495049 72.843125 
Q 270.495049 75.443125 273.095049 75.443125 
z
" style="fill: #ffffff; opacity: 0.8; stroke: #cccccc; stroke-linejoin: miter"/>
    </g>
    <g id="patch_44">
     <path d="M 275.695049 48.457969 
L 301.695049 48.457969 
L 301.695049 39.357969 
L 275.695049 39.357969 
z
" style="fill: #dc143c"/>
    </g>
    <g id="text_54">
     <!-- 1g.10gb -->
     <g transform="translate(312.095049 48.457969)scale(0.13 -0.13)">
      <use xlink:href="#DejaVuSans-31"/>
      <use xlink:href="#DejaVuSans-67" x="63.623047"/>
      <use xlink:href="#DejaVuSans-2e" x="127.099609"/>
      <use xlink:href="#DejaVuSans-31" x="158.886719"/>
      <use xlink:href="#DejaVuSans-30" x="222.509766"/>
      <use xlink:href="#DejaVuSans-67" x="286.132812"/>
      <use xlink:href="#DejaVuSans-62" x="349.609375"/>
     </g>
    </g>
    <g id="patch_45">
     <path d="M 275.695049 67.539531 
L 301.695049 67.539531 
L 301.695049 58.439531 
L 275.695049 58.439531 
z
" style="fill: #8b008b"/>
    </g>
    <g id="text_55">
     <!-- 2g.20gb -->
     <g transform="translate(312.095049 67.539531)scale(0.13 -0.13)">
      <use xlink:href="#DejaVuSans-32"/>
      <use xlink:href="#DejaVuSans-67" x="63.623047"/>
      <use xlink:href="#DejaVuSans-2e" x="127.099609"/>
      <use xlink:href="#DejaVuSans-32" x="158.886719"/>
      <use xlink:href="#DejaVuSans-30" x="222.509766"/>
      <use xlink:href="#DejaVuSans-67" x="286.132812"/>
      <use xlink:href="#DejaVuSans-62" x="349.609375"/>
     </g>
    </g>
    <g id="patch_46">
     <path d="M 391.799268 48.457969 
L 417.799268 48.457969 
L 417.799268 39.357969 
L 391.799268 39.357969 
z
" style="fill: #6495ed"/>
    </g>
    <g id="text_56">
     <!-- 3g.40gb -->
     <g transform="translate(428.199268 48.457969)scale(0.13 -0.13)">
      <use xlink:href="#DejaVuSans-33"/>
      <use xlink:href="#DejaVuSans-67" x="63.623047"/>
      <use xlink:href="#DejaVuSans-2e" x="127.099609"/>
      <use xlink:href="#DejaVuSans-34" x="158.886719"/>
      <use xlink:href="#DejaVuSans-30" x="222.509766"/>
      <use xlink:href="#DejaVuSans-67" x="286.132812"/>
      <use xlink:href="#DejaVuSans-62" x="349.609375"/>
     </g>
    </g>
    <g id="patch_47">
     <path d="M 391.799268 67.539531 
L 417.799268 67.539531 
L 417.799268 58.439531 
L 391.799268 58.439531 
z
" style="fill: #3cb371"/>
    </g>
    <g id="text_57">
     <!-- 7g.80gb -->
     <g transform="translate(428.199268 67.539531)scale(0.13 -0.13)">
      <use xlink:href="#DejaVuSans-37"/>
      <use xlink:href="#DejaVuSans-67" x="63.623047"/>
      <use xlink:href="#DejaVuSans-2e" x="127.099609"/>
      <use xlink:href="#DejaVuSans-38" x="158.886719"/>
      <use xlink:href="#DejaVuSans-30" x="222.509766"/>
      <use xlink:href="#DejaVuSans-67" x="286.132812"/>
      <use xlink:href="#DejaVuSans-62" x="349.609375"/>
     </g>
    </g>
   </g>
  </g>
 </g>
 <defs>
  <clipPath id="pb3060551b5">
   <rect x="54.29" y="26.88" width="439.313487" height="336.731332"/>
  </clipPath>
 </defs>
</svg>
