<?xml version="1.0" encoding="utf-8" standalone="no"?>
<!DOCTYPE svg PUBLIC "-//W3C//DTD SVG 1.1//EN"
  "http://www.w3.org/Graphics/SVG/1.1/DTD/svg11.dtd">
<svg xmlns:xlink="http://www.w3.org/1999/xlink" width="504.403487pt" height="415.651332pt" viewBox="0 0 504.403487 415.651332" xmlns="http://www.w3.org/2000/svg" version="1.1">
 <metadata>
  <rdf:RDF xmlns:dc="http://purl.org/dc/elements/1.1/" xmlns:cc="http://creativecommons.org/ns#" xmlns:rdf="http://www.w3.org/1999/02/22-rdf-syntax-ns#">
   <cc:Work>
    <dc:type rdf:resource="http://purl.org/dc/dcmitype/StillImage"/>
    <dc:date>2022-08-29T10:40:39.607533</dc:date>
    <dc:format>image/svg+xml</dc:format>
    <dc:creator>
     <cc:Agent>
      <dc:title>Matplotlib v3.5.1, https://matplotlib.org/</dc:title>
     </cc:Agent>
    </dc:creator>
   </cc:Work>
  </rdf:RDF>
 </metadata>
 <defs>
  <style type="text/css">*{stroke-linejoin: round; stroke-linecap: butt}</style>
 </defs>
 <g id="figure_1">
  <g id="patch_1">
   <path d="M 0 415.651332 
L 504.403487 415.651332 
L 504.403487 0 
L 0 0 
z
" style="fill: #ffffff"/>
  </g>
  <g id="axes_1">
   <g id="patch_2">
    <path d="M 63.92 363.611332 
L 493.603487 363.611332 
L 493.603487 26.88 
L 63.92 26.88 
z
" style="fill: #ffffff"/>
   </g>
   <g id="patch_3">
    <path d="M 93.553344 363.611332 
L 99.903346 363.611332 
L 99.903346 306.111153 
L 93.553344 306.111153 
z
" clip-path="url(#pd4ad89ac4c)" style="fill: #dc143c"/>
   </g>
   <g id="patch_4">
    <path d="M 135.886692 363.611332 
L 142.236695 363.611332 
L 142.236695 306.101382 
L 135.886692 306.101382 
z
" clip-path="url(#pd4ad89ac4c)" style="fill: #dc143c"/>
   </g>
   <g id="patch_5">
    <path d="M 178.220041 363.611332 
L 184.570043 363.611332 
L 184.570043 305.170947 
L 178.220041 305.170947 
z
" clip-path="url(#pd4ad89ac4c)" style="fill: #dc143c"/>
   </g>
   <g id="patch_6">
    <path d="M 220.553389 363.611332 
L 226.903392 363.611332 
L 226.903392 302.709207 
L 220.553389 302.709207 
z
" clip-path="url(#pd4ad89ac4c)" style="fill: #dc143c"/>
   </g>
   <g id="patch_7">
    <path d="M 262.886738 363.611332 
L 269.23674 363.611332 
L 269.23674 298.102107 
L 262.886738 298.102107 
z
" clip-path="url(#pd4ad89ac4c)" style="fill: #dc143c"/>
   </g>
   <g id="patch_8">
    <path d="M 305.220086 363.611332 
L 311.570089 363.611332 
L 311.570089 285.449502 
L 305.220086 285.449502 
z
" clip-path="url(#pd4ad89ac4c)" style="fill: #dc143c"/>
   </g>
   <g id="patch_9">
    <path d="M 347.553435 363.611332 
L 353.903437 363.611332 
L 353.903437 264.320389 
L 347.553435 264.320389 
z
" clip-path="url(#pd4ad89ac4c)" style="fill: #dc143c"/>
   </g>
   <g id="patch_10">
    <path d="M 389.886783 363.611332 
L 396.236785 363.611332 
L 396.236785 222.58499 
L 389.886783 222.58499 
z
" clip-path="url(#pd4ad89ac4c)" style="fill: #dc143c"/>
   </g>
   <g id="patch_11">
    <path d="M 432.220132 363.611332 
L 438.570134 363.611332 
L 438.570134 138.569879 
L 432.220132 138.569879 
z
" clip-path="url(#pd4ad89ac4c)" style="fill: #dc143c"/>
   </g>
   <g id="patch_12">
    <path d="M 102.020014 363.611332 
L 108.370016 363.611332 
L 108.370016 303.510048 
L 102.020014 303.510048 
z
" clip-path="url(#pd4ad89ac4c)" style="fill: #8b008b"/>
   </g>
   <g id="patch_13">
    <path d="M 144.353362 363.611332 
L 150.703364 363.611332 
L 150.703364 303.52371 
L 144.353362 303.52371 
z
" clip-path="url(#pd4ad89ac4c)" style="fill: #8b008b"/>
   </g>
   <g id="patch_14">
    <path d="M 186.686711 363.611332 
L 193.036713 363.611332 
L 193.036713 302.721558 
L 186.686711 302.721558 
z
" clip-path="url(#pd4ad89ac4c)" style="fill: #8b008b"/>
   </g>
   <g id="patch_15">
    <path d="M 229.020059 363.611332 
L 235.370061 363.611332 
L 235.370061 300.337265 
L 229.020059 300.337265 
z
" clip-path="url(#pd4ad89ac4c)" style="fill: #8b008b"/>
   </g>
   <g id="patch_16">
    <path d="M 271.353407 363.611332 
L 277.70341 363.611332 
L 277.70341 295.660503 
L 271.353407 295.660503 
z
" clip-path="url(#pd4ad89ac4c)" style="fill: #8b008b"/>
   </g>
   <g id="patch_17">
    <path d="M 313.686756 363.611332 
L 320.036758 363.611332 
L 320.036758 282.987086 
L 313.686756 282.987086 
z
" clip-path="url(#pd4ad89ac4c)" style="fill: #8b008b"/>
   </g>
   <g id="patch_18">
    <path d="M 356.020104 363.611332 
L 362.370107 363.611332 
L 362.370107 261.857974 
L 356.020104 261.857974 
z
" clip-path="url(#pd4ad89ac4c)" style="fill: #8b008b"/>
   </g>
   <g id="patch_19">
    <path d="M 398.353453 363.611332 
L 404.703455 363.611332 
L 404.703455 219.440883 
L 398.353453 219.440883 
z
" clip-path="url(#pd4ad89ac4c)" style="fill: #8b008b"/>
   </g>
   <g id="patch_20">
    <path d="M 440.686801 363.611332 
L 447.036804 363.611332 
L 447.036804 134.765567 
L 440.686801 134.765567 
z
" clip-path="url(#pd4ad89ac4c)" style="fill: #8b008b"/>
   </g>
   <g id="patch_21">
    <path d="M 110.486683 363.611332 
L 116.836686 363.611332 
L 116.836686 300.994214 
L 110.486683 300.994214 
z
" clip-path="url(#pd4ad89ac4c)" style="fill: #6495ed"/>
   </g>
   <g id="patch_22">
    <path d="M 152.820032 363.611332 
L 159.170034 363.611332 
L 159.170034 301.142038 
L 152.820032 301.142038 
z
" clip-path="url(#pd4ad89ac4c)" style="fill: #6495ed"/>
   </g>
   <g id="patch_23">
    <path d="M 195.15338 363.611332 
L 201.503383 363.611332 
L 201.503383 300.181021 
L 195.15338 300.181021 
z
" clip-path="url(#pd4ad89ac4c)" style="fill: #6495ed"/>
   </g>
   <g id="patch_24">
    <path d="M 237.486729 363.611332 
L 243.836731 363.611332 
L 243.836731 297.721227 
L 237.486729 297.721227 
z
" clip-path="url(#pd4ad89ac4c)" style="fill: #6495ed"/>
   </g>
   <g id="patch_25">
    <path d="M 279.820077 363.611332 
L 286.170079 363.611332 
L 286.170079 293.15579 
L 279.820077 293.15579 
z
" clip-path="url(#pd4ad89ac4c)" style="fill: #6495ed"/>
   </g>
   <g id="patch_26">
    <path d="M 322.153426 363.611332 
L 328.503428 363.611332 
L 328.503428 280.494725 
L 322.153426 280.494725 
z
" clip-path="url(#pd4ad89ac4c)" style="fill: #6495ed"/>
   </g>
   <g id="patch_27">
    <path d="M 364.486774 363.611332 
L 370.836776 363.611332 
L 370.836776 259.316126 
L 364.486774 259.316126 
z
" clip-path="url(#pd4ad89ac4c)" style="fill: #6495ed"/>
   </g>
   <g id="patch_28">
    <path d="M 406.820123 363.611332 
L 413.170125 363.611332 
L 413.170125 216.899035 
L 406.820123 216.899035 
z
" clip-path="url(#pd4ad89ac4c)" style="fill: #6495ed"/>
   </g>
   <g id="patch_29">
    <path d="M 449.153471 363.611332 
L 455.503473 363.611332 
L 455.503473 132.223719 
L 449.153471 132.223719 
z
" clip-path="url(#pd4ad89ac4c)" style="fill: #6495ed"/>
   </g>
   <g id="patch_30">
    <path d="M 118.953353 363.611332 
L 125.303355 363.611332 
L 125.303355 291.889433 
L 118.953353 291.889433 
z
" clip-path="url(#pd4ad89ac4c)" style="fill: #3cb371"/>
   </g>
   <g id="patch_31">
    <path d="M 161.286701 363.611332 
L 167.636704 363.611332 
L 167.636704 291.847095 
L 161.286701 291.847095 
z
" clip-path="url(#pd4ad89ac4c)" style="fill: #3cb371"/>
   </g>
   <g id="patch_32">
    <path d="M 203.62005 363.611332 
L 209.970052 363.611332 
L 209.970052 291.119173 
L 203.62005 291.119173 
z
" clip-path="url(#pd4ad89ac4c)" style="fill: #3cb371"/>
   </g>
   <g id="patch_33">
    <path d="M 245.953398 363.611332 
L 252.303401 363.611332 
L 252.303401 288.615096 
L 245.953398 288.615096 
z
" clip-path="url(#pd4ad89ac4c)" style="fill: #3cb371"/>
   </g>
   <g id="patch_34">
    <path d="M 288.286747 363.611332 
L 294.636749 363.611332 
L 294.636749 284.089375 
L 288.286747 284.089375 
z
" clip-path="url(#pd4ad89ac4c)" style="fill: #3cb371"/>
   </g>
   <g id="patch_35">
    <path d="M 330.620095 363.611332 
L 336.970098 363.611332 
L 336.970098 271.562432 
L 330.620095 271.562432 
z
" clip-path="url(#pd4ad89ac4c)" style="fill: #3cb371"/>
   </g>
   <g id="patch_36">
    <path d="M 372.953444 363.611332 
L 379.303446 363.611332 
L 379.303446 250.531657 
L 372.953444 250.531657 
z
" clip-path="url(#pd4ad89ac4c)" style="fill: #3cb371"/>
   </g>
   <g id="patch_37">
    <path d="M 415.286792 363.611332 
L 421.636795 363.611332 
L 421.636795 208.4375 
L 415.286792 208.4375 
z
" clip-path="url(#pd4ad89ac4c)" style="fill: #3cb371"/>
   </g>
   <g id="patch_38">
    <path d="M 457.620141 363.611332 
L 463.970143 363.611332 
L 463.970143 123.088952 
L 457.620141 123.088952 
z
" clip-path="url(#pd4ad89ac4c)" style="fill: #3cb371"/>
   </g>
   <g id="matplotlib.axis_1">
    <g id="xtick_1">
     <g id="line2d_1">
      <defs>
       <path id="m7965e65fdd" d="M 0 0 
L 0 3.5 
" style="stroke: #000000; stroke-width: 0.8"/>
      </defs>
      <g>
       <use xlink:href="#m7965e65fdd" x="109.42835" y="363.611332" style="stroke: #000000; stroke-width: 0.8"/>
      </g>
     </g>
     <g id="text_1">
      <!-- 1 -->
      <g transform="translate(104.9746 381.249144)scale(0.14 -0.14)">
       <defs>
        <path id="DejaVuSans-31" d="M 794 531 
L 1825 531 
L 1825 4091 
L 703 3866 
L 703 4441 
L 1819 4666 
L 2450 4666 
L 2450 531 
L 3481 531 
L 3481 0 
L 794 0 
L 794 531 
z
" transform="scale(0.015625)"/>
       </defs>
       <use xlink:href="#DejaVuSans-31"/>
      </g>
     </g>
    </g>
    <g id="xtick_2">
     <g id="line2d_2">
      <g>
       <use xlink:href="#m7965e65fdd" x="151.761698" y="363.611332" style="stroke: #000000; stroke-width: 0.8"/>
      </g>
     </g>
     <g id="text_2">
      <!-- 2 -->
      <g transform="translate(147.307948 381.249144)scale(0.14 -0.14)">
       <defs>
        <path id="DejaVuSans-32" d="M 1228 531 
L 3431 531 
L 3431 0 
L 469 0 
L 469 531 
Q 828 903 1448 1529 
Q 2069 2156 2228 2338 
Q 2531 2678 2651 2914 
Q 2772 3150 2772 3378 
Q 2772 3750 2511 3984 
Q 2250 4219 1831 4219 
Q 1534 4219 1204 4116 
Q 875 4013 500 3803 
L 500 4441 
Q 881 4594 1212 4672 
Q 1544 4750 1819 4750 
Q 2544 4750 2975 4387 
Q 3406 4025 3406 3419 
Q 3406 3131 3298 2873 
Q 3191 2616 2906 2266 
Q 2828 2175 2409 1742 
Q 1991 1309 1228 531 
z
" transform="scale(0.015625)"/>
       </defs>
       <use xlink:href="#DejaVuSans-32"/>
      </g>
     </g>
    </g>
    <g id="xtick_3">
     <g id="line2d_3">
      <g>
       <use xlink:href="#m7965e65fdd" x="194.095047" y="363.611332" style="stroke: #000000; stroke-width: 0.8"/>
      </g>
     </g>
     <g id="text_3">
      <!-- 4 -->
      <g transform="translate(189.641297 381.249144)scale(0.14 -0.14)">
       <defs>
        <path id="DejaVuSans-34" d="M 2419 4116 
L 825 1625 
L 2419 1625 
L 2419 4116 
z
M 2253 4666 
L 3047 4666 
L 3047 1625 
L 3713 1625 
L 3713 1100 
L 3047 1100 
L 3047 0 
L 2419 0 
L 2419 1100 
L 313 1100 
L 313 1709 
L 2253 4666 
z
" transform="scale(0.015625)"/>
       </defs>
       <use xlink:href="#DejaVuSans-34"/>
      </g>
     </g>
    </g>
    <g id="xtick_4">
     <g id="line2d_4">
      <g>
       <use xlink:href="#m7965e65fdd" x="236.428395" y="363.611332" style="stroke: #000000; stroke-width: 0.8"/>
      </g>
     </g>
     <g id="text_4">
      <!-- 8 -->
      <g transform="translate(231.974645 381.249144)scale(0.14 -0.14)">
       <defs>
        <path id="DejaVuSans-38" d="M 2034 2216 
Q 1584 2216 1326 1975 
Q 1069 1734 1069 1313 
Q 1069 891 1326 650 
Q 1584 409 2034 409 
Q 2484 409 2743 651 
Q 3003 894 3003 1313 
Q 3003 1734 2745 1975 
Q 2488 2216 2034 2216 
z
M 1403 2484 
Q 997 2584 770 2862 
Q 544 3141 544 3541 
Q 544 4100 942 4425 
Q 1341 4750 2034 4750 
Q 2731 4750 3128 4425 
Q 3525 4100 3525 3541 
Q 3525 3141 3298 2862 
Q 3072 2584 2669 2484 
Q 3125 2378 3379 2068 
Q 3634 1759 3634 1313 
Q 3634 634 3220 271 
Q 2806 -91 2034 -91 
Q 1263 -91 848 271 
Q 434 634 434 1313 
Q 434 1759 690 2068 
Q 947 2378 1403 2484 
z
M 1172 3481 
Q 1172 3119 1398 2916 
Q 1625 2713 2034 2713 
Q 2441 2713 2670 2916 
Q 2900 3119 2900 3481 
Q 2900 3844 2670 4047 
Q 2441 4250 2034 4250 
Q 1625 4250 1398 4047 
Q 1172 3844 1172 3481 
z
" transform="scale(0.015625)"/>
       </defs>
       <use xlink:href="#DejaVuSans-38"/>
      </g>
     </g>
    </g>
    <g id="xtick_5">
     <g id="line2d_5">
      <g>
       <use xlink:href="#m7965e65fdd" x="278.761743" y="363.611332" style="stroke: #000000; stroke-width: 0.8"/>
      </g>
     </g>
     <g id="text_5">
      <!-- 16 -->
      <g transform="translate(269.854243 381.249144)scale(0.14 -0.14)">
       <defs>
        <path id="DejaVuSans-36" d="M 2113 2584 
Q 1688 2584 1439 2293 
Q 1191 2003 1191 1497 
Q 1191 994 1439 701 
Q 1688 409 2113 409 
Q 2538 409 2786 701 
Q 3034 994 3034 1497 
Q 3034 2003 2786 2293 
Q 2538 2584 2113 2584 
z
M 3366 4563 
L 3366 3988 
Q 3128 4100 2886 4159 
Q 2644 4219 2406 4219 
Q 1781 4219 1451 3797 
Q 1122 3375 1075 2522 
Q 1259 2794 1537 2939 
Q 1816 3084 2150 3084 
Q 2853 3084 3261 2657 
Q 3669 2231 3669 1497 
Q 3669 778 3244 343 
Q 2819 -91 2113 -91 
Q 1303 -91 875 529 
Q 447 1150 447 2328 
Q 447 3434 972 4092 
Q 1497 4750 2381 4750 
Q 2619 4750 2861 4703 
Q 3103 4656 3366 4563 
z
" transform="scale(0.015625)"/>
       </defs>
       <use xlink:href="#DejaVuSans-31"/>
       <use xlink:href="#DejaVuSans-36" x="63.623047"/>
      </g>
     </g>
    </g>
    <g id="xtick_6">
     <g id="line2d_6">
      <g>
       <use xlink:href="#m7965e65fdd" x="321.095092" y="363.611332" style="stroke: #000000; stroke-width: 0.8"/>
      </g>
     </g>
     <g id="text_6">
      <!-- 32 -->
      <g transform="translate(312.187592 381.249144)scale(0.14 -0.14)">
       <defs>
        <path id="DejaVuSans-33" d="M 2597 2516 
Q 3050 2419 3304 2112 
Q 3559 1806 3559 1356 
Q 3559 666 3084 287 
Q 2609 -91 1734 -91 
Q 1441 -91 1130 -33 
Q 819 25 488 141 
L 488 750 
Q 750 597 1062 519 
Q 1375 441 1716 441 
Q 2309 441 2620 675 
Q 2931 909 2931 1356 
Q 2931 1769 2642 2001 
Q 2353 2234 1838 2234 
L 1294 2234 
L 1294 2753 
L 1863 2753 
Q 2328 2753 2575 2939 
Q 2822 3125 2822 3475 
Q 2822 3834 2567 4026 
Q 2313 4219 1838 4219 
Q 1578 4219 1281 4162 
Q 984 4106 628 3988 
L 628 4550 
Q 988 4650 1302 4700 
Q 1616 4750 1894 4750 
Q 2613 4750 3031 4423 
Q 3450 4097 3450 3541 
Q 3450 3153 3228 2886 
Q 3006 2619 2597 2516 
z
" transform="scale(0.015625)"/>
       </defs>
       <use xlink:href="#DejaVuSans-33"/>
       <use xlink:href="#DejaVuSans-32" x="63.623047"/>
      </g>
     </g>
    </g>
    <g id="xtick_7">
     <g id="line2d_7">
      <g>
       <use xlink:href="#m7965e65fdd" x="363.42844" y="363.611332" style="stroke: #000000; stroke-width: 0.8"/>
      </g>
     </g>
     <g id="text_7">
      <!-- 64 -->
      <g transform="translate(354.52094 381.249144)scale(0.14 -0.14)">
       <use xlink:href="#DejaVuSans-36"/>
       <use xlink:href="#DejaVuSans-34" x="63.623047"/>
      </g>
     </g>
    </g>
    <g id="xtick_8">
     <g id="line2d_8">
      <g>
       <use xlink:href="#m7965e65fdd" x="405.761789" y="363.611332" style="stroke: #000000; stroke-width: 0.8"/>
      </g>
     </g>
     <g id="text_8">
      <!-- 128 -->
      <g transform="translate(392.400539 381.249144)scale(0.14 -0.14)">
       <use xlink:href="#DejaVuSans-31"/>
       <use xlink:href="#DejaVuSans-32" x="63.623047"/>
       <use xlink:href="#DejaVuSans-38" x="127.246094"/>
      </g>
     </g>
    </g>
    <g id="xtick_9">
     <g id="line2d_9">
      <g>
       <use xlink:href="#m7965e65fdd" x="448.095137" y="363.611332" style="stroke: #000000; stroke-width: 0.8"/>
      </g>
     </g>
     <g id="text_9">
      <!-- 256 -->
      <g transform="translate(434.733887 381.249144)scale(0.14 -0.14)">
       <defs>
        <path id="DejaVuSans-35" d="M 691 4666 
L 3169 4666 
L 3169 4134 
L 1269 4134 
L 1269 2991 
Q 1406 3038 1543 3061 
Q 1681 3084 1819 3084 
Q 2600 3084 3056 2656 
Q 3513 2228 3513 1497 
Q 3513 744 3044 326 
Q 2575 -91 1722 -91 
Q 1428 -91 1123 -41 
Q 819 9 494 109 
L 494 744 
Q 775 591 1075 516 
Q 1375 441 1709 441 
Q 2250 441 2565 725 
Q 2881 1009 2881 1497 
Q 2881 1984 2565 2268 
Q 2250 2553 1709 2553 
Q 1456 2553 1204 2497 
Q 953 2441 691 2322 
L 691 4666 
z
" transform="scale(0.015625)"/>
       </defs>
       <use xlink:href="#DejaVuSans-32"/>
       <use xlink:href="#DejaVuSans-35" x="63.623047"/>
       <use xlink:href="#DejaVuSans-36" x="127.246094"/>
      </g>
     </g>
    </g>
    <g id="text_10">
     <!-- batch size -->
     <g transform="translate(238.121743 400.318207)scale(0.16 -0.16)">
      <defs>
       <path id="DejaVuSans-62" d="M 3116 1747 
Q 3116 2381 2855 2742 
Q 2594 3103 2138 3103 
Q 1681 3103 1420 2742 
Q 1159 2381 1159 1747 
Q 1159 1113 1420 752 
Q 1681 391 2138 391 
Q 2594 391 2855 752 
Q 3116 1113 3116 1747 
z
M 1159 2969 
Q 1341 3281 1617 3432 
Q 1894 3584 2278 3584 
Q 2916 3584 3314 3078 
Q 3713 2572 3713 1747 
Q 3713 922 3314 415 
Q 2916 -91 2278 -91 
Q 1894 -91 1617 61 
Q 1341 213 1159 525 
L 1159 0 
L 581 0 
L 581 4863 
L 1159 4863 
L 1159 2969 
z
" transform="scale(0.015625)"/>
       <path id="DejaVuSans-61" d="M 2194 1759 
Q 1497 1759 1228 1600 
Q 959 1441 959 1056 
Q 959 750 1161 570 
Q 1363 391 1709 391 
Q 2188 391 2477 730 
Q 2766 1069 2766 1631 
L 2766 1759 
L 2194 1759 
z
M 3341 1997 
L 3341 0 
L 2766 0 
L 2766 531 
Q 2569 213 2275 61 
Q 1981 -91 1556 -91 
Q 1019 -91 701 211 
Q 384 513 384 1019 
Q 384 1609 779 1909 
Q 1175 2209 1959 2209 
L 2766 2209 
L 2766 2266 
Q 2766 2663 2505 2880 
Q 2244 3097 1772 3097 
Q 1472 3097 1187 3025 
Q 903 2953 641 2809 
L 641 3341 
Q 956 3463 1253 3523 
Q 1550 3584 1831 3584 
Q 2591 3584 2966 3190 
Q 3341 2797 3341 1997 
z
" transform="scale(0.015625)"/>
       <path id="DejaVuSans-74" d="M 1172 4494 
L 1172 3500 
L 2356 3500 
L 2356 3053 
L 1172 3053 
L 1172 1153 
Q 1172 725 1289 603 
Q 1406 481 1766 481 
L 2356 481 
L 2356 0 
L 1766 0 
Q 1100 0 847 248 
Q 594 497 594 1153 
L 594 3053 
L 172 3053 
L 172 3500 
L 594 3500 
L 594 4494 
L 1172 4494 
z
" transform="scale(0.015625)"/>
       <path id="DejaVuSans-63" d="M 3122 3366 
L 3122 2828 
Q 2878 2963 2633 3030 
Q 2388 3097 2138 3097 
Q 1578 3097 1268 2742 
Q 959 2388 959 1747 
Q 959 1106 1268 751 
Q 1578 397 2138 397 
Q 2388 397 2633 464 
Q 2878 531 3122 666 
L 3122 134 
Q 2881 22 2623 -34 
Q 2366 -91 2075 -91 
Q 1284 -91 818 406 
Q 353 903 353 1747 
Q 353 2603 823 3093 
Q 1294 3584 2113 3584 
Q 2378 3584 2631 3529 
Q 2884 3475 3122 3366 
z
" transform="scale(0.015625)"/>
       <path id="DejaVuSans-68" d="M 3513 2113 
L 3513 0 
L 2938 0 
L 2938 2094 
Q 2938 2591 2744 2837 
Q 2550 3084 2163 3084 
Q 1697 3084 1428 2787 
Q 1159 2491 1159 1978 
L 1159 0 
L 581 0 
L 581 4863 
L 1159 4863 
L 1159 2956 
Q 1366 3272 1645 3428 
Q 1925 3584 2291 3584 
Q 2894 3584 3203 3211 
Q 3513 2838 3513 2113 
z
" transform="scale(0.015625)"/>
       <path id="DejaVuSans-20" transform="scale(0.015625)"/>
       <path id="DejaVuSans-73" d="M 2834 3397 
L 2834 2853 
Q 2591 2978 2328 3040 
Q 2066 3103 1784 3103 
Q 1356 3103 1142 2972 
Q 928 2841 928 2578 
Q 928 2378 1081 2264 
Q 1234 2150 1697 2047 
L 1894 2003 
Q 2506 1872 2764 1633 
Q 3022 1394 3022 966 
Q 3022 478 2636 193 
Q 2250 -91 1575 -91 
Q 1294 -91 989 -36 
Q 684 19 347 128 
L 347 722 
Q 666 556 975 473 
Q 1284 391 1588 391 
Q 1994 391 2212 530 
Q 2431 669 2431 922 
Q 2431 1156 2273 1281 
Q 2116 1406 1581 1522 
L 1381 1569 
Q 847 1681 609 1914 
Q 372 2147 372 2553 
Q 372 3047 722 3315 
Q 1072 3584 1716 3584 
Q 2034 3584 2315 3537 
Q 2597 3491 2834 3397 
z
" transform="scale(0.015625)"/>
       <path id="DejaVuSans-69" d="M 603 3500 
L 1178 3500 
L 1178 0 
L 603 0 
L 603 3500 
z
M 603 4863 
L 1178 4863 
L 1178 4134 
L 603 4134 
L 603 4863 
z
" transform="scale(0.015625)"/>
       <path id="DejaVuSans-7a" d="M 353 3500 
L 3084 3500 
L 3084 2975 
L 922 459 
L 3084 459 
L 3084 0 
L 275 0 
L 275 525 
L 2438 3041 
L 353 3041 
L 353 3500 
z
" transform="scale(0.015625)"/>
       <path id="DejaVuSans-65" d="M 3597 1894 
L 3597 1613 
L 953 1613 
Q 991 1019 1311 708 
Q 1631 397 2203 397 
Q 2534 397 2845 478 
Q 3156 559 3463 722 
L 3463 178 
Q 3153 47 2828 -22 
Q 2503 -91 2169 -91 
Q 1331 -91 842 396 
Q 353 884 353 1716 
Q 353 2575 817 3079 
Q 1281 3584 2069 3584 
Q 2775 3584 3186 3129 
Q 3597 2675 3597 1894 
z
M 3022 2063 
Q 3016 2534 2758 2815 
Q 2500 3097 2075 3097 
Q 1594 3097 1305 2825 
Q 1016 2553 972 2059 
L 3022 2063 
z
" transform="scale(0.015625)"/>
      </defs>
      <use xlink:href="#DejaVuSans-62"/>
      <use xlink:href="#DejaVuSans-61" x="63.476562"/>
      <use xlink:href="#DejaVuSans-74" x="124.755859"/>
      <use xlink:href="#DejaVuSans-63" x="163.964844"/>
      <use xlink:href="#DejaVuSans-68" x="218.945312"/>
      <use xlink:href="#DejaVuSans-20" x="282.324219"/>
      <use xlink:href="#DejaVuSans-73" x="314.111328"/>
      <use xlink:href="#DejaVuSans-69" x="366.210938"/>
      <use xlink:href="#DejaVuSans-7a" x="393.994141"/>
      <use xlink:href="#DejaVuSans-65" x="446.484375"/>
     </g>
    </g>
   </g>
   <g id="matplotlib.axis_2">
    <g id="ytick_1">
     <g id="line2d_10">
      <defs>
       <path id="m6f5a5b8a61" d="M 0 0 
L -3.5 0 
" style="stroke: #000000; stroke-width: 0.8"/>
      </defs>
      <g>
       <use xlink:href="#m6f5a5b8a61" x="63.92" y="363.611332" style="stroke: #000000; stroke-width: 0.8"/>
      </g>
     </g>
    </g>
    <g id="ytick_2">
     <g id="line2d_11">
      <g>
       <use xlink:href="#m6f5a5b8a61" x="63.92" y="323.894955" style="stroke: #000000; stroke-width: 0.8"/>
      </g>
     </g>
    </g>
    <g id="ytick_3">
     <g id="line2d_12">
      <g>
       <use xlink:href="#m6f5a5b8a61" x="63.92" y="284.178578" style="stroke: #000000; stroke-width: 0.8"/>
      </g>
     </g>
     <g id="text_11">
      <!-- 2000 -->
      <g transform="translate(31.47 287.977796)scale(0.1 -0.1)">
       <defs>
        <path id="DejaVuSans-30" d="M 2034 4250 
Q 1547 4250 1301 3770 
Q 1056 3291 1056 2328 
Q 1056 1369 1301 889 
Q 1547 409 2034 409 
Q 2525 409 2770 889 
Q 3016 1369 3016 2328 
Q 3016 3291 2770 3770 
Q 2525 4250 2034 4250 
z
M 2034 4750 
Q 2819 4750 3233 4129 
Q 3647 3509 3647 2328 
Q 3647 1150 3233 529 
Q 2819 -91 2034 -91 
Q 1250 -91 836 529 
Q 422 1150 422 2328 
Q 422 3509 836 4129 
Q 1250 4750 2034 4750 
z
" transform="scale(0.015625)"/>
       </defs>
       <use xlink:href="#DejaVuSans-32"/>
       <use xlink:href="#DejaVuSans-30" x="63.623047"/>
       <use xlink:href="#DejaVuSans-30" x="127.246094"/>
       <use xlink:href="#DejaVuSans-30" x="190.869141"/>
      </g>
     </g>
    </g>
    <g id="ytick_4">
     <g id="line2d_13">
      <g>
       <use xlink:href="#m6f5a5b8a61" x="63.92" y="244.462201" style="stroke: #000000; stroke-width: 0.8"/>
      </g>
     </g>
     <g id="text_12">
      <!-- 3000 -->
      <g transform="translate(31.47 248.261419)scale(0.1 -0.1)">
       <use xlink:href="#DejaVuSans-33"/>
       <use xlink:href="#DejaVuSans-30" x="63.623047"/>
       <use xlink:href="#DejaVuSans-30" x="127.246094"/>
       <use xlink:href="#DejaVuSans-30" x="190.869141"/>
      </g>
     </g>
    </g>
    <g id="ytick_5">
     <g id="line2d_14">
      <g>
       <use xlink:href="#m6f5a5b8a61" x="63.92" y="204.745823" style="stroke: #000000; stroke-width: 0.8"/>
      </g>
     </g>
     <g id="text_13">
      <!-- 4000 -->
      <g transform="translate(31.47 208.545042)scale(0.1 -0.1)">
       <use xlink:href="#DejaVuSans-34"/>
       <use xlink:href="#DejaVuSans-30" x="63.623047"/>
       <use xlink:href="#DejaVuSans-30" x="127.246094"/>
       <use xlink:href="#DejaVuSans-30" x="190.869141"/>
      </g>
     </g>
    </g>
    <g id="ytick_6">
     <g id="line2d_15">
      <g>
       <use xlink:href="#m6f5a5b8a61" x="63.92" y="165.029446" style="stroke: #000000; stroke-width: 0.8"/>
      </g>
     </g>
     <g id="text_14">
      <!-- 5000 -->
      <g transform="translate(31.47 168.828665)scale(0.1 -0.1)">
       <use xlink:href="#DejaVuSans-35"/>
       <use xlink:href="#DejaVuSans-30" x="63.623047"/>
       <use xlink:href="#DejaVuSans-30" x="127.246094"/>
       <use xlink:href="#DejaVuSans-30" x="190.869141"/>
      </g>
     </g>
    </g>
    <g id="ytick_7">
     <g id="line2d_16">
      <g>
       <use xlink:href="#m6f5a5b8a61" x="63.92" y="125.313069" style="stroke: #000000; stroke-width: 0.8"/>
      </g>
     </g>
     <g id="text_15">
      <!-- 6000 -->
      <g transform="translate(31.47 129.112288)scale(0.1 -0.1)">
       <use xlink:href="#DejaVuSans-36"/>
       <use xlink:href="#DejaVuSans-30" x="63.623047"/>
       <use xlink:href="#DejaVuSans-30" x="127.246094"/>
       <use xlink:href="#DejaVuSans-30" x="190.869141"/>
      </g>
     </g>
    </g>
    <g id="ytick_8">
     <g id="line2d_17">
      <g>
       <use xlink:href="#m6f5a5b8a61" x="63.92" y="85.596692" style="stroke: #000000; stroke-width: 0.8"/>
      </g>
     </g>
     <g id="text_16">
      <!-- 7000 -->
      <g transform="translate(31.47 89.395911)scale(0.1 -0.1)">
       <defs>
        <path id="DejaVuSans-37" d="M 525 4666 
L 3525 4666 
L 3525 4397 
L 1831 0 
L 1172 0 
L 2766 4134 
L 525 4134 
L 525 4666 
z
" transform="scale(0.015625)"/>
       </defs>
       <use xlink:href="#DejaVuSans-37"/>
       <use xlink:href="#DejaVuSans-30" x="63.623047"/>
       <use xlink:href="#DejaVuSans-30" x="127.246094"/>
       <use xlink:href="#DejaVuSans-30" x="190.869141"/>
      </g>
     </g>
    </g>
    <g id="ytick_9">
     <g id="line2d_18">
      <g>
       <use xlink:href="#m6f5a5b8a61" x="63.92" y="45.880315" style="stroke: #000000; stroke-width: 0.8"/>
      </g>
     </g>
     <g id="text_17">
      <!-- 8000 -->
      <g transform="translate(31.47 49.679534)scale(0.1 -0.1)">
       <use xlink:href="#DejaVuSans-38"/>
       <use xlink:href="#DejaVuSans-30" x="63.623047"/>
       <use xlink:href="#DejaVuSans-30" x="127.246094"/>
       <use xlink:href="#DejaVuSans-30" x="190.869141"/>
      </g>
     </g>
    </g>
    <g id="text_18">
     <!-- FB used -->
     <g transform="translate(24.1425 227.116916)rotate(-90)scale(0.16 -0.16)">
      <defs>
       <path id="DejaVuSans-46" d="M 628 4666 
L 3309 4666 
L 3309 4134 
L 1259 4134 
L 1259 2759 
L 3109 2759 
L 3109 2228 
L 1259 2228 
L 1259 0 
L 628 0 
L 628 4666 
z
" transform="scale(0.015625)"/>
       <path id="DejaVuSans-42" d="M 1259 2228 
L 1259 519 
L 2272 519 
Q 2781 519 3026 730 
Q 3272 941 3272 1375 
Q 3272 1813 3026 2020 
Q 2781 2228 2272 2228 
L 1259 2228 
z
M 1259 4147 
L 1259 2741 
L 2194 2741 
Q 2656 2741 2882 2914 
Q 3109 3088 3109 3444 
Q 3109 3797 2882 3972 
Q 2656 4147 2194 4147 
L 1259 4147 
z
M 628 4666 
L 2241 4666 
Q 2963 4666 3353 4366 
Q 3744 4066 3744 3513 
Q 3744 3084 3544 2831 
Q 3344 2578 2956 2516 
Q 3422 2416 3680 2098 
Q 3938 1781 3938 1306 
Q 3938 681 3513 340 
Q 3088 0 2303 0 
L 628 0 
L 628 4666 
z
" transform="scale(0.015625)"/>
       <path id="DejaVuSans-75" d="M 544 1381 
L 544 3500 
L 1119 3500 
L 1119 1403 
Q 1119 906 1312 657 
Q 1506 409 1894 409 
Q 2359 409 2629 706 
Q 2900 1003 2900 1516 
L 2900 3500 
L 3475 3500 
L 3475 0 
L 2900 0 
L 2900 538 
Q 2691 219 2414 64 
Q 2138 -91 1772 -91 
Q 1169 -91 856 284 
Q 544 659 544 1381 
z
M 1991 3584 
L 1991 3584 
z
" transform="scale(0.015625)"/>
       <path id="DejaVuSans-64" d="M 2906 2969 
L 2906 4863 
L 3481 4863 
L 3481 0 
L 2906 0 
L 2906 525 
Q 2725 213 2448 61 
Q 2172 -91 1784 -91 
Q 1150 -91 751 415 
Q 353 922 353 1747 
Q 353 2572 751 3078 
Q 1150 3584 1784 3584 
Q 2172 3584 2448 3432 
Q 2725 3281 2906 2969 
z
M 947 1747 
Q 947 1113 1208 752 
Q 1469 391 1925 391 
Q 2381 391 2643 752 
Q 2906 1113 2906 1747 
Q 2906 2381 2643 2742 
Q 2381 3103 1925 3103 
Q 1469 3103 1208 2742 
Q 947 2381 947 1747 
z
" transform="scale(0.015625)"/>
      </defs>
      <use xlink:href="#DejaVuSans-46"/>
      <use xlink:href="#DejaVuSans-42" x="57.519531"/>
      <use xlink:href="#DejaVuSans-20" x="126.123047"/>
      <use xlink:href="#DejaVuSans-75" x="157.910156"/>
      <use xlink:href="#DejaVuSans-73" x="221.289062"/>
      <use xlink:href="#DejaVuSans-65" x="273.388672"/>
      <use xlink:href="#DejaVuSans-64" x="334.912109"/>
     </g>
    </g>
   </g>
   <g id="patch_39">
    <path d="M 63.92 363.611332 
L 63.92 26.88 
" style="fill: none; stroke: #000000; stroke-width: 0.8; stroke-linejoin: miter; stroke-linecap: square"/>
   </g>
   <g id="patch_40">
    <path d="M 493.603487 363.611332 
L 493.603487 26.88 
" style="fill: none; stroke: #000000; stroke-width: 0.8; stroke-linejoin: miter; stroke-linecap: square"/>
   </g>
   <g id="patch_41">
    <path d="M 63.92 363.611332 
L 493.603487 363.611332 
" style="fill: none; stroke: #000000; stroke-width: 0.8; stroke-linejoin: miter; stroke-linecap: square"/>
   </g>
   <g id="patch_42">
    <path d="M 63.92 26.88 
L 493.603487 26.88 
" style="fill: none; stroke: #000000; stroke-width: 0.8; stroke-linejoin: miter; stroke-linecap: square"/>
   </g>
   <g id="text_19">
    <!-- 1448 -->
    <g transform="translate(91.638345 305.279278)scale(0.04 -0.04)">
     <use xlink:href="#DejaVuSans-31"/>
     <use xlink:href="#DejaVuSans-34" x="63.623047"/>
     <use xlink:href="#DejaVuSans-34" x="127.246094"/>
     <use xlink:href="#DejaVuSans-38" x="190.869141"/>
    </g>
   </g>
   <g id="text_20">
    <!-- 1448 -->
    <g transform="translate(133.971694 305.269507)scale(0.04 -0.04)">
     <use xlink:href="#DejaVuSans-31"/>
     <use xlink:href="#DejaVuSans-34" x="63.623047"/>
     <use xlink:href="#DejaVuSans-34" x="127.246094"/>
     <use xlink:href="#DejaVuSans-38" x="190.869141"/>
    </g>
   </g>
   <g id="text_21">
    <!-- 1471 -->
    <g transform="translate(176.305042 304.339072)scale(0.04 -0.04)">
     <use xlink:href="#DejaVuSans-31"/>
     <use xlink:href="#DejaVuSans-34" x="63.623047"/>
     <use xlink:href="#DejaVuSans-37" x="127.246094"/>
     <use xlink:href="#DejaVuSans-31" x="190.869141"/>
    </g>
   </g>
   <g id="text_22">
    <!-- 1533 -->
    <g transform="translate(218.63839 301.877332)scale(0.04 -0.04)">
     <use xlink:href="#DejaVuSans-31"/>
     <use xlink:href="#DejaVuSans-35" x="63.623047"/>
     <use xlink:href="#DejaVuSans-33" x="127.246094"/>
     <use xlink:href="#DejaVuSans-33" x="190.869141"/>
    </g>
   </g>
   <g id="text_23">
    <!-- 1649 -->
    <g transform="translate(260.971739 297.270232)scale(0.04 -0.04)">
     <defs>
      <path id="DejaVuSans-39" d="M 703 97 
L 703 672 
Q 941 559 1184 500 
Q 1428 441 1663 441 
Q 2288 441 2617 861 
Q 2947 1281 2994 2138 
Q 2813 1869 2534 1725 
Q 2256 1581 1919 1581 
Q 1219 1581 811 2004 
Q 403 2428 403 3163 
Q 403 3881 828 4315 
Q 1253 4750 1959 4750 
Q 2769 4750 3195 4129 
Q 3622 3509 3622 2328 
Q 3622 1225 3098 567 
Q 2575 -91 1691 -91 
Q 1453 -91 1209 -44 
Q 966 3 703 97 
z
M 1959 2075 
Q 2384 2075 2632 2365 
Q 2881 2656 2881 3163 
Q 2881 3666 2632 3958 
Q 2384 4250 1959 4250 
Q 1534 4250 1286 3958 
Q 1038 3666 1038 3163 
Q 1038 2656 1286 2365 
Q 1534 2075 1959 2075 
z
" transform="scale(0.015625)"/>
     </defs>
     <use xlink:href="#DejaVuSans-31"/>
     <use xlink:href="#DejaVuSans-36" x="63.623047"/>
     <use xlink:href="#DejaVuSans-34" x="127.246094"/>
     <use xlink:href="#DejaVuSans-39" x="190.869141"/>
    </g>
   </g>
   <g id="text_24">
    <!-- 1968 -->
    <g transform="translate(303.305087 284.617627)scale(0.04 -0.04)">
     <use xlink:href="#DejaVuSans-31"/>
     <use xlink:href="#DejaVuSans-39" x="63.623047"/>
     <use xlink:href="#DejaVuSans-36" x="127.246094"/>
     <use xlink:href="#DejaVuSans-38" x="190.869141"/>
    </g>
   </g>
   <g id="text_25">
    <!-- 2500 -->
    <g transform="translate(345.638436 263.488514)scale(0.04 -0.04)">
     <use xlink:href="#DejaVuSans-32"/>
     <use xlink:href="#DejaVuSans-35" x="63.623047"/>
     <use xlink:href="#DejaVuSans-30" x="127.246094"/>
     <use xlink:href="#DejaVuSans-30" x="190.869141"/>
    </g>
   </g>
   <g id="text_26">
    <!-- 3551 -->
    <g transform="translate(387.971784 221.753115)scale(0.04 -0.04)">
     <use xlink:href="#DejaVuSans-33"/>
     <use xlink:href="#DejaVuSans-35" x="63.623047"/>
     <use xlink:href="#DejaVuSans-35" x="127.246094"/>
     <use xlink:href="#DejaVuSans-31" x="190.869141"/>
    </g>
   </g>
   <g id="text_27">
    <!-- 5666 -->
    <g transform="translate(430.305133 137.738004)scale(0.04 -0.04)">
     <use xlink:href="#DejaVuSans-35"/>
     <use xlink:href="#DejaVuSans-36" x="63.623047"/>
     <use xlink:href="#DejaVuSans-36" x="127.246094"/>
     <use xlink:href="#DejaVuSans-36" x="190.869141"/>
    </g>
   </g>
   <g id="text_28">
    <!-- 1513 -->
    <g transform="translate(100.105015 302.678173)scale(0.04 -0.04)">
     <use xlink:href="#DejaVuSans-31"/>
     <use xlink:href="#DejaVuSans-35" x="63.623047"/>
     <use xlink:href="#DejaVuSans-31" x="127.246094"/>
     <use xlink:href="#DejaVuSans-33" x="190.869141"/>
    </g>
   </g>
   <g id="text_29">
    <!-- 1513 -->
    <g transform="translate(142.438363 302.691835)scale(0.04 -0.04)">
     <use xlink:href="#DejaVuSans-31"/>
     <use xlink:href="#DejaVuSans-35" x="63.623047"/>
     <use xlink:href="#DejaVuSans-31" x="127.246094"/>
     <use xlink:href="#DejaVuSans-33" x="190.869141"/>
    </g>
   </g>
   <g id="text_30">
    <!-- 1533 -->
    <g transform="translate(184.771712 301.889683)scale(0.04 -0.04)">
     <use xlink:href="#DejaVuSans-31"/>
     <use xlink:href="#DejaVuSans-35" x="63.623047"/>
     <use xlink:href="#DejaVuSans-33" x="127.246094"/>
     <use xlink:href="#DejaVuSans-33" x="190.869141"/>
    </g>
   </g>
   <g id="text_31">
    <!-- 1593 -->
    <g transform="translate(227.10506 299.50539)scale(0.04 -0.04)">
     <use xlink:href="#DejaVuSans-31"/>
     <use xlink:href="#DejaVuSans-35" x="63.623047"/>
     <use xlink:href="#DejaVuSans-39" x="127.246094"/>
     <use xlink:href="#DejaVuSans-33" x="190.869141"/>
    </g>
   </g>
   <g id="text_32">
    <!-- 1711 -->
    <g transform="translate(269.438409 294.828628)scale(0.04 -0.04)">
     <use xlink:href="#DejaVuSans-31"/>
     <use xlink:href="#DejaVuSans-37" x="63.623047"/>
     <use xlink:href="#DejaVuSans-31" x="127.246094"/>
     <use xlink:href="#DejaVuSans-31" x="190.869141"/>
    </g>
   </g>
   <g id="text_33">
    <!-- 2030 -->
    <g transform="translate(311.771757 282.155211)scale(0.04 -0.04)">
     <use xlink:href="#DejaVuSans-32"/>
     <use xlink:href="#DejaVuSans-30" x="63.623047"/>
     <use xlink:href="#DejaVuSans-33" x="127.246094"/>
     <use xlink:href="#DejaVuSans-30" x="190.869141"/>
    </g>
   </g>
   <g id="text_34">
    <!-- 2562 -->
    <g transform="translate(354.105106 261.026099)scale(0.04 -0.04)">
     <use xlink:href="#DejaVuSans-32"/>
     <use xlink:href="#DejaVuSans-35" x="63.623047"/>
     <use xlink:href="#DejaVuSans-36" x="127.246094"/>
     <use xlink:href="#DejaVuSans-32" x="190.869141"/>
    </g>
   </g>
   <g id="text_35">
    <!-- 3630 -->
    <g transform="translate(396.438454 218.609008)scale(0.04 -0.04)">
     <use xlink:href="#DejaVuSans-33"/>
     <use xlink:href="#DejaVuSans-36" x="63.623047"/>
     <use xlink:href="#DejaVuSans-33" x="127.246094"/>
     <use xlink:href="#DejaVuSans-30" x="190.869141"/>
    </g>
   </g>
   <g id="text_36">
    <!-- 5762 -->
    <g transform="translate(438.771802 133.933692)scale(0.04 -0.04)">
     <use xlink:href="#DejaVuSans-35"/>
     <use xlink:href="#DejaVuSans-37" x="63.623047"/>
     <use xlink:href="#DejaVuSans-36" x="127.246094"/>
     <use xlink:href="#DejaVuSans-32" x="190.869141"/>
    </g>
   </g>
   <g id="text_37">
    <!-- 1577 -->
    <g transform="translate(108.571684 300.162339)scale(0.04 -0.04)">
     <use xlink:href="#DejaVuSans-31"/>
     <use xlink:href="#DejaVuSans-35" x="63.623047"/>
     <use xlink:href="#DejaVuSans-37" x="127.246094"/>
     <use xlink:href="#DejaVuSans-37" x="190.869141"/>
    </g>
   </g>
   <g id="text_38">
    <!-- 1573 -->
    <g transform="translate(150.905033 300.310163)scale(0.04 -0.04)">
     <use xlink:href="#DejaVuSans-31"/>
     <use xlink:href="#DejaVuSans-35" x="63.623047"/>
     <use xlink:href="#DejaVuSans-37" x="127.246094"/>
     <use xlink:href="#DejaVuSans-33" x="190.869141"/>
    </g>
   </g>
   <g id="text_39">
    <!-- 1597 -->
    <g transform="translate(193.238381 299.349146)scale(0.04 -0.04)">
     <use xlink:href="#DejaVuSans-31"/>
     <use xlink:href="#DejaVuSans-35" x="63.623047"/>
     <use xlink:href="#DejaVuSans-39" x="127.246094"/>
     <use xlink:href="#DejaVuSans-37" x="190.869141"/>
    </g>
   </g>
   <g id="text_40">
    <!-- 1659 -->
    <g transform="translate(235.57173 296.889352)scale(0.04 -0.04)">
     <use xlink:href="#DejaVuSans-31"/>
     <use xlink:href="#DejaVuSans-36" x="63.623047"/>
     <use xlink:href="#DejaVuSans-35" x="127.246094"/>
     <use xlink:href="#DejaVuSans-39" x="190.869141"/>
    </g>
   </g>
   <g id="text_41">
    <!-- 1774 -->
    <g transform="translate(277.905078 292.323915)scale(0.04 -0.04)">
     <use xlink:href="#DejaVuSans-31"/>
     <use xlink:href="#DejaVuSans-37" x="63.623047"/>
     <use xlink:href="#DejaVuSans-37" x="127.246094"/>
     <use xlink:href="#DejaVuSans-34" x="190.869141"/>
    </g>
   </g>
   <g id="text_42">
    <!-- 2093 -->
    <g transform="translate(320.238427 279.66285)scale(0.04 -0.04)">
     <use xlink:href="#DejaVuSans-32"/>
     <use xlink:href="#DejaVuSans-30" x="63.623047"/>
     <use xlink:href="#DejaVuSans-39" x="127.246094"/>
     <use xlink:href="#DejaVuSans-33" x="190.869141"/>
    </g>
   </g>
   <g id="text_43">
    <!-- 2626 -->
    <g transform="translate(362.571775 258.484251)scale(0.04 -0.04)">
     <use xlink:href="#DejaVuSans-32"/>
     <use xlink:href="#DejaVuSans-36" x="63.623047"/>
     <use xlink:href="#DejaVuSans-32" x="127.246094"/>
     <use xlink:href="#DejaVuSans-36" x="190.869141"/>
    </g>
   </g>
   <g id="text_44">
    <!-- 3694 -->
    <g transform="translate(404.905124 216.06716)scale(0.04 -0.04)">
     <use xlink:href="#DejaVuSans-33"/>
     <use xlink:href="#DejaVuSans-36" x="63.623047"/>
     <use xlink:href="#DejaVuSans-39" x="127.246094"/>
     <use xlink:href="#DejaVuSans-34" x="190.869141"/>
    </g>
   </g>
   <g id="text_45">
    <!-- 5826 -->
    <g transform="translate(447.238472 131.391844)scale(0.04 -0.04)">
     <use xlink:href="#DejaVuSans-35"/>
     <use xlink:href="#DejaVuSans-38" x="63.623047"/>
     <use xlink:href="#DejaVuSans-32" x="127.246094"/>
     <use xlink:href="#DejaVuSans-36" x="190.869141"/>
    </g>
   </g>
   <g id="text_46">
    <!-- 1806 -->
    <g transform="translate(117.038354 291.057558)scale(0.04 -0.04)">
     <use xlink:href="#DejaVuSans-31"/>
     <use xlink:href="#DejaVuSans-38" x="63.623047"/>
     <use xlink:href="#DejaVuSans-30" x="127.246094"/>
     <use xlink:href="#DejaVuSans-36" x="190.869141"/>
    </g>
   </g>
   <g id="text_47">
    <!-- 1807 -->
    <g transform="translate(159.371703 291.01522)scale(0.04 -0.04)">
     <use xlink:href="#DejaVuSans-31"/>
     <use xlink:href="#DejaVuSans-38" x="63.623047"/>
     <use xlink:href="#DejaVuSans-30" x="127.246094"/>
     <use xlink:href="#DejaVuSans-37" x="190.869141"/>
    </g>
   </g>
   <g id="text_48">
    <!-- 1825 -->
    <g transform="translate(201.705051 290.287298)scale(0.04 -0.04)">
     <use xlink:href="#DejaVuSans-31"/>
     <use xlink:href="#DejaVuSans-38" x="63.623047"/>
     <use xlink:href="#DejaVuSans-32" x="127.246094"/>
     <use xlink:href="#DejaVuSans-35" x="190.869141"/>
    </g>
   </g>
   <g id="text_49">
    <!-- 1888 -->
    <g transform="translate(244.0384 287.783221)scale(0.04 -0.04)">
     <use xlink:href="#DejaVuSans-31"/>
     <use xlink:href="#DejaVuSans-38" x="63.623047"/>
     <use xlink:href="#DejaVuSans-38" x="127.246094"/>
     <use xlink:href="#DejaVuSans-38" x="190.869141"/>
    </g>
   </g>
   <g id="text_50">
    <!-- 2002 -->
    <g transform="translate(286.371748 283.2575)scale(0.04 -0.04)">
     <use xlink:href="#DejaVuSans-32"/>
     <use xlink:href="#DejaVuSans-30" x="63.623047"/>
     <use xlink:href="#DejaVuSans-30" x="127.246094"/>
     <use xlink:href="#DejaVuSans-32" x="190.869141"/>
    </g>
   </g>
   <g id="text_51">
    <!-- 2318 -->
    <g transform="translate(328.705096 270.730557)scale(0.04 -0.04)">
     <use xlink:href="#DejaVuSans-32"/>
     <use xlink:href="#DejaVuSans-33" x="63.623047"/>
     <use xlink:href="#DejaVuSans-31" x="127.246094"/>
     <use xlink:href="#DejaVuSans-38" x="190.869141"/>
    </g>
   </g>
   <g id="text_52">
    <!-- 2847 -->
    <g transform="translate(371.038445 249.699782)scale(0.04 -0.04)">
     <use xlink:href="#DejaVuSans-32"/>
     <use xlink:href="#DejaVuSans-38" x="63.623047"/>
     <use xlink:href="#DejaVuSans-34" x="127.246094"/>
     <use xlink:href="#DejaVuSans-37" x="190.869141"/>
    </g>
   </g>
   <g id="text_53">
    <!-- 3907 -->
    <g transform="translate(413.371793 207.605625)scale(0.04 -0.04)">
     <use xlink:href="#DejaVuSans-33"/>
     <use xlink:href="#DejaVuSans-39" x="63.623047"/>
     <use xlink:href="#DejaVuSans-30" x="127.246094"/>
     <use xlink:href="#DejaVuSans-37" x="190.869141"/>
    </g>
   </g>
   <g id="text_54">
    <!-- 6056 -->
    <g transform="translate(455.705142 122.257077)scale(0.04 -0.04)">
     <use xlink:href="#DejaVuSans-36"/>
     <use xlink:href="#DejaVuSans-30" x="63.623047"/>
     <use xlink:href="#DejaVuSans-35" x="127.246094"/>
     <use xlink:href="#DejaVuSans-36" x="190.869141"/>
    </g>
   </g>
   <g id="text_55">
    <!-- resnet50 -->
    <g transform="translate(249.9119 20.88)scale(0.13 -0.13)">
     <defs>
      <path id="DejaVuSans-72" d="M 2631 2963 
Q 2534 3019 2420 3045 
Q 2306 3072 2169 3072 
Q 1681 3072 1420 2755 
Q 1159 2438 1159 1844 
L 1159 0 
L 581 0 
L 581 3500 
L 1159 3500 
L 1159 2956 
Q 1341 3275 1631 3429 
Q 1922 3584 2338 3584 
Q 2397 3584 2469 3576 
Q 2541 3569 2628 3553 
L 2631 2963 
z
" transform="scale(0.015625)"/>
      <path id="DejaVuSans-6e" d="M 3513 2113 
L 3513 0 
L 2938 0 
L 2938 2094 
Q 2938 2591 2744 2837 
Q 2550 3084 2163 3084 
Q 1697 3084 1428 2787 
Q 1159 2491 1159 1978 
L 1159 0 
L 581 0 
L 581 3500 
L 1159 3500 
L 1159 2956 
Q 1366 3272 1645 3428 
Q 1925 3584 2291 3584 
Q 2894 3584 3203 3211 
Q 3513 2838 3513 2113 
z
" transform="scale(0.015625)"/>
     </defs>
     <use xlink:href="#DejaVuSans-72"/>
     <use xlink:href="#DejaVuSans-65" x="38.863281"/>
     <use xlink:href="#DejaVuSans-73" x="100.386719"/>
     <use xlink:href="#DejaVuSans-6e" x="152.486328"/>
     <use xlink:href="#DejaVuSans-65" x="215.865234"/>
     <use xlink:href="#DejaVuSans-74" x="277.388672"/>
     <use xlink:href="#DejaVuSans-35" x="316.597656"/>
     <use xlink:href="#DejaVuSans-30" x="380.220703"/>
    </g>
   </g>
   <g id="legend_1">
    <g id="patch_43">
     <path d="M 273.095049 75.443125 
L 484.503487 75.443125 
Q 487.103487 75.443125 487.103487 72.843125 
L 487.103487 35.98 
Q 487.103487 33.38 484.503487 33.38 
L 273.095049 33.38 
Q 270.495049 33.38 270.495049 35.98 
L 270.495049 72.843125 
Q 270.495049 75.443125 273.095049 75.443125 
z
" style="fill: #ffffff; opacity: 0.8; stroke: #cccccc; stroke-linejoin: miter"/>
    </g>
    <g id="patch_44">
     <path d="M 275.695049 48.457969 
L 301.695049 48.457969 
L 301.695049 39.357969 
L 275.695049 39.357969 
z
" style="fill: #dc143c"/>
    </g>
    <g id="text_56">
     <!-- 1g.10gb -->
     <g transform="translate(312.095049 48.457969)scale(0.13 -0.13)">
      <defs>
       <path id="DejaVuSans-67" d="M 2906 1791 
Q 2906 2416 2648 2759 
Q 2391 3103 1925 3103 
Q 1463 3103 1205 2759 
Q 947 2416 947 1791 
Q 947 1169 1205 825 
Q 1463 481 1925 481 
Q 2391 481 2648 825 
Q 2906 1169 2906 1791 
z
M 3481 434 
Q 3481 -459 3084 -895 
Q 2688 -1331 1869 -1331 
Q 1566 -1331 1297 -1286 
Q 1028 -1241 775 -1147 
L 775 -588 
Q 1028 -725 1275 -790 
Q 1522 -856 1778 -856 
Q 2344 -856 2625 -561 
Q 2906 -266 2906 331 
L 2906 616 
Q 2728 306 2450 153 
Q 2172 0 1784 0 
Q 1141 0 747 490 
Q 353 981 353 1791 
Q 353 2603 747 3093 
Q 1141 3584 1784 3584 
Q 2172 3584 2450 3431 
Q 2728 3278 2906 2969 
L 2906 3500 
L 3481 3500 
L 3481 434 
z
" transform="scale(0.015625)"/>
       <path id="DejaVuSans-2e" d="M 684 794 
L 1344 794 
L 1344 0 
L 684 0 
L 684 794 
z
" transform="scale(0.015625)"/>
      </defs>
      <use xlink:href="#DejaVuSans-31"/>
      <use xlink:href="#DejaVuSans-67" x="63.623047"/>
      <use xlink:href="#DejaVuSans-2e" x="127.099609"/>
      <use xlink:href="#DejaVuSans-31" x="158.886719"/>
      <use xlink:href="#DejaVuSans-30" x="222.509766"/>
      <use xlink:href="#DejaVuSans-67" x="286.132812"/>
      <use xlink:href="#DejaVuSans-62" x="349.609375"/>
     </g>
    </g>
    <g id="patch_45">
     <path d="M 275.695049 67.539531 
L 301.695049 67.539531 
L 301.695049 58.439531 
L 275.695049 58.439531 
z
" style="fill: #8b008b"/>
    </g>
    <g id="text_57">
     <!-- 2g.20gb -->
     <g transform="translate(312.095049 67.539531)scale(0.13 -0.13)">
      <use xlink:href="#DejaVuSans-32"/>
      <use xlink:href="#DejaVuSans-67" x="63.623047"/>
      <use xlink:href="#DejaVuSans-2e" x="127.099609"/>
      <use xlink:href="#DejaVuSans-32" x="158.886719"/>
      <use xlink:href="#DejaVuSans-30" x="222.509766"/>
      <use xlink:href="#DejaVuSans-67" x="286.132812"/>
      <use xlink:href="#DejaVuSans-62" x="349.609375"/>
     </g>
    </g>
    <g id="patch_46">
     <path d="M 391.799268 48.457969 
L 417.799268 48.457969 
L 417.799268 39.357969 
L 391.799268 39.357969 
z
" style="fill: #6495ed"/>
    </g>
    <g id="text_58">
     <!-- 3g.40gb -->
     <g transform="translate(428.199268 48.457969)scale(0.13 -0.13)">
      <use xlink:href="#DejaVuSans-33"/>
      <use xlink:href="#DejaVuSans-67" x="63.623047"/>
      <use xlink:href="#DejaVuSans-2e" x="127.099609"/>
      <use xlink:href="#DejaVuSans-34" x="158.886719"/>
      <use xlink:href="#DejaVuSans-30" x="222.509766"/>
      <use xlink:href="#DejaVuSans-67" x="286.132812"/>
      <use xlink:href="#DejaVuSans-62" x="349.609375"/>
     </g>
    </g>
    <g id="patch_47">
     <path d="M 391.799268 67.539531 
L 417.799268 67.539531 
L 417.799268 58.439531 
L 391.799268 58.439531 
z
" style="fill: #3cb371"/>
    </g>
    <g id="text_59">
     <!-- 7g.80gb -->
     <g transform="translate(428.199268 67.539531)scale(0.13 -0.13)">
      <use xlink:href="#DejaVuSans-37"/>
      <use xlink:href="#DejaVuSans-67" x="63.623047"/>
      <use xlink:href="#DejaVuSans-2e" x="127.099609"/>
      <use xlink:href="#DejaVuSans-38" x="158.886719"/>
      <use xlink:href="#DejaVuSans-30" x="222.509766"/>
      <use xlink:href="#DejaVuSans-67" x="286.132812"/>
      <use xlink:href="#DejaVuSans-62" x="349.609375"/>
     </g>
    </g>
   </g>
  </g>
 </g>
 <defs>
  <clipPath id="pd4ad89ac4c">
   <rect x="63.92" y="26.88" width="429.683487" height="336.731332"/>
  </clipPath>
 </defs>
</svg>
